G04 #@! TF.GenerationSoftware,KiCad,Pcbnew,(5.1.4-0-10_14)*
G04 #@! TF.CreationDate,2021-08-26T08:40:52-07:00*
G04 #@! TF.ProjectId,ai03-pcb-guide,61693033-2d70-4636-922d-67756964652e,rev?*
G04 #@! TF.SameCoordinates,Original*
G04 #@! TF.FileFunction,Copper,L1,Top*
G04 #@! TF.FilePolarity,Positive*
%FSLAX46Y46*%
G04 Gerber Fmt 4.6, Leading zero omitted, Abs format (unit mm)*
G04 Created by KiCad (PCBNEW (5.1.4-0-10_14)) date 2021-08-26 08:40:52*
%MOMM*%
%LPD*%
G04 APERTURE LIST*
%ADD10O,1.700000X2.700000*%
%ADD11R,1.905000X1.905000*%
%ADD12C,1.905000*%
%ADD13C,2.250000*%
%ADD14C,2.250000*%
%ADD15C,0.800000*%
%ADD16C,0.254000*%
%ADD17C,0.381000*%
G04 APERTURE END LIST*
D10*
X60643750Y-26987500D03*
X67943750Y-26987500D03*
X67943750Y-31487500D03*
X60643750Y-31487500D03*
D11*
X121929488Y-59039340D03*
D12*
X119389488Y-59039340D03*
D13*
X118159488Y-49959340D03*
X117504489Y-50689340D03*
D14*
X116849488Y-51419340D02*
X118159490Y-49959340D01*
D13*
X123199488Y-48879340D03*
X123179488Y-49169340D03*
D14*
X123159488Y-49459340D02*
X123199488Y-48879340D01*
D11*
X102879488Y-59039340D03*
D12*
X100339488Y-59039340D03*
D13*
X99109488Y-49959340D03*
X98454489Y-50689340D03*
D14*
X97799488Y-51419340D02*
X99109490Y-49959340D01*
D13*
X104149488Y-48879340D03*
X104129488Y-49169340D03*
D14*
X104109488Y-49459340D02*
X104149488Y-48879340D01*
D11*
X121920000Y-40005000D03*
D12*
X119380000Y-40005000D03*
D13*
X118150000Y-30925000D03*
X117495001Y-31655000D03*
D14*
X116840000Y-32385000D02*
X118150002Y-30925000D01*
D13*
X123190000Y-29845000D03*
X123170000Y-30135000D03*
D14*
X123150000Y-30425000D02*
X123190000Y-29845000D01*
D11*
X102879488Y-39989340D03*
D12*
X100339488Y-39989340D03*
D13*
X99109488Y-30909340D03*
X98454489Y-31639340D03*
D14*
X97799488Y-32369340D02*
X99109490Y-30909340D01*
D13*
X104149488Y-29829340D03*
X104129488Y-30119340D03*
D14*
X104109488Y-30409340D02*
X104149488Y-29829340D01*
D15*
X72762500Y-46300000D03*
X69850000Y-34925000D03*
X72762500Y-46300000D03*
X87312500Y-52387500D03*
X91281250Y-39687500D03*
X72762500Y-41012500D03*
X68262500Y-38893750D03*
X66675000Y-53181250D03*
D16*
X109537500Y-35718750D02*
X109537500Y-35782339D01*
D17*
X72762500Y-37837500D02*
X69850000Y-34925000D01*
X72762500Y-38631250D02*
X72762500Y-37837500D01*
X72762500Y-46300000D02*
X72762500Y-48950000D01*
X72762500Y-48950000D02*
X76200000Y-52387500D01*
X76200000Y-52387500D02*
X87312500Y-52387500D01*
X87312500Y-52387500D02*
X91281250Y-48418750D01*
X91281250Y-48418750D02*
X91281250Y-39687500D01*
X72762500Y-41012500D02*
X72762500Y-38631250D01*
X72762500Y-46300000D02*
X72762500Y-41012500D01*
D16*
X97799488Y-33963012D02*
X97799488Y-32369340D01*
X97799488Y-51419340D02*
X97799488Y-33963012D01*
X116849488Y-32369340D02*
X116849488Y-51419340D01*
X68262500Y-38893750D02*
X68262500Y-51593750D01*
X68262500Y-51593750D02*
X66675000Y-53181250D01*
M02*
