G04 #@! TF.GenerationSoftware,KiCad,Pcbnew,(5.1.4-0-10_14)*
G04 #@! TF.CreationDate,2021-08-25T16:18:30-07:00*
G04 #@! TF.ProjectId,ai03-pcb-guide,61693033-2d70-4636-922d-67756964652e,rev?*
G04 #@! TF.SameCoordinates,Original*
G04 #@! TF.FileFunction,Soldermask,Bot*
G04 #@! TF.FilePolarity,Negative*
%FSLAX46Y46*%
G04 Gerber Fmt 4.6, Leading zero omitted, Abs format (unit mm)*
G04 Created by KiCad (PCBNEW (5.1.4-0-10_14)) date 2021-08-25 16:18:30*
%MOMM*%
%LPD*%
G04 APERTURE LIST*
%ADD10C,0.100000*%
G04 APERTURE END LIST*
D10*
G36*
X122932988Y-60042840D02*
G01*
X120925988Y-60042840D01*
X120925988Y-58035840D01*
X122932988Y-58035840D01*
X122932988Y-60042840D01*
X122932988Y-60042840D01*
G37*
G36*
X119515913Y-58041328D02*
G01*
X119682198Y-58074403D01*
X119864824Y-58150049D01*
X120029182Y-58259870D01*
X120168958Y-58399646D01*
X120278779Y-58564004D01*
X120354425Y-58746630D01*
X120392988Y-58940504D01*
X120392988Y-59138176D01*
X120354425Y-59332050D01*
X120278779Y-59514676D01*
X120168958Y-59679034D01*
X120029182Y-59818810D01*
X119864824Y-59928631D01*
X119682198Y-60004277D01*
X119515913Y-60037352D01*
X119488325Y-60042840D01*
X119290651Y-60042840D01*
X119263063Y-60037352D01*
X119096778Y-60004277D01*
X118914152Y-59928631D01*
X118749794Y-59818810D01*
X118610018Y-59679034D01*
X118500197Y-59514676D01*
X118424551Y-59332050D01*
X118385988Y-59138176D01*
X118385988Y-58940504D01*
X118424551Y-58746630D01*
X118500197Y-58564004D01*
X118610018Y-58399646D01*
X118749794Y-58259870D01*
X118914152Y-58150049D01*
X119096778Y-58074403D01*
X119263063Y-58041328D01*
X119290651Y-58035840D01*
X119488325Y-58035840D01*
X119515913Y-58041328D01*
X119515913Y-58041328D01*
G37*
G36*
X103882988Y-60042840D02*
G01*
X101875988Y-60042840D01*
X101875988Y-58035840D01*
X103882988Y-58035840D01*
X103882988Y-60042840D01*
X103882988Y-60042840D01*
G37*
G36*
X100465913Y-58041328D02*
G01*
X100632198Y-58074403D01*
X100814824Y-58150049D01*
X100979182Y-58259870D01*
X101118958Y-58399646D01*
X101228779Y-58564004D01*
X101304425Y-58746630D01*
X101342988Y-58940504D01*
X101342988Y-59138176D01*
X101304425Y-59332050D01*
X101228779Y-59514676D01*
X101118958Y-59679034D01*
X100979182Y-59818810D01*
X100814824Y-59928631D01*
X100632198Y-60004277D01*
X100465913Y-60037352D01*
X100438325Y-60042840D01*
X100240651Y-60042840D01*
X100213063Y-60037352D01*
X100046778Y-60004277D01*
X99864152Y-59928631D01*
X99699794Y-59818810D01*
X99560018Y-59679034D01*
X99450197Y-59514676D01*
X99374551Y-59332050D01*
X99335988Y-59138176D01*
X99335988Y-58940504D01*
X99374551Y-58746630D01*
X99450197Y-58564004D01*
X99560018Y-58399646D01*
X99699794Y-58259870D01*
X99864152Y-58150049D01*
X100046778Y-58074403D01*
X100213063Y-58041328D01*
X100240651Y-58035840D01*
X100438325Y-58035840D01*
X100465913Y-58041328D01*
X100465913Y-58041328D01*
G37*
G36*
X66038500Y-57482250D02*
G01*
X64136500Y-57482250D01*
X64136500Y-56280250D01*
X66038500Y-56280250D01*
X66038500Y-57482250D01*
X66038500Y-57482250D01*
G37*
G36*
X59838500Y-57482250D02*
G01*
X57936500Y-57482250D01*
X57936500Y-56280250D01*
X59838500Y-56280250D01*
X59838500Y-57482250D01*
X59838500Y-57482250D01*
G37*
G36*
X130032250Y-56126000D02*
G01*
X128730250Y-56126000D01*
X128730250Y-55124000D01*
X130032250Y-55124000D01*
X130032250Y-56126000D01*
X130032250Y-56126000D01*
G37*
G36*
X110982250Y-56063500D02*
G01*
X109680250Y-56063500D01*
X109680250Y-55061500D01*
X110982250Y-55061500D01*
X110982250Y-56063500D01*
X110982250Y-56063500D01*
G37*
G36*
X102205962Y-51993024D02*
G01*
X102387310Y-52068141D01*
X102578111Y-52147173D01*
X102913036Y-52370963D01*
X103197865Y-52655792D01*
X103421655Y-52990717D01*
X103454050Y-53068926D01*
X103575804Y-53362866D01*
X103654388Y-53757934D01*
X103654388Y-54160746D01*
X103575804Y-54555814D01*
X103524939Y-54678612D01*
X103421655Y-54927963D01*
X103197865Y-55262888D01*
X102913036Y-55547717D01*
X102578111Y-55771507D01*
X102423962Y-55835357D01*
X102205962Y-55925656D01*
X101810894Y-56004240D01*
X101408082Y-56004240D01*
X101013014Y-55925656D01*
X100795014Y-55835357D01*
X100640865Y-55771507D01*
X100305940Y-55547717D01*
X100021111Y-55262888D01*
X99797321Y-54927963D01*
X99694037Y-54678612D01*
X99643172Y-54555814D01*
X99564588Y-54160746D01*
X99564588Y-53757934D01*
X99643172Y-53362866D01*
X99764926Y-53068926D01*
X99797321Y-52990717D01*
X100021111Y-52655792D01*
X100305940Y-52370963D01*
X100640865Y-52147173D01*
X100831666Y-52068141D01*
X101013014Y-51993024D01*
X101408082Y-51914440D01*
X101810894Y-51914440D01*
X102205962Y-51993024D01*
X102205962Y-51993024D01*
G37*
G36*
X121255962Y-51993024D02*
G01*
X121437310Y-52068141D01*
X121628111Y-52147173D01*
X121963036Y-52370963D01*
X122247865Y-52655792D01*
X122471655Y-52990717D01*
X122504050Y-53068926D01*
X122625804Y-53362866D01*
X122704388Y-53757934D01*
X122704388Y-54160746D01*
X122625804Y-54555814D01*
X122574939Y-54678612D01*
X122471655Y-54927963D01*
X122247865Y-55262888D01*
X121963036Y-55547717D01*
X121628111Y-55771507D01*
X121473962Y-55835357D01*
X121255962Y-55925656D01*
X120860894Y-56004240D01*
X120458082Y-56004240D01*
X120063014Y-55925656D01*
X119845014Y-55835357D01*
X119690865Y-55771507D01*
X119355940Y-55547717D01*
X119071111Y-55262888D01*
X118847321Y-54927963D01*
X118744037Y-54678612D01*
X118693172Y-54555814D01*
X118614588Y-54160746D01*
X118614588Y-53757934D01*
X118693172Y-53362866D01*
X118814926Y-53068926D01*
X118847321Y-52990717D01*
X119071111Y-52655792D01*
X119355940Y-52370963D01*
X119690865Y-52147173D01*
X119881666Y-52068141D01*
X120063014Y-51993024D01*
X120458082Y-51914440D01*
X120860894Y-51914440D01*
X121255962Y-51993024D01*
X121255962Y-51993024D01*
G37*
G36*
X96799592Y-53068925D02*
G01*
X96968114Y-53138729D01*
X97119779Y-53240068D01*
X97248760Y-53369049D01*
X97350099Y-53520714D01*
X97419903Y-53689236D01*
X97455488Y-53868137D01*
X97455488Y-54050543D01*
X97419903Y-54229444D01*
X97350099Y-54397966D01*
X97248760Y-54549631D01*
X97119779Y-54678612D01*
X96968114Y-54779951D01*
X96799592Y-54849755D01*
X96620691Y-54885340D01*
X96438285Y-54885340D01*
X96259384Y-54849755D01*
X96090862Y-54779951D01*
X95939197Y-54678612D01*
X95810216Y-54549631D01*
X95708877Y-54397966D01*
X95639073Y-54229444D01*
X95603488Y-54050543D01*
X95603488Y-53868137D01*
X95639073Y-53689236D01*
X95708877Y-53520714D01*
X95810216Y-53369049D01*
X95939197Y-53240068D01*
X96090862Y-53138729D01*
X96259384Y-53068925D01*
X96438285Y-53033340D01*
X96620691Y-53033340D01*
X96799592Y-53068925D01*
X96799592Y-53068925D01*
G37*
G36*
X106959592Y-53068925D02*
G01*
X107128114Y-53138729D01*
X107279779Y-53240068D01*
X107408760Y-53369049D01*
X107510099Y-53520714D01*
X107579903Y-53689236D01*
X107615488Y-53868137D01*
X107615488Y-54050543D01*
X107579903Y-54229444D01*
X107510099Y-54397966D01*
X107408760Y-54549631D01*
X107279779Y-54678612D01*
X107128114Y-54779951D01*
X106959592Y-54849755D01*
X106780691Y-54885340D01*
X106598285Y-54885340D01*
X106419384Y-54849755D01*
X106250862Y-54779951D01*
X106099197Y-54678612D01*
X105970216Y-54549631D01*
X105868877Y-54397966D01*
X105799073Y-54229444D01*
X105763488Y-54050543D01*
X105763488Y-53868137D01*
X105799073Y-53689236D01*
X105868877Y-53520714D01*
X105970216Y-53369049D01*
X106099197Y-53240068D01*
X106250862Y-53138729D01*
X106419384Y-53068925D01*
X106598285Y-53033340D01*
X106780691Y-53033340D01*
X106959592Y-53068925D01*
X106959592Y-53068925D01*
G37*
G36*
X115849592Y-53068925D02*
G01*
X116018114Y-53138729D01*
X116169779Y-53240068D01*
X116298760Y-53369049D01*
X116400099Y-53520714D01*
X116469903Y-53689236D01*
X116505488Y-53868137D01*
X116505488Y-54050543D01*
X116469903Y-54229444D01*
X116400099Y-54397966D01*
X116298760Y-54549631D01*
X116169779Y-54678612D01*
X116018114Y-54779951D01*
X115849592Y-54849755D01*
X115670691Y-54885340D01*
X115488285Y-54885340D01*
X115309384Y-54849755D01*
X115140862Y-54779951D01*
X114989197Y-54678612D01*
X114860216Y-54549631D01*
X114758877Y-54397966D01*
X114689073Y-54229444D01*
X114653488Y-54050543D01*
X114653488Y-53868137D01*
X114689073Y-53689236D01*
X114758877Y-53520714D01*
X114860216Y-53369049D01*
X114989197Y-53240068D01*
X115140862Y-53138729D01*
X115309384Y-53068925D01*
X115488285Y-53033340D01*
X115670691Y-53033340D01*
X115849592Y-53068925D01*
X115849592Y-53068925D01*
G37*
G36*
X126009592Y-53068925D02*
G01*
X126178114Y-53138729D01*
X126329779Y-53240068D01*
X126458760Y-53369049D01*
X126560099Y-53520714D01*
X126629903Y-53689236D01*
X126665488Y-53868137D01*
X126665488Y-54050543D01*
X126629903Y-54229444D01*
X126560099Y-54397966D01*
X126458760Y-54549631D01*
X126329779Y-54678612D01*
X126178114Y-54779951D01*
X126009592Y-54849755D01*
X125830691Y-54885340D01*
X125648285Y-54885340D01*
X125469384Y-54849755D01*
X125300862Y-54779951D01*
X125149197Y-54678612D01*
X125020216Y-54549631D01*
X124918877Y-54397966D01*
X124849073Y-54229444D01*
X124813488Y-54050543D01*
X124813488Y-53868137D01*
X124849073Y-53689236D01*
X124918877Y-53520714D01*
X125020216Y-53369049D01*
X125149197Y-53240068D01*
X125300862Y-53138729D01*
X125469384Y-53068925D01*
X125648285Y-53033340D01*
X125830691Y-53033340D01*
X126009592Y-53068925D01*
X126009592Y-53068925D01*
G37*
G36*
X59838500Y-53782250D02*
G01*
X57936500Y-53782250D01*
X57936500Y-52580250D01*
X59838500Y-52580250D01*
X59838500Y-53782250D01*
X59838500Y-53782250D01*
G37*
G36*
X66038500Y-53782250D02*
G01*
X64136500Y-53782250D01*
X64136500Y-52580250D01*
X66038500Y-52580250D01*
X66038500Y-53782250D01*
X66038500Y-53782250D01*
G37*
G36*
X83804434Y-51853686D02*
G01*
X83844284Y-51865774D01*
X83880999Y-51885399D01*
X83913186Y-51911814D01*
X83939601Y-51944001D01*
X83959226Y-51980716D01*
X83971314Y-52020566D01*
X83976000Y-52068141D01*
X83976000Y-53181859D01*
X83971314Y-53229434D01*
X83959226Y-53269284D01*
X83939601Y-53305999D01*
X83913186Y-53338186D01*
X83880999Y-53364601D01*
X83844284Y-53384226D01*
X83804434Y-53396314D01*
X83756859Y-53401000D01*
X83093141Y-53401000D01*
X83045566Y-53396314D01*
X83005716Y-53384226D01*
X82969001Y-53364601D01*
X82936814Y-53338186D01*
X82910399Y-53305999D01*
X82890774Y-53269284D01*
X82878686Y-53229434D01*
X82874000Y-53181859D01*
X82874000Y-52068141D01*
X82878686Y-52020566D01*
X82890774Y-51980716D01*
X82910399Y-51944001D01*
X82936814Y-51911814D01*
X82969001Y-51885399D01*
X83005716Y-51865774D01*
X83045566Y-51853686D01*
X83093141Y-51849000D01*
X83756859Y-51849000D01*
X83804434Y-51853686D01*
X83804434Y-51853686D01*
G37*
G36*
X85704434Y-51853686D02*
G01*
X85744284Y-51865774D01*
X85780999Y-51885399D01*
X85813186Y-51911814D01*
X85839601Y-51944001D01*
X85859226Y-51980716D01*
X85871314Y-52020566D01*
X85876000Y-52068141D01*
X85876000Y-53181859D01*
X85871314Y-53229434D01*
X85859226Y-53269284D01*
X85839601Y-53305999D01*
X85813186Y-53338186D01*
X85780999Y-53364601D01*
X85744284Y-53384226D01*
X85704434Y-53396314D01*
X85656859Y-53401000D01*
X84993141Y-53401000D01*
X84945566Y-53396314D01*
X84905716Y-53384226D01*
X84869001Y-53364601D01*
X84836814Y-53338186D01*
X84810399Y-53305999D01*
X84790774Y-53269284D01*
X84778686Y-53229434D01*
X84774000Y-53181859D01*
X84774000Y-52068141D01*
X84778686Y-52020566D01*
X84790774Y-51980716D01*
X84810399Y-51944001D01*
X84836814Y-51911814D01*
X84869001Y-51885399D01*
X84905716Y-51865774D01*
X84945566Y-51853686D01*
X84993141Y-51849000D01*
X85656859Y-51849000D01*
X85704434Y-51853686D01*
X85704434Y-51853686D01*
G37*
G36*
X130032250Y-52826000D02*
G01*
X128730250Y-52826000D01*
X128730250Y-51824000D01*
X130032250Y-51824000D01*
X130032250Y-52826000D01*
X130032250Y-52826000D01*
G37*
G36*
X110982250Y-52763500D02*
G01*
X109680250Y-52763500D01*
X109680250Y-51761500D01*
X110982250Y-51761500D01*
X110982250Y-52763500D01*
X110982250Y-52763500D01*
G37*
G36*
X99132693Y-48783221D02*
G01*
X99138133Y-48783340D01*
X99225316Y-48783340D01*
X99241585Y-48786576D01*
X99260444Y-48788855D01*
X99277020Y-48789586D01*
X99361711Y-48810350D01*
X99367006Y-48811524D01*
X99452515Y-48828533D01*
X99467850Y-48834885D01*
X99485889Y-48840795D01*
X99502009Y-48844747D01*
X99580992Y-48881620D01*
X99585982Y-48883817D01*
X99666533Y-48917182D01*
X99680329Y-48926400D01*
X99696881Y-48935722D01*
X99711914Y-48942740D01*
X99782182Y-48994311D01*
X99786678Y-48997461D01*
X99811037Y-49013737D01*
X99859144Y-49045881D01*
X99870871Y-49057608D01*
X99885297Y-49069988D01*
X99898667Y-49079801D01*
X99898668Y-49079802D01*
X99957509Y-49144073D01*
X99961317Y-49148054D01*
X100022947Y-49209684D01*
X100032162Y-49223475D01*
X100043884Y-49238418D01*
X100055093Y-49250661D01*
X100100287Y-49325214D01*
X100103234Y-49329841D01*
X100151646Y-49402295D01*
X100157993Y-49417617D01*
X100166580Y-49434571D01*
X100175179Y-49448757D01*
X100204966Y-49530708D01*
X100206940Y-49535788D01*
X100240295Y-49616313D01*
X100240295Y-49616314D01*
X100243529Y-49632573D01*
X100248646Y-49650882D01*
X100254313Y-49666474D01*
X100267543Y-49752685D01*
X100268489Y-49758053D01*
X100285488Y-49843513D01*
X100285488Y-49860092D01*
X100286932Y-49879032D01*
X100289451Y-49895444D01*
X100285608Y-49982589D01*
X100285488Y-49988029D01*
X100285488Y-50075165D01*
X100282254Y-50091423D01*
X100279976Y-50110281D01*
X100279244Y-50126871D01*
X100258476Y-50211577D01*
X100257300Y-50216877D01*
X100240295Y-50302367D01*
X100233945Y-50317697D01*
X100228037Y-50335733D01*
X100224083Y-50351860D01*
X100187199Y-50430866D01*
X100184999Y-50435863D01*
X100151646Y-50516385D01*
X100142432Y-50530175D01*
X100133110Y-50546727D01*
X100126090Y-50561764D01*
X100074499Y-50632060D01*
X100071354Y-50636550D01*
X100022949Y-50708994D01*
X99965948Y-50765995D01*
X99961299Y-50770903D01*
X99529799Y-51251810D01*
X98636211Y-52247716D01*
X98508167Y-52364942D01*
X98409119Y-52424985D01*
X98310071Y-52485029D01*
X98092354Y-52564163D01*
X97863383Y-52599301D01*
X97631958Y-52589094D01*
X97406969Y-52533933D01*
X97302215Y-52485029D01*
X97197067Y-52435942D01*
X97100326Y-52364942D01*
X97010311Y-52298879D01*
X96935882Y-52217581D01*
X96853886Y-52128019D01*
X96772052Y-51993025D01*
X96733799Y-51929923D01*
X96654665Y-51712206D01*
X96619527Y-51483235D01*
X96629734Y-51251810D01*
X96684895Y-51026821D01*
X96736460Y-50916368D01*
X96782886Y-50816920D01*
X96782888Y-50816917D01*
X96885602Y-50676962D01*
X97618548Y-49860092D01*
X98172275Y-49242961D01*
X98183169Y-49228929D01*
X98196027Y-49209686D01*
X98253061Y-49152652D01*
X98257711Y-49147743D01*
X98272766Y-49130964D01*
X98294189Y-49111351D01*
X98298170Y-49107543D01*
X98359834Y-49045879D01*
X98373631Y-49036660D01*
X98388590Y-49024925D01*
X98400809Y-49013738D01*
X98448640Y-48984743D01*
X98475318Y-48968571D01*
X98479909Y-48965648D01*
X98552443Y-48917182D01*
X98567788Y-48910826D01*
X98584736Y-48902241D01*
X98598904Y-48893652D01*
X98598905Y-48893652D01*
X98598906Y-48893651D01*
X98680800Y-48863885D01*
X98685898Y-48861903D01*
X98766461Y-48828533D01*
X98782740Y-48825295D01*
X98801030Y-48820184D01*
X98816623Y-48814517D01*
X98902788Y-48801294D01*
X98908151Y-48800349D01*
X98993661Y-48783340D01*
X99010254Y-48783340D01*
X99029197Y-48781895D01*
X99045594Y-48779379D01*
X99132693Y-48783221D01*
X99132693Y-48783221D01*
G37*
G36*
X118182693Y-48783221D02*
G01*
X118188133Y-48783340D01*
X118275316Y-48783340D01*
X118291585Y-48786576D01*
X118310444Y-48788855D01*
X118327020Y-48789586D01*
X118411711Y-48810350D01*
X118417006Y-48811524D01*
X118502515Y-48828533D01*
X118517850Y-48834885D01*
X118535889Y-48840795D01*
X118552009Y-48844747D01*
X118630992Y-48881620D01*
X118635982Y-48883817D01*
X118716533Y-48917182D01*
X118730329Y-48926400D01*
X118746881Y-48935722D01*
X118761914Y-48942740D01*
X118832182Y-48994311D01*
X118836678Y-48997461D01*
X118861037Y-49013737D01*
X118909144Y-49045881D01*
X118920871Y-49057608D01*
X118935297Y-49069988D01*
X118948667Y-49079801D01*
X118948668Y-49079802D01*
X119007509Y-49144073D01*
X119011317Y-49148054D01*
X119072947Y-49209684D01*
X119082162Y-49223475D01*
X119093884Y-49238418D01*
X119105093Y-49250661D01*
X119150287Y-49325214D01*
X119153234Y-49329841D01*
X119201646Y-49402295D01*
X119207993Y-49417617D01*
X119216580Y-49434571D01*
X119225179Y-49448757D01*
X119254966Y-49530708D01*
X119256940Y-49535788D01*
X119290295Y-49616313D01*
X119290295Y-49616314D01*
X119293529Y-49632573D01*
X119298646Y-49650882D01*
X119304313Y-49666474D01*
X119317543Y-49752685D01*
X119318489Y-49758053D01*
X119335488Y-49843513D01*
X119335488Y-49860092D01*
X119336932Y-49879032D01*
X119339451Y-49895444D01*
X119335608Y-49982589D01*
X119335488Y-49988029D01*
X119335488Y-50075165D01*
X119332254Y-50091423D01*
X119329976Y-50110281D01*
X119329244Y-50126871D01*
X119308476Y-50211577D01*
X119307300Y-50216877D01*
X119290295Y-50302367D01*
X119283945Y-50317697D01*
X119278037Y-50335733D01*
X119274083Y-50351860D01*
X119237199Y-50430866D01*
X119234999Y-50435863D01*
X119201646Y-50516385D01*
X119192432Y-50530175D01*
X119183110Y-50546727D01*
X119176090Y-50561764D01*
X119124499Y-50632060D01*
X119121354Y-50636550D01*
X119072949Y-50708994D01*
X119015948Y-50765995D01*
X119011299Y-50770903D01*
X118579799Y-51251810D01*
X117686211Y-52247716D01*
X117558167Y-52364942D01*
X117459119Y-52424985D01*
X117360071Y-52485029D01*
X117142354Y-52564163D01*
X116913383Y-52599301D01*
X116681958Y-52589094D01*
X116456969Y-52533933D01*
X116352215Y-52485029D01*
X116247067Y-52435942D01*
X116150326Y-52364942D01*
X116060311Y-52298879D01*
X115985882Y-52217581D01*
X115903886Y-52128019D01*
X115822052Y-51993025D01*
X115783799Y-51929923D01*
X115704665Y-51712206D01*
X115669527Y-51483235D01*
X115679734Y-51251810D01*
X115734895Y-51026821D01*
X115786460Y-50916368D01*
X115832886Y-50816920D01*
X115832888Y-50816917D01*
X115935602Y-50676962D01*
X116668548Y-49860092D01*
X117222275Y-49242961D01*
X117233169Y-49228929D01*
X117246027Y-49209686D01*
X117303061Y-49152652D01*
X117307711Y-49147743D01*
X117322766Y-49130964D01*
X117344189Y-49111351D01*
X117348170Y-49107543D01*
X117409834Y-49045879D01*
X117423631Y-49036660D01*
X117438590Y-49024925D01*
X117450809Y-49013738D01*
X117498640Y-48984743D01*
X117525318Y-48968571D01*
X117529909Y-48965648D01*
X117602443Y-48917182D01*
X117617788Y-48910826D01*
X117634736Y-48902241D01*
X117648904Y-48893652D01*
X117648905Y-48893652D01*
X117648906Y-48893651D01*
X117730800Y-48863885D01*
X117735898Y-48861903D01*
X117816461Y-48828533D01*
X117832740Y-48825295D01*
X117851030Y-48820184D01*
X117866623Y-48814517D01*
X117952788Y-48801294D01*
X117958151Y-48800349D01*
X118043661Y-48783340D01*
X118060254Y-48783340D01*
X118079197Y-48781895D01*
X118095594Y-48779379D01*
X118182693Y-48783221D01*
X118182693Y-48783221D01*
G37*
G36*
X123287615Y-47701601D02*
G01*
X123308388Y-47703340D01*
X123315315Y-47703340D01*
X123410242Y-47722222D01*
X123413836Y-47722882D01*
X123509218Y-47738964D01*
X123515691Y-47741425D01*
X123535716Y-47747181D01*
X123542515Y-47748533D01*
X123604902Y-47774374D01*
X123631931Y-47785570D01*
X123635332Y-47786921D01*
X123725743Y-47821301D01*
X123731615Y-47824980D01*
X123750124Y-47834527D01*
X123756533Y-47837182D01*
X123837051Y-47890982D01*
X123840042Y-47892918D01*
X123922045Y-47944299D01*
X123927072Y-47949040D01*
X123943384Y-47962031D01*
X123949140Y-47965877D01*
X124017598Y-48034335D01*
X124020177Y-48036839D01*
X124090578Y-48103229D01*
X124094583Y-48108859D01*
X124108047Y-48124784D01*
X124112947Y-48129684D01*
X124160747Y-48201221D01*
X124166732Y-48210179D01*
X124168779Y-48213147D01*
X124224868Y-48291985D01*
X124227702Y-48298298D01*
X124237796Y-48316533D01*
X124241646Y-48322295D01*
X124278708Y-48411770D01*
X124280112Y-48415025D01*
X124319753Y-48503313D01*
X124321303Y-48510065D01*
X124327640Y-48529902D01*
X124330295Y-48536313D01*
X124349180Y-48631257D01*
X124349926Y-48634741D01*
X124371586Y-48729091D01*
X124371586Y-48729094D01*
X124371788Y-48735994D01*
X124374135Y-48756710D01*
X124375488Y-48763514D01*
X124375488Y-48860326D01*
X124375541Y-48863924D01*
X124376676Y-48902617D01*
X124375783Y-48915565D01*
X124375488Y-48924137D01*
X124375488Y-48995166D01*
X124369569Y-49024925D01*
X124369092Y-49027319D01*
X124366988Y-49043090D01*
X124328726Y-49597885D01*
X124299864Y-49769070D01*
X124217526Y-49985595D01*
X124094529Y-50181897D01*
X123935599Y-50350430D01*
X123746843Y-50484720D01*
X123535515Y-50579605D01*
X123309737Y-50631438D01*
X123078186Y-50638229D01*
X123078185Y-50638229D01*
X123032500Y-50630526D01*
X122849758Y-50599716D01*
X122633233Y-50517378D01*
X122436931Y-50394381D01*
X122268398Y-50235451D01*
X122134108Y-50046695D01*
X122039223Y-49835367D01*
X121987390Y-49609589D01*
X121982300Y-49436063D01*
X122023192Y-48843134D01*
X122023488Y-48834536D01*
X122023488Y-48763515D01*
X122042370Y-48668590D01*
X122043032Y-48664985D01*
X122048719Y-48631257D01*
X122059112Y-48569610D01*
X122061573Y-48563139D01*
X122067330Y-48543107D01*
X122068681Y-48536314D01*
X122071331Y-48529916D01*
X122105752Y-48446816D01*
X122107041Y-48443570D01*
X122141450Y-48353085D01*
X122145124Y-48347221D01*
X122154675Y-48328705D01*
X122157330Y-48322295D01*
X122211145Y-48241755D01*
X122213065Y-48238789D01*
X122264447Y-48156783D01*
X122269199Y-48151744D01*
X122282177Y-48135447D01*
X122286025Y-48129688D01*
X122354481Y-48061232D01*
X122357034Y-48058602D01*
X122362185Y-48053140D01*
X122423377Y-47988250D01*
X122429009Y-47984243D01*
X122444935Y-47970778D01*
X122449834Y-47965879D01*
X122530312Y-47912106D01*
X122533294Y-47910050D01*
X122612133Y-47853960D01*
X122618443Y-47851127D01*
X122636682Y-47841031D01*
X122642439Y-47837184D01*
X122642442Y-47837183D01*
X122642443Y-47837182D01*
X122731917Y-47800121D01*
X122735175Y-47798715D01*
X122823461Y-47759075D01*
X122830213Y-47757525D01*
X122850050Y-47751188D01*
X122856461Y-47748533D01*
X122951387Y-47729651D01*
X122954934Y-47728891D01*
X123049239Y-47707241D01*
X123051618Y-47707171D01*
X123056153Y-47707038D01*
X123076869Y-47704691D01*
X123083662Y-47703340D01*
X123180447Y-47703340D01*
X123184072Y-47703287D01*
X123280790Y-47700450D01*
X123287615Y-47701601D01*
X123287615Y-47701601D01*
G37*
G36*
X104237615Y-47701601D02*
G01*
X104258388Y-47703340D01*
X104265315Y-47703340D01*
X104360242Y-47722222D01*
X104363836Y-47722882D01*
X104459218Y-47738964D01*
X104465691Y-47741425D01*
X104485716Y-47747181D01*
X104492515Y-47748533D01*
X104554902Y-47774374D01*
X104581931Y-47785570D01*
X104585332Y-47786921D01*
X104675743Y-47821301D01*
X104681615Y-47824980D01*
X104700124Y-47834527D01*
X104706533Y-47837182D01*
X104787051Y-47890982D01*
X104790042Y-47892918D01*
X104872045Y-47944299D01*
X104877072Y-47949040D01*
X104893384Y-47962031D01*
X104899140Y-47965877D01*
X104967598Y-48034335D01*
X104970177Y-48036839D01*
X105040578Y-48103229D01*
X105044583Y-48108859D01*
X105058047Y-48124784D01*
X105062947Y-48129684D01*
X105110747Y-48201221D01*
X105116732Y-48210179D01*
X105118779Y-48213147D01*
X105174868Y-48291985D01*
X105177702Y-48298298D01*
X105187796Y-48316533D01*
X105191646Y-48322295D01*
X105228708Y-48411770D01*
X105230112Y-48415025D01*
X105269753Y-48503313D01*
X105271303Y-48510065D01*
X105277640Y-48529902D01*
X105280295Y-48536313D01*
X105299180Y-48631257D01*
X105299926Y-48634741D01*
X105321586Y-48729091D01*
X105321586Y-48729094D01*
X105321788Y-48735994D01*
X105324135Y-48756710D01*
X105325488Y-48763514D01*
X105325488Y-48860326D01*
X105325541Y-48863924D01*
X105326676Y-48902617D01*
X105325783Y-48915565D01*
X105325488Y-48924137D01*
X105325488Y-48995166D01*
X105319569Y-49024925D01*
X105319092Y-49027319D01*
X105316988Y-49043090D01*
X105278726Y-49597885D01*
X105249864Y-49769070D01*
X105167526Y-49985595D01*
X105044529Y-50181897D01*
X104885599Y-50350430D01*
X104696843Y-50484720D01*
X104485515Y-50579605D01*
X104259737Y-50631438D01*
X104028186Y-50638229D01*
X104028185Y-50638229D01*
X103982500Y-50630526D01*
X103799758Y-50599716D01*
X103583233Y-50517378D01*
X103386931Y-50394381D01*
X103218398Y-50235451D01*
X103084108Y-50046695D01*
X102989223Y-49835367D01*
X102937390Y-49609589D01*
X102932300Y-49436063D01*
X102973192Y-48843134D01*
X102973488Y-48834536D01*
X102973488Y-48763515D01*
X102992370Y-48668590D01*
X102993032Y-48664985D01*
X102998719Y-48631257D01*
X103009112Y-48569610D01*
X103011573Y-48563139D01*
X103017330Y-48543107D01*
X103018681Y-48536314D01*
X103021331Y-48529916D01*
X103055752Y-48446816D01*
X103057041Y-48443570D01*
X103091450Y-48353085D01*
X103095124Y-48347221D01*
X103104675Y-48328705D01*
X103107330Y-48322295D01*
X103161145Y-48241755D01*
X103163065Y-48238789D01*
X103214447Y-48156783D01*
X103219199Y-48151744D01*
X103232177Y-48135447D01*
X103236025Y-48129688D01*
X103304481Y-48061232D01*
X103307034Y-48058602D01*
X103312185Y-48053140D01*
X103373377Y-47988250D01*
X103379009Y-47984243D01*
X103394935Y-47970778D01*
X103399834Y-47965879D01*
X103480312Y-47912106D01*
X103483294Y-47910050D01*
X103562133Y-47853960D01*
X103568443Y-47851127D01*
X103586682Y-47841031D01*
X103592439Y-47837184D01*
X103592442Y-47837183D01*
X103592443Y-47837182D01*
X103681917Y-47800121D01*
X103685175Y-47798715D01*
X103773461Y-47759075D01*
X103780213Y-47757525D01*
X103800050Y-47751188D01*
X103806461Y-47748533D01*
X103901387Y-47729651D01*
X103904934Y-47728891D01*
X103999239Y-47707241D01*
X104001618Y-47707171D01*
X104006153Y-47707038D01*
X104026869Y-47704691D01*
X104033662Y-47703340D01*
X104130447Y-47703340D01*
X104134072Y-47703287D01*
X104230790Y-47700450D01*
X104237615Y-47701601D01*
X104237615Y-47701601D01*
G37*
G36*
X90274912Y-48772394D02*
G01*
X90314358Y-48784360D01*
X90350703Y-48803787D01*
X90382565Y-48829935D01*
X90408713Y-48861797D01*
X90428140Y-48898142D01*
X90440106Y-48937588D01*
X90444750Y-48984743D01*
X90444750Y-49677757D01*
X90440106Y-49724912D01*
X90428140Y-49764358D01*
X90408713Y-49800703D01*
X90382565Y-49832565D01*
X90350703Y-49858713D01*
X90314358Y-49878140D01*
X90274912Y-49890106D01*
X90227757Y-49894750D01*
X89159743Y-49894750D01*
X89112588Y-49890106D01*
X89073142Y-49878140D01*
X89036797Y-49858713D01*
X89004935Y-49832565D01*
X88978787Y-49800703D01*
X88959360Y-49764358D01*
X88947394Y-49724912D01*
X88942750Y-49677757D01*
X88942750Y-48984743D01*
X88947394Y-48937588D01*
X88959360Y-48898142D01*
X88978787Y-48861797D01*
X89004935Y-48829935D01*
X89036797Y-48803787D01*
X89073142Y-48784360D01*
X89112588Y-48772394D01*
X89159743Y-48767750D01*
X90227757Y-48767750D01*
X90274912Y-48772394D01*
X90274912Y-48772394D01*
G37*
G36*
X84732250Y-49601000D02*
G01*
X76080250Y-49601000D01*
X76080250Y-47999000D01*
X84732250Y-47999000D01*
X84732250Y-49601000D01*
X84732250Y-49601000D01*
G37*
G36*
X70454434Y-48184936D02*
G01*
X70494284Y-48197024D01*
X70530999Y-48216649D01*
X70563186Y-48243064D01*
X70589601Y-48275251D01*
X70609226Y-48311966D01*
X70621314Y-48351816D01*
X70626000Y-48399391D01*
X70626000Y-49063109D01*
X70621314Y-49110684D01*
X70609226Y-49150534D01*
X70589601Y-49187249D01*
X70563186Y-49219436D01*
X70530999Y-49245851D01*
X70494284Y-49265476D01*
X70454434Y-49277564D01*
X70406859Y-49282250D01*
X69293141Y-49282250D01*
X69245566Y-49277564D01*
X69205716Y-49265476D01*
X69169001Y-49245851D01*
X69136814Y-49219436D01*
X69110399Y-49187249D01*
X69090774Y-49150534D01*
X69078686Y-49110684D01*
X69074000Y-49063109D01*
X69074000Y-48399391D01*
X69078686Y-48351816D01*
X69090774Y-48311966D01*
X69110399Y-48275251D01*
X69136814Y-48243064D01*
X69169001Y-48216649D01*
X69205716Y-48197024D01*
X69245566Y-48184936D01*
X69293141Y-48180250D01*
X70406859Y-48180250D01*
X70454434Y-48184936D01*
X70454434Y-48184936D01*
G37*
G36*
X90274912Y-46947394D02*
G01*
X90314358Y-46959360D01*
X90350703Y-46978787D01*
X90382565Y-47004935D01*
X90408713Y-47036797D01*
X90428140Y-47073142D01*
X90440106Y-47112588D01*
X90444750Y-47159743D01*
X90444750Y-47852757D01*
X90440106Y-47899912D01*
X90428140Y-47939358D01*
X90408713Y-47975703D01*
X90382565Y-48007565D01*
X90350703Y-48033713D01*
X90314358Y-48053140D01*
X90274912Y-48065106D01*
X90227757Y-48069750D01*
X89159743Y-48069750D01*
X89112588Y-48065106D01*
X89073142Y-48053140D01*
X89036797Y-48033713D01*
X89004935Y-48007565D01*
X88978787Y-47975703D01*
X88959360Y-47939358D01*
X88947394Y-47899912D01*
X88942750Y-47852757D01*
X88942750Y-47159743D01*
X88947394Y-47112588D01*
X88959360Y-47073142D01*
X88978787Y-47036797D01*
X89004935Y-47004935D01*
X89036797Y-46978787D01*
X89073142Y-46959360D01*
X89112588Y-46947394D01*
X89159743Y-46942750D01*
X90227757Y-46942750D01*
X90274912Y-46947394D01*
X90274912Y-46947394D01*
G37*
G36*
X86907250Y-47426000D02*
G01*
X85305250Y-47426000D01*
X85305250Y-38774000D01*
X86907250Y-38774000D01*
X86907250Y-47426000D01*
X86907250Y-47426000D01*
G37*
G36*
X75507250Y-47426000D02*
G01*
X73905250Y-47426000D01*
X73905250Y-38774000D01*
X75507250Y-38774000D01*
X75507250Y-47426000D01*
X75507250Y-47426000D01*
G37*
G36*
X70454434Y-46284936D02*
G01*
X70494284Y-46297024D01*
X70530999Y-46316649D01*
X70563186Y-46343064D01*
X70589601Y-46375251D01*
X70609226Y-46411966D01*
X70621314Y-46451816D01*
X70626000Y-46499391D01*
X70626000Y-47163109D01*
X70621314Y-47210684D01*
X70609226Y-47250534D01*
X70589601Y-47287249D01*
X70563186Y-47319436D01*
X70530999Y-47345851D01*
X70494284Y-47365476D01*
X70454434Y-47377564D01*
X70406859Y-47382250D01*
X69293141Y-47382250D01*
X69245566Y-47377564D01*
X69205716Y-47365476D01*
X69169001Y-47345851D01*
X69136814Y-47319436D01*
X69110399Y-47287249D01*
X69090774Y-47250534D01*
X69078686Y-47210684D01*
X69074000Y-47163109D01*
X69074000Y-46499391D01*
X69078686Y-46451816D01*
X69090774Y-46411966D01*
X69110399Y-46375251D01*
X69136814Y-46343064D01*
X69169001Y-46316649D01*
X69205716Y-46297024D01*
X69245566Y-46284936D01*
X69293141Y-46280250D01*
X70406859Y-46280250D01*
X70454434Y-46284936D01*
X70454434Y-46284936D01*
G37*
G36*
X72210684Y-41534936D02*
G01*
X72250534Y-41547024D01*
X72287249Y-41566649D01*
X72319436Y-41593064D01*
X72345851Y-41625251D01*
X72365476Y-41661966D01*
X72377564Y-41701816D01*
X72382250Y-41749391D01*
X72382250Y-42863109D01*
X72377564Y-42910684D01*
X72365476Y-42950534D01*
X72345851Y-42987249D01*
X72319436Y-43019436D01*
X72287249Y-43045851D01*
X72250534Y-43065476D01*
X72210684Y-43077564D01*
X72163109Y-43082250D01*
X71499391Y-43082250D01*
X71451816Y-43077564D01*
X71411966Y-43065476D01*
X71375251Y-43045851D01*
X71343064Y-43019436D01*
X71316649Y-42987249D01*
X71297024Y-42950534D01*
X71284936Y-42910684D01*
X71280250Y-42863109D01*
X71280250Y-41749391D01*
X71284936Y-41701816D01*
X71297024Y-41661966D01*
X71316649Y-41625251D01*
X71343064Y-41593064D01*
X71375251Y-41566649D01*
X71411966Y-41547024D01*
X71451816Y-41534936D01*
X71499391Y-41530250D01*
X72163109Y-41530250D01*
X72210684Y-41534936D01*
X72210684Y-41534936D01*
G37*
G36*
X70310684Y-41534936D02*
G01*
X70350534Y-41547024D01*
X70387249Y-41566649D01*
X70419436Y-41593064D01*
X70445851Y-41625251D01*
X70465476Y-41661966D01*
X70477564Y-41701816D01*
X70482250Y-41749391D01*
X70482250Y-42863109D01*
X70477564Y-42910684D01*
X70465476Y-42950534D01*
X70445851Y-42987249D01*
X70419436Y-43019436D01*
X70387249Y-43045851D01*
X70350534Y-43065476D01*
X70310684Y-43077564D01*
X70263109Y-43082250D01*
X69599391Y-43082250D01*
X69551816Y-43077564D01*
X69511966Y-43065476D01*
X69475251Y-43045851D01*
X69443064Y-43019436D01*
X69416649Y-42987249D01*
X69397024Y-42950534D01*
X69384936Y-42910684D01*
X69380250Y-42863109D01*
X69380250Y-41749391D01*
X69384936Y-41701816D01*
X69397024Y-41661966D01*
X69416649Y-41625251D01*
X69443064Y-41593064D01*
X69475251Y-41566649D01*
X69511966Y-41547024D01*
X69551816Y-41534936D01*
X69599391Y-41530250D01*
X70263109Y-41530250D01*
X70310684Y-41534936D01*
X70310684Y-41534936D01*
G37*
G36*
X119506425Y-39006988D02*
G01*
X119672710Y-39040063D01*
X119855336Y-39115709D01*
X120019694Y-39225530D01*
X120159470Y-39365306D01*
X120269291Y-39529664D01*
X120344937Y-39712290D01*
X120383500Y-39906164D01*
X120383500Y-40103836D01*
X120344937Y-40297710D01*
X120269291Y-40480336D01*
X120159470Y-40644694D01*
X120019694Y-40784470D01*
X119855336Y-40894291D01*
X119672710Y-40969937D01*
X119506425Y-41003012D01*
X119478837Y-41008500D01*
X119281163Y-41008500D01*
X119253575Y-41003012D01*
X119087290Y-40969937D01*
X118904664Y-40894291D01*
X118740306Y-40784470D01*
X118600530Y-40644694D01*
X118490709Y-40480336D01*
X118415063Y-40297710D01*
X118376500Y-40103836D01*
X118376500Y-39906164D01*
X118415063Y-39712290D01*
X118490709Y-39529664D01*
X118600530Y-39365306D01*
X118740306Y-39225530D01*
X118904664Y-39115709D01*
X119087290Y-39040063D01*
X119253575Y-39006988D01*
X119281163Y-39001500D01*
X119478837Y-39001500D01*
X119506425Y-39006988D01*
X119506425Y-39006988D01*
G37*
G36*
X122923500Y-41008500D02*
G01*
X120916500Y-41008500D01*
X120916500Y-39001500D01*
X122923500Y-39001500D01*
X122923500Y-41008500D01*
X122923500Y-41008500D01*
G37*
G36*
X100465913Y-38991328D02*
G01*
X100632198Y-39024403D01*
X100814824Y-39100049D01*
X100979182Y-39209870D01*
X101118958Y-39349646D01*
X101228779Y-39514004D01*
X101304425Y-39696630D01*
X101342988Y-39890504D01*
X101342988Y-40088176D01*
X101304425Y-40282050D01*
X101228779Y-40464676D01*
X101118958Y-40629034D01*
X100979182Y-40768810D01*
X100814824Y-40878631D01*
X100632198Y-40954277D01*
X100465913Y-40987352D01*
X100438325Y-40992840D01*
X100240651Y-40992840D01*
X100213063Y-40987352D01*
X100046778Y-40954277D01*
X99864152Y-40878631D01*
X99699794Y-40768810D01*
X99560018Y-40629034D01*
X99450197Y-40464676D01*
X99374551Y-40282050D01*
X99335988Y-40088176D01*
X99335988Y-39890504D01*
X99374551Y-39696630D01*
X99450197Y-39514004D01*
X99560018Y-39349646D01*
X99699794Y-39209870D01*
X99864152Y-39100049D01*
X100046778Y-39024403D01*
X100213063Y-38991328D01*
X100240651Y-38985840D01*
X100438325Y-38985840D01*
X100465913Y-38991328D01*
X100465913Y-38991328D01*
G37*
G36*
X103882988Y-40992840D02*
G01*
X101875988Y-40992840D01*
X101875988Y-38985840D01*
X103882988Y-38985840D01*
X103882988Y-40992840D01*
X103882988Y-40992840D01*
G37*
G36*
X59506104Y-39434597D02*
G01*
X59542644Y-39445682D01*
X59576321Y-39463683D01*
X59605841Y-39487909D01*
X59630067Y-39517429D01*
X59648068Y-39551106D01*
X59659153Y-39587646D01*
X59663500Y-39631788D01*
X59663500Y-40580712D01*
X59659153Y-40624854D01*
X59648068Y-40661394D01*
X59630067Y-40695071D01*
X59605841Y-40724591D01*
X59576321Y-40748817D01*
X59542644Y-40766818D01*
X59506104Y-40777903D01*
X59461962Y-40782250D01*
X58013038Y-40782250D01*
X57968896Y-40777903D01*
X57932356Y-40766818D01*
X57898679Y-40748817D01*
X57869159Y-40724591D01*
X57844933Y-40695071D01*
X57826932Y-40661394D01*
X57815847Y-40624854D01*
X57811500Y-40580712D01*
X57811500Y-39631788D01*
X57815847Y-39587646D01*
X57826932Y-39551106D01*
X57844933Y-39517429D01*
X57869159Y-39487909D01*
X57898679Y-39463683D01*
X57932356Y-39445682D01*
X57968896Y-39434597D01*
X58013038Y-39430250D01*
X59461962Y-39430250D01*
X59506104Y-39434597D01*
X59506104Y-39434597D01*
G37*
G36*
X90535684Y-38741186D02*
G01*
X90575534Y-38753274D01*
X90612249Y-38772899D01*
X90644436Y-38799314D01*
X90670851Y-38831501D01*
X90690476Y-38868216D01*
X90702564Y-38908066D01*
X90707250Y-38955641D01*
X90707250Y-39619359D01*
X90702564Y-39666934D01*
X90690476Y-39706784D01*
X90670851Y-39743499D01*
X90644436Y-39775686D01*
X90612249Y-39802101D01*
X90575534Y-39821726D01*
X90535684Y-39833814D01*
X90488109Y-39838500D01*
X89374391Y-39838500D01*
X89326816Y-39833814D01*
X89286966Y-39821726D01*
X89250251Y-39802101D01*
X89218064Y-39775686D01*
X89191649Y-39743499D01*
X89172024Y-39706784D01*
X89159936Y-39666934D01*
X89155250Y-39619359D01*
X89155250Y-38955641D01*
X89159936Y-38908066D01*
X89172024Y-38868216D01*
X89191649Y-38831501D01*
X89218064Y-38799314D01*
X89250251Y-38772899D01*
X89286966Y-38753274D01*
X89326816Y-38741186D01*
X89374391Y-38736500D01*
X90488109Y-38736500D01*
X90535684Y-38741186D01*
X90535684Y-38741186D01*
G37*
G36*
X63147803Y-37206213D02*
G01*
X63187249Y-37218179D01*
X63223594Y-37237606D01*
X63255456Y-37263754D01*
X63281604Y-37295616D01*
X63301031Y-37331961D01*
X63312997Y-37371407D01*
X63317641Y-37418562D01*
X63317641Y-38111576D01*
X63312997Y-38158731D01*
X63301031Y-38198177D01*
X63281604Y-38234522D01*
X63255456Y-38266384D01*
X63223594Y-38292532D01*
X63187249Y-38311959D01*
X63147803Y-38323925D01*
X63100648Y-38328569D01*
X62032634Y-38328569D01*
X61985479Y-38323925D01*
X61946033Y-38311959D01*
X61909688Y-38292532D01*
X61877826Y-38266384D01*
X61851678Y-38234522D01*
X61832251Y-38198177D01*
X61820285Y-38158731D01*
X61815641Y-38111576D01*
X61815641Y-37418562D01*
X61820285Y-37371407D01*
X61832251Y-37331961D01*
X61851678Y-37295616D01*
X61877826Y-37263754D01*
X61909688Y-37237606D01*
X61946033Y-37218179D01*
X61985479Y-37206213D01*
X62032634Y-37201569D01*
X63100648Y-37201569D01*
X63147803Y-37206213D01*
X63147803Y-37206213D01*
G37*
G36*
X65529053Y-37206213D02*
G01*
X65568499Y-37218179D01*
X65604844Y-37237606D01*
X65636706Y-37263754D01*
X65662854Y-37295616D01*
X65682281Y-37331961D01*
X65694247Y-37371407D01*
X65698891Y-37418562D01*
X65698891Y-38111576D01*
X65694247Y-38158731D01*
X65682281Y-38198177D01*
X65662854Y-38234522D01*
X65636706Y-38266384D01*
X65604844Y-38292532D01*
X65568499Y-38311959D01*
X65529053Y-38323925D01*
X65481898Y-38328569D01*
X64413884Y-38328569D01*
X64366729Y-38323925D01*
X64327283Y-38311959D01*
X64290938Y-38292532D01*
X64259076Y-38266384D01*
X64232928Y-38234522D01*
X64213501Y-38198177D01*
X64201535Y-38158731D01*
X64196891Y-38111576D01*
X64196891Y-37418562D01*
X64201535Y-37371407D01*
X64213501Y-37331961D01*
X64232928Y-37295616D01*
X64259076Y-37263754D01*
X64290938Y-37237606D01*
X64327283Y-37218179D01*
X64366729Y-37206213D01*
X64413884Y-37201569D01*
X65481898Y-37201569D01*
X65529053Y-37206213D01*
X65529053Y-37206213D01*
G37*
G36*
X84732250Y-38201000D02*
G01*
X76080250Y-38201000D01*
X76080250Y-36599000D01*
X84732250Y-36599000D01*
X84732250Y-38201000D01*
X84732250Y-38201000D01*
G37*
G36*
X59506104Y-36634597D02*
G01*
X59542644Y-36645682D01*
X59576321Y-36663683D01*
X59605841Y-36687909D01*
X59630067Y-36717429D01*
X59648068Y-36751106D01*
X59659153Y-36787646D01*
X59663500Y-36831788D01*
X59663500Y-37780712D01*
X59659153Y-37824854D01*
X59648068Y-37861394D01*
X59630067Y-37895071D01*
X59605841Y-37924591D01*
X59576321Y-37948817D01*
X59542644Y-37966818D01*
X59506104Y-37977903D01*
X59461962Y-37982250D01*
X58013038Y-37982250D01*
X57968896Y-37977903D01*
X57932356Y-37966818D01*
X57898679Y-37948817D01*
X57869159Y-37924591D01*
X57844933Y-37895071D01*
X57826932Y-37861394D01*
X57815847Y-37824854D01*
X57811500Y-37780712D01*
X57811500Y-36831788D01*
X57815847Y-36787646D01*
X57826932Y-36751106D01*
X57844933Y-36717429D01*
X57869159Y-36687909D01*
X57898679Y-36663683D01*
X57932356Y-36645682D01*
X57968896Y-36634597D01*
X58013038Y-36630250D01*
X59461962Y-36630250D01*
X59506104Y-36634597D01*
X59506104Y-36634597D01*
G37*
G36*
X90535684Y-36841186D02*
G01*
X90575534Y-36853274D01*
X90612249Y-36872899D01*
X90644436Y-36899314D01*
X90670851Y-36931501D01*
X90690476Y-36968216D01*
X90702564Y-37008066D01*
X90707250Y-37055641D01*
X90707250Y-37719359D01*
X90702564Y-37766934D01*
X90690476Y-37806784D01*
X90670851Y-37843499D01*
X90644436Y-37875686D01*
X90612249Y-37902101D01*
X90575534Y-37921726D01*
X90535684Y-37933814D01*
X90488109Y-37938500D01*
X89374391Y-37938500D01*
X89326816Y-37933814D01*
X89286966Y-37921726D01*
X89250251Y-37902101D01*
X89218064Y-37875686D01*
X89191649Y-37843499D01*
X89172024Y-37806784D01*
X89159936Y-37766934D01*
X89155250Y-37719359D01*
X89155250Y-37055641D01*
X89159936Y-37008066D01*
X89172024Y-36968216D01*
X89191649Y-36931501D01*
X89218064Y-36899314D01*
X89250251Y-36872899D01*
X89286966Y-36853274D01*
X89326816Y-36841186D01*
X89374391Y-36836500D01*
X90488109Y-36836500D01*
X90535684Y-36841186D01*
X90535684Y-36841186D01*
G37*
G36*
X72041934Y-36278686D02*
G01*
X72081784Y-36290774D01*
X72118499Y-36310399D01*
X72150686Y-36336814D01*
X72177101Y-36369001D01*
X72196726Y-36405716D01*
X72208814Y-36445566D01*
X72213500Y-36493141D01*
X72213500Y-37156859D01*
X72208814Y-37204434D01*
X72196726Y-37244284D01*
X72177101Y-37280999D01*
X72150686Y-37313186D01*
X72118499Y-37339601D01*
X72081784Y-37359226D01*
X72041934Y-37371314D01*
X71994359Y-37376000D01*
X70880641Y-37376000D01*
X70833066Y-37371314D01*
X70793216Y-37359226D01*
X70756501Y-37339601D01*
X70724314Y-37313186D01*
X70697899Y-37280999D01*
X70678274Y-37244284D01*
X70666186Y-37204434D01*
X70661500Y-37156859D01*
X70661500Y-36493141D01*
X70666186Y-36445566D01*
X70678274Y-36405716D01*
X70697899Y-36369001D01*
X70724314Y-36336814D01*
X70756501Y-36310399D01*
X70793216Y-36290774D01*
X70833066Y-36278686D01*
X70880641Y-36274000D01*
X71994359Y-36274000D01*
X72041934Y-36278686D01*
X72041934Y-36278686D01*
G37*
G36*
X68843662Y-36191144D02*
G01*
X68883108Y-36203110D01*
X68919453Y-36222537D01*
X68951315Y-36248685D01*
X68977463Y-36280547D01*
X68996890Y-36316892D01*
X69008856Y-36356338D01*
X69013500Y-36403493D01*
X69013500Y-37096507D01*
X69008856Y-37143662D01*
X68996890Y-37183108D01*
X68977463Y-37219453D01*
X68951315Y-37251315D01*
X68919453Y-37277463D01*
X68883108Y-37296890D01*
X68843662Y-37308856D01*
X68796507Y-37313500D01*
X67728493Y-37313500D01*
X67681338Y-37308856D01*
X67641892Y-37296890D01*
X67605547Y-37277463D01*
X67573685Y-37251315D01*
X67547537Y-37219453D01*
X67528110Y-37183108D01*
X67516144Y-37143662D01*
X67511500Y-37096507D01*
X67511500Y-36403493D01*
X67516144Y-36356338D01*
X67528110Y-36316892D01*
X67547537Y-36280547D01*
X67573685Y-36248685D01*
X67605547Y-36222537D01*
X67641892Y-36203110D01*
X67681338Y-36191144D01*
X67728493Y-36186500D01*
X68796507Y-36186500D01*
X68843662Y-36191144D01*
X68843662Y-36191144D01*
G37*
G36*
X110982250Y-37013500D02*
G01*
X109680250Y-37013500D01*
X109680250Y-36011500D01*
X110982250Y-36011500D01*
X110982250Y-37013500D01*
X110982250Y-37013500D01*
G37*
G36*
X130032250Y-37013500D02*
G01*
X128730250Y-37013500D01*
X128730250Y-36011500D01*
X130032250Y-36011500D01*
X130032250Y-37013500D01*
X130032250Y-37013500D01*
G37*
G36*
X121246474Y-32958684D02*
G01*
X121464474Y-33048983D01*
X121618623Y-33112833D01*
X121953548Y-33336623D01*
X122238377Y-33621452D01*
X122462167Y-33956377D01*
X122494562Y-34034586D01*
X122616316Y-34328526D01*
X122694900Y-34723594D01*
X122694900Y-35126406D01*
X122616316Y-35521474D01*
X122565451Y-35644272D01*
X122462167Y-35893623D01*
X122238377Y-36228548D01*
X121953548Y-36513377D01*
X121618623Y-36737167D01*
X121496755Y-36787646D01*
X121246474Y-36891316D01*
X120851406Y-36969900D01*
X120448594Y-36969900D01*
X120053526Y-36891316D01*
X119803245Y-36787646D01*
X119681377Y-36737167D01*
X119346452Y-36513377D01*
X119061623Y-36228548D01*
X118837833Y-35893623D01*
X118734549Y-35644272D01*
X118683684Y-35521474D01*
X118605100Y-35126406D01*
X118605100Y-34723594D01*
X118683684Y-34328526D01*
X118805438Y-34034586D01*
X118837833Y-33956377D01*
X119061623Y-33621452D01*
X119346452Y-33336623D01*
X119681377Y-33112833D01*
X119835526Y-33048983D01*
X120053526Y-32958684D01*
X120448594Y-32880100D01*
X120851406Y-32880100D01*
X121246474Y-32958684D01*
X121246474Y-32958684D01*
G37*
G36*
X102205962Y-32943024D02*
G01*
X102423962Y-33033323D01*
X102578111Y-33097173D01*
X102913036Y-33320963D01*
X103197865Y-33605792D01*
X103421655Y-33940717D01*
X103482963Y-34088729D01*
X103575804Y-34312866D01*
X103654388Y-34707934D01*
X103654388Y-35110746D01*
X103575804Y-35505814D01*
X103524939Y-35628612D01*
X103421655Y-35877963D01*
X103197865Y-36212888D01*
X102913036Y-36497717D01*
X102578111Y-36721507D01*
X102506652Y-36751106D01*
X102205962Y-36875656D01*
X101810894Y-36954240D01*
X101408082Y-36954240D01*
X101013014Y-36875656D01*
X100712324Y-36751106D01*
X100640865Y-36721507D01*
X100305940Y-36497717D01*
X100021111Y-36212888D01*
X99797321Y-35877963D01*
X99694037Y-35628612D01*
X99643172Y-35505814D01*
X99564588Y-35110746D01*
X99564588Y-34707934D01*
X99643172Y-34312866D01*
X99736013Y-34088729D01*
X99797321Y-33940717D01*
X100021111Y-33605792D01*
X100305940Y-33320963D01*
X100640865Y-33097173D01*
X100795014Y-33033323D01*
X101013014Y-32943024D01*
X101408082Y-32864440D01*
X101810894Y-32864440D01*
X102205962Y-32943024D01*
X102205962Y-32943024D01*
G37*
G36*
X63147803Y-35381213D02*
G01*
X63187249Y-35393179D01*
X63223594Y-35412606D01*
X63255456Y-35438754D01*
X63281604Y-35470616D01*
X63301031Y-35506961D01*
X63312997Y-35546407D01*
X63317641Y-35593562D01*
X63317641Y-36286576D01*
X63312997Y-36333731D01*
X63301031Y-36373177D01*
X63281604Y-36409522D01*
X63255456Y-36441384D01*
X63223594Y-36467532D01*
X63187249Y-36486959D01*
X63147803Y-36498925D01*
X63100648Y-36503569D01*
X62032634Y-36503569D01*
X61985479Y-36498925D01*
X61946033Y-36486959D01*
X61909688Y-36467532D01*
X61877826Y-36441384D01*
X61851678Y-36409522D01*
X61832251Y-36373177D01*
X61820285Y-36333731D01*
X61815641Y-36286576D01*
X61815641Y-35593562D01*
X61820285Y-35546407D01*
X61832251Y-35506961D01*
X61851678Y-35470616D01*
X61877826Y-35438754D01*
X61909688Y-35412606D01*
X61946033Y-35393179D01*
X61985479Y-35381213D01*
X62032634Y-35376569D01*
X63100648Y-35376569D01*
X63147803Y-35381213D01*
X63147803Y-35381213D01*
G37*
G36*
X65529053Y-35381213D02*
G01*
X65568499Y-35393179D01*
X65604844Y-35412606D01*
X65636706Y-35438754D01*
X65662854Y-35470616D01*
X65682281Y-35506961D01*
X65694247Y-35546407D01*
X65698891Y-35593562D01*
X65698891Y-36286576D01*
X65694247Y-36333731D01*
X65682281Y-36373177D01*
X65662854Y-36409522D01*
X65636706Y-36441384D01*
X65604844Y-36467532D01*
X65568499Y-36486959D01*
X65529053Y-36498925D01*
X65481898Y-36503569D01*
X64413884Y-36503569D01*
X64366729Y-36498925D01*
X64327283Y-36486959D01*
X64290938Y-36467532D01*
X64259076Y-36441384D01*
X64232928Y-36409522D01*
X64213501Y-36373177D01*
X64201535Y-36333731D01*
X64196891Y-36286576D01*
X64196891Y-35593562D01*
X64201535Y-35546407D01*
X64213501Y-35506961D01*
X64232928Y-35470616D01*
X64259076Y-35438754D01*
X64290938Y-35412606D01*
X64327283Y-35393179D01*
X64366729Y-35381213D01*
X64413884Y-35376569D01*
X65481898Y-35376569D01*
X65529053Y-35381213D01*
X65529053Y-35381213D01*
G37*
G36*
X126000104Y-34034585D02*
G01*
X126168626Y-34104389D01*
X126320291Y-34205728D01*
X126449272Y-34334709D01*
X126550611Y-34486374D01*
X126620415Y-34654896D01*
X126656000Y-34833797D01*
X126656000Y-35016203D01*
X126620415Y-35195104D01*
X126550611Y-35363626D01*
X126449272Y-35515291D01*
X126320291Y-35644272D01*
X126168626Y-35745611D01*
X126000104Y-35815415D01*
X125821203Y-35851000D01*
X125638797Y-35851000D01*
X125459896Y-35815415D01*
X125291374Y-35745611D01*
X125139709Y-35644272D01*
X125010728Y-35515291D01*
X124909389Y-35363626D01*
X124839585Y-35195104D01*
X124804000Y-35016203D01*
X124804000Y-34833797D01*
X124839585Y-34654896D01*
X124909389Y-34486374D01*
X125010728Y-34334709D01*
X125139709Y-34205728D01*
X125291374Y-34104389D01*
X125459896Y-34034585D01*
X125638797Y-33999000D01*
X125821203Y-33999000D01*
X126000104Y-34034585D01*
X126000104Y-34034585D01*
G37*
G36*
X115840104Y-34034585D02*
G01*
X116008626Y-34104389D01*
X116160291Y-34205728D01*
X116289272Y-34334709D01*
X116390611Y-34486374D01*
X116460415Y-34654896D01*
X116496000Y-34833797D01*
X116496000Y-35016203D01*
X116460415Y-35195104D01*
X116390611Y-35363626D01*
X116289272Y-35515291D01*
X116160291Y-35644272D01*
X116008626Y-35745611D01*
X115840104Y-35815415D01*
X115661203Y-35851000D01*
X115478797Y-35851000D01*
X115299896Y-35815415D01*
X115131374Y-35745611D01*
X114979709Y-35644272D01*
X114850728Y-35515291D01*
X114749389Y-35363626D01*
X114679585Y-35195104D01*
X114644000Y-35016203D01*
X114644000Y-34833797D01*
X114679585Y-34654896D01*
X114749389Y-34486374D01*
X114850728Y-34334709D01*
X114979709Y-34205728D01*
X115131374Y-34104389D01*
X115299896Y-34034585D01*
X115478797Y-33999000D01*
X115661203Y-33999000D01*
X115840104Y-34034585D01*
X115840104Y-34034585D01*
G37*
G36*
X106959592Y-34018925D02*
G01*
X107128114Y-34088729D01*
X107279779Y-34190068D01*
X107408760Y-34319049D01*
X107510099Y-34470714D01*
X107579903Y-34639236D01*
X107615488Y-34818137D01*
X107615488Y-35000543D01*
X107579903Y-35179444D01*
X107510099Y-35347966D01*
X107408760Y-35499631D01*
X107279779Y-35628612D01*
X107128114Y-35729951D01*
X106959592Y-35799755D01*
X106780691Y-35835340D01*
X106598285Y-35835340D01*
X106419384Y-35799755D01*
X106250862Y-35729951D01*
X106099197Y-35628612D01*
X105970216Y-35499631D01*
X105868877Y-35347966D01*
X105799073Y-35179444D01*
X105763488Y-35000543D01*
X105763488Y-34818137D01*
X105799073Y-34639236D01*
X105868877Y-34470714D01*
X105970216Y-34319049D01*
X106099197Y-34190068D01*
X106250862Y-34088729D01*
X106419384Y-34018925D01*
X106598285Y-33983340D01*
X106780691Y-33983340D01*
X106959592Y-34018925D01*
X106959592Y-34018925D01*
G37*
G36*
X96799592Y-34018925D02*
G01*
X96968114Y-34088729D01*
X97119779Y-34190068D01*
X97248760Y-34319049D01*
X97350099Y-34470714D01*
X97419903Y-34639236D01*
X97455488Y-34818137D01*
X97455488Y-35000543D01*
X97419903Y-35179444D01*
X97350099Y-35347966D01*
X97248760Y-35499631D01*
X97119779Y-35628612D01*
X96968114Y-35729951D01*
X96799592Y-35799755D01*
X96620691Y-35835340D01*
X96438285Y-35835340D01*
X96259384Y-35799755D01*
X96090862Y-35729951D01*
X95939197Y-35628612D01*
X95810216Y-35499631D01*
X95708877Y-35347966D01*
X95639073Y-35179444D01*
X95603488Y-35000543D01*
X95603488Y-34818137D01*
X95639073Y-34639236D01*
X95708877Y-34470714D01*
X95810216Y-34319049D01*
X95939197Y-34190068D01*
X96090862Y-34088729D01*
X96259384Y-34018925D01*
X96438285Y-33983340D01*
X96620691Y-33983340D01*
X96799592Y-34018925D01*
X96799592Y-34018925D01*
G37*
G36*
X68843662Y-34366144D02*
G01*
X68883108Y-34378110D01*
X68919453Y-34397537D01*
X68951315Y-34423685D01*
X68977463Y-34455547D01*
X68996890Y-34491892D01*
X69008856Y-34531338D01*
X69013500Y-34578493D01*
X69013500Y-35271507D01*
X69008856Y-35318662D01*
X68996890Y-35358108D01*
X68977463Y-35394453D01*
X68951315Y-35426315D01*
X68919453Y-35452463D01*
X68883108Y-35471890D01*
X68843662Y-35483856D01*
X68796507Y-35488500D01*
X67728493Y-35488500D01*
X67681338Y-35483856D01*
X67641892Y-35471890D01*
X67605547Y-35452463D01*
X67573685Y-35426315D01*
X67547537Y-35394453D01*
X67528110Y-35358108D01*
X67516144Y-35318662D01*
X67511500Y-35271507D01*
X67511500Y-34578493D01*
X67516144Y-34531338D01*
X67528110Y-34491892D01*
X67547537Y-34455547D01*
X67573685Y-34423685D01*
X67605547Y-34397537D01*
X67641892Y-34378110D01*
X67681338Y-34366144D01*
X67728493Y-34361500D01*
X68796507Y-34361500D01*
X68843662Y-34366144D01*
X68843662Y-34366144D01*
G37*
G36*
X72041934Y-34378686D02*
G01*
X72081784Y-34390774D01*
X72118499Y-34410399D01*
X72150686Y-34436814D01*
X72177101Y-34469001D01*
X72196726Y-34505716D01*
X72208814Y-34545566D01*
X72213500Y-34593141D01*
X72213500Y-35256859D01*
X72208814Y-35304434D01*
X72196726Y-35344284D01*
X72177101Y-35380999D01*
X72150686Y-35413186D01*
X72118499Y-35439601D01*
X72081784Y-35459226D01*
X72041934Y-35471314D01*
X71994359Y-35476000D01*
X70880641Y-35476000D01*
X70833066Y-35471314D01*
X70793216Y-35459226D01*
X70756501Y-35439601D01*
X70724314Y-35413186D01*
X70697899Y-35380999D01*
X70678274Y-35344284D01*
X70666186Y-35304434D01*
X70661500Y-35256859D01*
X70661500Y-34593141D01*
X70666186Y-34545566D01*
X70678274Y-34505716D01*
X70697899Y-34469001D01*
X70724314Y-34436814D01*
X70756501Y-34410399D01*
X70793216Y-34390774D01*
X70833066Y-34378686D01*
X70880641Y-34374000D01*
X71994359Y-34374000D01*
X72041934Y-34378686D01*
X72041934Y-34378686D01*
G37*
G36*
X130032250Y-33713500D02*
G01*
X128730250Y-33713500D01*
X128730250Y-32711500D01*
X130032250Y-32711500D01*
X130032250Y-33713500D01*
X130032250Y-33713500D01*
G37*
G36*
X110982250Y-33713500D02*
G01*
X109680250Y-33713500D01*
X109680250Y-32711500D01*
X110982250Y-32711500D01*
X110982250Y-33713500D01*
X110982250Y-33713500D01*
G37*
G36*
X118173205Y-29748881D02*
G01*
X118178645Y-29749000D01*
X118265828Y-29749000D01*
X118282097Y-29752236D01*
X118300956Y-29754515D01*
X118317532Y-29755246D01*
X118402223Y-29776010D01*
X118407518Y-29777184D01*
X118493027Y-29794193D01*
X118508362Y-29800545D01*
X118526401Y-29806455D01*
X118542521Y-29810407D01*
X118621504Y-29847280D01*
X118626494Y-29849477D01*
X118707045Y-29882842D01*
X118720841Y-29892060D01*
X118737393Y-29901382D01*
X118752426Y-29908400D01*
X118822694Y-29959971D01*
X118827190Y-29963121D01*
X118828114Y-29963738D01*
X118899656Y-30011541D01*
X118911383Y-30023268D01*
X118925809Y-30035648D01*
X118939179Y-30045461D01*
X118991539Y-30102652D01*
X118998021Y-30109733D01*
X119001829Y-30113714D01*
X119063459Y-30175344D01*
X119072674Y-30189135D01*
X119084396Y-30204078D01*
X119095605Y-30216321D01*
X119140799Y-30290874D01*
X119143746Y-30295501D01*
X119192158Y-30367955D01*
X119198505Y-30383277D01*
X119207092Y-30400231D01*
X119215691Y-30414417D01*
X119245478Y-30496368D01*
X119247452Y-30501448D01*
X119280807Y-30581973D01*
X119280807Y-30581974D01*
X119284041Y-30598233D01*
X119289158Y-30616542D01*
X119294825Y-30632134D01*
X119308055Y-30718345D01*
X119309001Y-30723713D01*
X119326000Y-30809173D01*
X119326000Y-30825752D01*
X119327444Y-30844692D01*
X119329963Y-30861104D01*
X119326120Y-30948249D01*
X119326000Y-30953689D01*
X119326000Y-31040825D01*
X119322766Y-31057083D01*
X119320488Y-31075941D01*
X119319756Y-31092531D01*
X119298988Y-31177237D01*
X119297812Y-31182537D01*
X119280807Y-31268027D01*
X119274457Y-31283357D01*
X119268549Y-31301393D01*
X119264595Y-31317520D01*
X119227711Y-31396526D01*
X119225511Y-31401523D01*
X119192158Y-31482045D01*
X119182944Y-31495835D01*
X119173622Y-31512387D01*
X119166602Y-31527424D01*
X119115011Y-31597720D01*
X119111866Y-31602210D01*
X119063461Y-31674654D01*
X119006460Y-31731655D01*
X119001811Y-31736563D01*
X118618177Y-32164124D01*
X117676723Y-33213376D01*
X117548679Y-33330602D01*
X117457393Y-33385940D01*
X117350583Y-33450689D01*
X117132866Y-33529823D01*
X116903895Y-33564961D01*
X116672470Y-33554754D01*
X116447481Y-33499593D01*
X116342727Y-33450689D01*
X116237579Y-33401602D01*
X116140838Y-33330602D01*
X116050823Y-33264539D01*
X115976394Y-33183241D01*
X115894398Y-33093679D01*
X115812564Y-32958685D01*
X115774311Y-32895583D01*
X115695177Y-32677866D01*
X115660039Y-32448895D01*
X115670246Y-32217470D01*
X115725407Y-31992481D01*
X115783404Y-31868250D01*
X115823398Y-31782580D01*
X115836802Y-31764316D01*
X115926114Y-31642622D01*
X116672409Y-30810875D01*
X117212787Y-30208621D01*
X117223681Y-30194589D01*
X117236539Y-30175346D01*
X117293573Y-30118312D01*
X117298223Y-30113403D01*
X117313278Y-30096624D01*
X117334701Y-30077011D01*
X117338682Y-30073203D01*
X117400346Y-30011539D01*
X117414143Y-30002320D01*
X117429102Y-29990585D01*
X117441321Y-29979398D01*
X117473385Y-29959961D01*
X117515830Y-29934231D01*
X117520421Y-29931308D01*
X117592955Y-29882842D01*
X117608300Y-29876486D01*
X117625248Y-29867901D01*
X117639416Y-29859312D01*
X117639417Y-29859312D01*
X117639418Y-29859311D01*
X117721312Y-29829545D01*
X117726410Y-29827563D01*
X117806973Y-29794193D01*
X117823252Y-29790955D01*
X117841542Y-29785844D01*
X117857135Y-29780177D01*
X117943300Y-29766954D01*
X117948663Y-29766009D01*
X118034173Y-29749000D01*
X118050766Y-29749000D01*
X118069709Y-29747555D01*
X118086106Y-29745039D01*
X118173205Y-29748881D01*
X118173205Y-29748881D01*
G37*
G36*
X99132693Y-29733221D02*
G01*
X99138133Y-29733340D01*
X99225316Y-29733340D01*
X99241585Y-29736576D01*
X99260444Y-29738855D01*
X99277020Y-29739586D01*
X99361711Y-29760350D01*
X99367006Y-29761524D01*
X99452515Y-29778533D01*
X99467850Y-29784885D01*
X99485889Y-29790795D01*
X99502009Y-29794747D01*
X99580992Y-29831620D01*
X99585982Y-29833817D01*
X99666533Y-29867182D01*
X99680329Y-29876400D01*
X99696881Y-29885722D01*
X99711914Y-29892740D01*
X99782182Y-29944311D01*
X99786678Y-29947461D01*
X99845344Y-29986660D01*
X99859144Y-29995881D01*
X99870871Y-30007608D01*
X99885297Y-30019988D01*
X99889765Y-30023268D01*
X99898668Y-30029802D01*
X99957509Y-30094073D01*
X99961317Y-30098054D01*
X100022947Y-30159684D01*
X100032162Y-30173475D01*
X100043884Y-30188418D01*
X100055093Y-30200661D01*
X100100287Y-30275214D01*
X100103234Y-30279841D01*
X100124388Y-30311500D01*
X100151646Y-30352295D01*
X100157993Y-30367617D01*
X100166580Y-30384571D01*
X100175179Y-30398757D01*
X100204966Y-30480708D01*
X100206940Y-30485788D01*
X100240295Y-30566313D01*
X100241625Y-30572997D01*
X100243529Y-30582573D01*
X100248646Y-30600882D01*
X100254313Y-30616474D01*
X100267543Y-30702685D01*
X100268489Y-30708053D01*
X100285488Y-30793513D01*
X100285488Y-30810092D01*
X100286932Y-30829032D01*
X100289451Y-30845444D01*
X100285608Y-30932589D01*
X100285488Y-30938029D01*
X100285488Y-31025165D01*
X100282254Y-31041423D01*
X100279976Y-31060281D01*
X100279244Y-31076871D01*
X100258476Y-31161577D01*
X100257300Y-31166877D01*
X100240295Y-31252367D01*
X100233945Y-31267697D01*
X100228037Y-31285733D01*
X100224083Y-31301860D01*
X100187199Y-31380866D01*
X100184999Y-31385863D01*
X100151646Y-31466385D01*
X100142432Y-31480175D01*
X100133110Y-31496727D01*
X100126090Y-31511764D01*
X100074499Y-31582060D01*
X100071354Y-31586550D01*
X100022949Y-31658994D01*
X99965948Y-31715995D01*
X99961299Y-31720903D01*
X99308099Y-32448896D01*
X98636211Y-33197716D01*
X98508167Y-33314942D01*
X98409119Y-33374985D01*
X98310071Y-33435029D01*
X98092354Y-33514163D01*
X97863383Y-33549301D01*
X97631958Y-33539094D01*
X97406969Y-33483933D01*
X97302215Y-33435029D01*
X97197067Y-33385942D01*
X97100326Y-33314942D01*
X97010311Y-33248879D01*
X96885759Y-33112833D01*
X96853886Y-33078019D01*
X96772052Y-32943025D01*
X96733799Y-32879923D01*
X96654665Y-32662206D01*
X96619527Y-32433235D01*
X96629734Y-32201810D01*
X96684895Y-31976821D01*
X96749489Y-31838459D01*
X96782886Y-31766920D01*
X96785894Y-31762821D01*
X96885602Y-31626962D01*
X97617846Y-30810875D01*
X98172275Y-30192961D01*
X98183169Y-30178929D01*
X98196027Y-30159686D01*
X98253061Y-30102652D01*
X98257711Y-30097743D01*
X98272766Y-30080964D01*
X98294189Y-30061351D01*
X98298170Y-30057543D01*
X98359834Y-29995879D01*
X98373631Y-29986660D01*
X98388590Y-29974925D01*
X98400809Y-29963738D01*
X98432873Y-29944301D01*
X98475318Y-29918571D01*
X98479909Y-29915648D01*
X98552443Y-29867182D01*
X98567788Y-29860826D01*
X98584736Y-29852241D01*
X98598904Y-29843652D01*
X98598905Y-29843652D01*
X98598906Y-29843651D01*
X98680800Y-29813885D01*
X98685898Y-29811903D01*
X98766461Y-29778533D01*
X98782740Y-29775295D01*
X98801030Y-29770184D01*
X98816623Y-29764517D01*
X98902788Y-29751294D01*
X98908151Y-29750349D01*
X98993661Y-29733340D01*
X99010254Y-29733340D01*
X99029197Y-29731895D01*
X99045594Y-29729379D01*
X99132693Y-29733221D01*
X99132693Y-29733221D01*
G37*
G36*
X60820377Y-30099537D02*
G01*
X60990216Y-30151057D01*
X60990218Y-30151058D01*
X61035652Y-30175343D01*
X61146741Y-30234722D01*
X61182479Y-30264052D01*
X61283936Y-30347314D01*
X61339004Y-30414416D01*
X61396528Y-30484509D01*
X61480193Y-30641034D01*
X61531713Y-30810873D01*
X61535046Y-30844713D01*
X61544750Y-30943240D01*
X61544750Y-32031760D01*
X61539473Y-32085340D01*
X61531713Y-32164127D01*
X61480193Y-32333966D01*
X61396528Y-32490491D01*
X61369697Y-32523184D01*
X61283936Y-32627686D01*
X61146739Y-32740279D01*
X60990217Y-32823942D01*
X60990215Y-32823943D01*
X60820376Y-32875463D01*
X60643750Y-32892859D01*
X60467123Y-32875463D01*
X60297284Y-32823943D01*
X60140759Y-32740278D01*
X60079573Y-32690064D01*
X60003564Y-32627686D01*
X59890971Y-32490489D01*
X59807308Y-32333967D01*
X59807307Y-32333965D01*
X59755787Y-32164126D01*
X59742750Y-32031757D01*
X59742751Y-30943242D01*
X59755788Y-30810873D01*
X59807308Y-30641034D01*
X59890973Y-30484509D01*
X59948497Y-30414416D01*
X60003565Y-30347314D01*
X60105022Y-30264052D01*
X60140760Y-30234722D01*
X60251849Y-30175343D01*
X60297283Y-30151058D01*
X60297285Y-30151057D01*
X60467124Y-30099537D01*
X60643750Y-30082141D01*
X60820377Y-30099537D01*
X60820377Y-30099537D01*
G37*
G36*
X68120377Y-30099537D02*
G01*
X68290216Y-30151057D01*
X68290218Y-30151058D01*
X68335652Y-30175343D01*
X68446741Y-30234722D01*
X68482479Y-30264052D01*
X68583936Y-30347314D01*
X68639004Y-30414416D01*
X68696528Y-30484509D01*
X68780193Y-30641034D01*
X68831713Y-30810873D01*
X68835046Y-30844713D01*
X68844750Y-30943240D01*
X68844750Y-32031760D01*
X68839473Y-32085340D01*
X68831713Y-32164127D01*
X68780193Y-32333966D01*
X68696528Y-32490491D01*
X68669697Y-32523184D01*
X68583936Y-32627686D01*
X68446739Y-32740279D01*
X68290217Y-32823942D01*
X68290215Y-32823943D01*
X68120376Y-32875463D01*
X67943750Y-32892859D01*
X67767123Y-32875463D01*
X67597284Y-32823943D01*
X67440759Y-32740278D01*
X67379573Y-32690064D01*
X67303564Y-32627686D01*
X67190971Y-32490489D01*
X67107308Y-32333967D01*
X67107307Y-32333965D01*
X67055787Y-32164126D01*
X67042750Y-32031757D01*
X67042751Y-30943242D01*
X67055788Y-30810873D01*
X67107308Y-30641034D01*
X67190973Y-30484509D01*
X67248497Y-30414416D01*
X67303565Y-30347314D01*
X67405022Y-30264052D01*
X67440760Y-30234722D01*
X67551849Y-30175343D01*
X67597283Y-30151058D01*
X67597285Y-30151057D01*
X67767124Y-30099537D01*
X67943750Y-30082141D01*
X68120377Y-30099537D01*
X68120377Y-30099537D01*
G37*
G36*
X81463500Y-32694750D02*
G01*
X79961500Y-32694750D01*
X79961500Y-31392750D01*
X81463500Y-31392750D01*
X81463500Y-32694750D01*
X81463500Y-32694750D01*
G37*
G36*
X79263500Y-32694750D02*
G01*
X77761500Y-32694750D01*
X77761500Y-31392750D01*
X79263500Y-31392750D01*
X79263500Y-32694750D01*
X79263500Y-32694750D01*
G37*
G36*
X75454434Y-31597436D02*
G01*
X75494284Y-31609524D01*
X75530999Y-31629149D01*
X75563186Y-31655564D01*
X75589601Y-31687751D01*
X75609226Y-31724466D01*
X75621314Y-31764316D01*
X75626000Y-31811891D01*
X75626000Y-32475609D01*
X75621314Y-32523184D01*
X75609226Y-32563034D01*
X75589601Y-32599749D01*
X75563186Y-32631936D01*
X75530999Y-32658351D01*
X75494284Y-32677976D01*
X75454434Y-32690064D01*
X75406859Y-32694750D01*
X74293141Y-32694750D01*
X74245566Y-32690064D01*
X74205716Y-32677976D01*
X74169001Y-32658351D01*
X74136814Y-32631936D01*
X74110399Y-32599749D01*
X74090774Y-32563034D01*
X74078686Y-32523184D01*
X74074000Y-32475609D01*
X74074000Y-31811891D01*
X74078686Y-31764316D01*
X74090774Y-31724466D01*
X74110399Y-31687751D01*
X74136814Y-31655564D01*
X74169001Y-31629149D01*
X74205716Y-31609524D01*
X74245566Y-31597436D01*
X74293141Y-31592750D01*
X75406859Y-31592750D01*
X75454434Y-31597436D01*
X75454434Y-31597436D01*
G37*
G36*
X84979434Y-31597436D02*
G01*
X85019284Y-31609524D01*
X85055999Y-31629149D01*
X85088186Y-31655564D01*
X85114601Y-31687751D01*
X85134226Y-31724466D01*
X85146314Y-31764316D01*
X85151000Y-31811891D01*
X85151000Y-32475609D01*
X85146314Y-32523184D01*
X85134226Y-32563034D01*
X85114601Y-32599749D01*
X85088186Y-32631936D01*
X85055999Y-32658351D01*
X85019284Y-32677976D01*
X84979434Y-32690064D01*
X84931859Y-32694750D01*
X83818141Y-32694750D01*
X83770566Y-32690064D01*
X83730716Y-32677976D01*
X83694001Y-32658351D01*
X83661814Y-32631936D01*
X83635399Y-32599749D01*
X83615774Y-32563034D01*
X83603686Y-32523184D01*
X83599000Y-32475609D01*
X83599000Y-31811891D01*
X83603686Y-31764316D01*
X83615774Y-31724466D01*
X83635399Y-31687751D01*
X83661814Y-31655564D01*
X83694001Y-31629149D01*
X83730716Y-31609524D01*
X83770566Y-31597436D01*
X83818141Y-31592750D01*
X84931859Y-31592750D01*
X84979434Y-31597436D01*
X84979434Y-31597436D01*
G37*
G36*
X66194750Y-32663500D02*
G01*
X62392750Y-32663500D01*
X62392750Y-30311500D01*
X66194750Y-30311500D01*
X66194750Y-32663500D01*
X66194750Y-32663500D01*
G37*
G36*
X123278127Y-28667261D02*
G01*
X123298900Y-28669000D01*
X123305827Y-28669000D01*
X123400754Y-28687882D01*
X123404348Y-28688542D01*
X123499730Y-28704624D01*
X123506203Y-28707085D01*
X123526228Y-28712841D01*
X123533027Y-28714193D01*
X123587900Y-28736922D01*
X123622443Y-28751230D01*
X123625844Y-28752581D01*
X123716255Y-28786961D01*
X123722127Y-28790640D01*
X123740636Y-28800187D01*
X123747045Y-28802842D01*
X123827563Y-28856642D01*
X123830554Y-28858578D01*
X123912557Y-28909959D01*
X123917584Y-28914700D01*
X123933896Y-28927691D01*
X123939652Y-28931537D01*
X124008110Y-28999995D01*
X124010689Y-29002499D01*
X124081090Y-29068889D01*
X124085095Y-29074519D01*
X124098559Y-29090444D01*
X124103459Y-29095344D01*
X124146781Y-29160179D01*
X124157244Y-29175839D01*
X124159291Y-29178807D01*
X124215380Y-29257645D01*
X124218214Y-29263958D01*
X124228308Y-29282193D01*
X124232158Y-29287955D01*
X124269220Y-29377430D01*
X124270624Y-29380685D01*
X124310265Y-29468973D01*
X124311815Y-29475725D01*
X124318152Y-29495562D01*
X124320807Y-29501973D01*
X124337290Y-29584841D01*
X124339692Y-29596917D01*
X124340438Y-29600401D01*
X124362098Y-29694751D01*
X124362195Y-29698044D01*
X124362300Y-29701654D01*
X124364647Y-29722370D01*
X124366000Y-29729174D01*
X124366000Y-29825986D01*
X124366053Y-29829584D01*
X124367188Y-29868277D01*
X124366295Y-29881225D01*
X124366000Y-29889797D01*
X124366000Y-29960826D01*
X124360081Y-29990585D01*
X124359604Y-29992979D01*
X124357500Y-30008750D01*
X124319238Y-30563545D01*
X124290376Y-30734730D01*
X124208038Y-30951255D01*
X124085041Y-31147557D01*
X123926111Y-31316090D01*
X123737355Y-31450380D01*
X123526027Y-31545265D01*
X123300249Y-31597098D01*
X123068698Y-31603889D01*
X123068697Y-31603889D01*
X123023012Y-31596186D01*
X122840270Y-31565376D01*
X122623745Y-31483038D01*
X122427443Y-31360041D01*
X122258910Y-31201111D01*
X122124620Y-31012355D01*
X122029735Y-30801027D01*
X121977902Y-30575249D01*
X121972812Y-30401723D01*
X122013704Y-29808794D01*
X122014000Y-29800196D01*
X122014000Y-29729175D01*
X122032882Y-29634250D01*
X122033544Y-29630645D01*
X122039231Y-29596917D01*
X122049624Y-29535270D01*
X122052085Y-29528799D01*
X122057842Y-29508767D01*
X122059193Y-29501974D01*
X122061843Y-29495576D01*
X122096264Y-29412476D01*
X122097553Y-29409230D01*
X122131962Y-29318745D01*
X122135636Y-29312881D01*
X122145187Y-29294365D01*
X122147842Y-29287955D01*
X122201657Y-29207415D01*
X122203577Y-29204449D01*
X122254959Y-29122443D01*
X122259711Y-29117404D01*
X122272689Y-29101107D01*
X122276537Y-29095348D01*
X122344993Y-29026892D01*
X122347546Y-29024262D01*
X122362314Y-29008602D01*
X122413889Y-28953910D01*
X122419521Y-28949903D01*
X122435447Y-28936438D01*
X122440346Y-28931539D01*
X122520824Y-28877766D01*
X122523806Y-28875710D01*
X122602645Y-28819620D01*
X122608955Y-28816787D01*
X122627194Y-28806691D01*
X122632951Y-28802844D01*
X122632954Y-28802843D01*
X122632955Y-28802842D01*
X122722429Y-28765781D01*
X122725687Y-28764375D01*
X122813973Y-28724735D01*
X122820725Y-28723185D01*
X122840562Y-28716848D01*
X122846973Y-28714193D01*
X122941899Y-28695311D01*
X122945446Y-28694551D01*
X123039751Y-28672901D01*
X123042130Y-28672831D01*
X123046665Y-28672698D01*
X123067381Y-28670351D01*
X123074174Y-28669000D01*
X123170959Y-28669000D01*
X123174584Y-28668947D01*
X123271302Y-28666110D01*
X123278127Y-28667261D01*
X123278127Y-28667261D01*
G37*
G36*
X104237615Y-28651601D02*
G01*
X104258388Y-28653340D01*
X104265315Y-28653340D01*
X104360242Y-28672222D01*
X104363836Y-28672882D01*
X104459218Y-28688964D01*
X104465691Y-28691425D01*
X104485716Y-28697181D01*
X104492515Y-28698533D01*
X104552042Y-28723190D01*
X104581931Y-28735570D01*
X104585332Y-28736921D01*
X104675743Y-28771301D01*
X104681615Y-28774980D01*
X104700124Y-28784527D01*
X104706533Y-28787182D01*
X104787051Y-28840982D01*
X104790042Y-28842918D01*
X104872045Y-28894299D01*
X104877072Y-28899040D01*
X104893384Y-28912031D01*
X104899140Y-28915877D01*
X104967598Y-28984335D01*
X104970177Y-28986839D01*
X105040578Y-29053229D01*
X105040580Y-29053232D01*
X105044581Y-29058856D01*
X105058046Y-29074783D01*
X105062947Y-29079684D01*
X105116732Y-29160179D01*
X105118779Y-29163147D01*
X105174868Y-29241985D01*
X105177702Y-29248298D01*
X105187796Y-29266533D01*
X105191646Y-29272295D01*
X105228708Y-29361770D01*
X105230112Y-29365025D01*
X105269753Y-29453313D01*
X105271303Y-29460065D01*
X105277640Y-29479902D01*
X105280295Y-29486313D01*
X105299180Y-29581257D01*
X105299926Y-29584741D01*
X105321586Y-29679091D01*
X105321586Y-29679094D01*
X105321788Y-29685994D01*
X105324135Y-29706710D01*
X105325488Y-29713514D01*
X105325488Y-29810326D01*
X105325541Y-29813924D01*
X105326676Y-29852617D01*
X105325783Y-29865565D01*
X105325488Y-29874137D01*
X105325488Y-29945166D01*
X105319569Y-29974925D01*
X105319092Y-29977319D01*
X105316988Y-29993090D01*
X105278726Y-30547885D01*
X105249864Y-30719070D01*
X105167526Y-30935595D01*
X105044529Y-31131897D01*
X104885599Y-31300430D01*
X104696843Y-31434720D01*
X104485515Y-31529605D01*
X104259737Y-31581438D01*
X104028186Y-31588229D01*
X104028185Y-31588229D01*
X103982500Y-31580526D01*
X103799758Y-31549716D01*
X103583233Y-31467378D01*
X103386931Y-31344381D01*
X103218398Y-31185451D01*
X103084108Y-30996695D01*
X102989223Y-30785367D01*
X102937390Y-30559589D01*
X102932300Y-30386063D01*
X102973192Y-29793134D01*
X102973488Y-29784536D01*
X102973488Y-29713515D01*
X102992370Y-29618590D01*
X102993032Y-29614985D01*
X102998719Y-29581257D01*
X103009112Y-29519610D01*
X103011573Y-29513139D01*
X103017330Y-29493107D01*
X103018681Y-29486314D01*
X103021331Y-29479916D01*
X103055752Y-29396816D01*
X103057041Y-29393570D01*
X103091450Y-29303085D01*
X103095124Y-29297221D01*
X103104675Y-29278705D01*
X103107330Y-29272295D01*
X103161145Y-29191755D01*
X103163065Y-29188789D01*
X103214447Y-29106783D01*
X103219199Y-29101744D01*
X103232177Y-29085447D01*
X103236025Y-29079688D01*
X103304481Y-29011232D01*
X103307034Y-29008602D01*
X103315151Y-28999995D01*
X103373377Y-28938250D01*
X103379009Y-28934243D01*
X103394935Y-28920778D01*
X103399834Y-28915879D01*
X103480312Y-28862106D01*
X103483294Y-28860050D01*
X103562133Y-28803960D01*
X103568443Y-28801127D01*
X103586682Y-28791031D01*
X103592439Y-28787184D01*
X103592442Y-28787183D01*
X103592443Y-28787182D01*
X103681917Y-28750121D01*
X103685175Y-28748715D01*
X103773461Y-28709075D01*
X103780213Y-28707525D01*
X103800050Y-28701188D01*
X103806461Y-28698533D01*
X103901387Y-28679651D01*
X103904934Y-28678891D01*
X103999239Y-28657241D01*
X104001618Y-28657171D01*
X104006153Y-28657038D01*
X104026869Y-28654691D01*
X104033662Y-28653340D01*
X104130447Y-28653340D01*
X104134072Y-28653287D01*
X104230790Y-28650450D01*
X104237615Y-28651601D01*
X104237615Y-28651601D01*
G37*
G36*
X79263500Y-30994750D02*
G01*
X77761500Y-30994750D01*
X77761500Y-29692750D01*
X79263500Y-29692750D01*
X79263500Y-30994750D01*
X79263500Y-30994750D01*
G37*
G36*
X81463500Y-30994750D02*
G01*
X79961500Y-30994750D01*
X79961500Y-29692750D01*
X81463500Y-29692750D01*
X81463500Y-30994750D01*
X81463500Y-30994750D01*
G37*
G36*
X75454434Y-29697436D02*
G01*
X75494284Y-29709524D01*
X75530999Y-29729149D01*
X75563186Y-29755564D01*
X75589601Y-29787751D01*
X75609226Y-29824466D01*
X75621314Y-29864316D01*
X75626000Y-29911891D01*
X75626000Y-30575609D01*
X75621314Y-30623184D01*
X75609226Y-30663034D01*
X75589601Y-30699749D01*
X75563186Y-30731936D01*
X75530999Y-30758351D01*
X75494284Y-30777976D01*
X75454434Y-30790064D01*
X75406859Y-30794750D01*
X74293141Y-30794750D01*
X74245566Y-30790064D01*
X74205716Y-30777976D01*
X74169001Y-30758351D01*
X74136814Y-30731936D01*
X74110399Y-30699749D01*
X74090774Y-30663034D01*
X74078686Y-30623184D01*
X74074000Y-30575609D01*
X74074000Y-29911891D01*
X74078686Y-29864316D01*
X74090774Y-29824466D01*
X74110399Y-29787751D01*
X74136814Y-29755564D01*
X74169001Y-29729149D01*
X74205716Y-29709524D01*
X74245566Y-29697436D01*
X74293141Y-29692750D01*
X75406859Y-29692750D01*
X75454434Y-29697436D01*
X75454434Y-29697436D01*
G37*
G36*
X84979434Y-29697436D02*
G01*
X85019284Y-29709524D01*
X85055999Y-29729149D01*
X85088186Y-29755564D01*
X85114601Y-29787751D01*
X85134226Y-29824466D01*
X85146314Y-29864316D01*
X85151000Y-29911891D01*
X85151000Y-30575609D01*
X85146314Y-30623184D01*
X85134226Y-30663034D01*
X85114601Y-30699749D01*
X85088186Y-30731936D01*
X85055999Y-30758351D01*
X85019284Y-30777976D01*
X84979434Y-30790064D01*
X84931859Y-30794750D01*
X83818141Y-30794750D01*
X83770566Y-30790064D01*
X83730716Y-30777976D01*
X83694001Y-30758351D01*
X83661814Y-30731936D01*
X83635399Y-30699749D01*
X83615774Y-30663034D01*
X83603686Y-30623184D01*
X83599000Y-30575609D01*
X83599000Y-29911891D01*
X83603686Y-29864316D01*
X83615774Y-29824466D01*
X83635399Y-29787751D01*
X83661814Y-29755564D01*
X83694001Y-29729149D01*
X83730716Y-29709524D01*
X83770566Y-29697436D01*
X83818141Y-29692750D01*
X84931859Y-29692750D01*
X84979434Y-29697436D01*
X84979434Y-29697436D01*
G37*
G36*
X60820377Y-25599537D02*
G01*
X60990216Y-25651057D01*
X61146741Y-25734722D01*
X61182479Y-25764052D01*
X61283936Y-25847314D01*
X61367198Y-25948771D01*
X61396528Y-25984509D01*
X61480193Y-26141034D01*
X61531713Y-26310873D01*
X61544750Y-26443242D01*
X61544750Y-27531758D01*
X61531713Y-27664127D01*
X61480193Y-27833966D01*
X61396528Y-27990491D01*
X61367198Y-28026229D01*
X61283936Y-28127686D01*
X61146739Y-28240279D01*
X60990217Y-28323942D01*
X60990215Y-28323943D01*
X60820376Y-28375463D01*
X60643750Y-28392859D01*
X60467123Y-28375463D01*
X60297284Y-28323943D01*
X60140759Y-28240278D01*
X60105021Y-28210948D01*
X60003564Y-28127686D01*
X59890971Y-27990489D01*
X59807308Y-27833967D01*
X59807307Y-27833965D01*
X59755787Y-27664126D01*
X59742750Y-27531757D01*
X59742751Y-26443242D01*
X59755788Y-26310873D01*
X59807308Y-26141034D01*
X59890973Y-25984509D01*
X59920303Y-25948771D01*
X60003565Y-25847314D01*
X60105022Y-25764052D01*
X60140760Y-25734722D01*
X60297285Y-25651057D01*
X60467124Y-25599537D01*
X60643750Y-25582141D01*
X60820377Y-25599537D01*
X60820377Y-25599537D01*
G37*
G36*
X68120377Y-25599537D02*
G01*
X68290216Y-25651057D01*
X68446741Y-25734722D01*
X68482479Y-25764052D01*
X68583936Y-25847314D01*
X68667198Y-25948771D01*
X68696528Y-25984509D01*
X68780193Y-26141034D01*
X68831713Y-26310873D01*
X68844750Y-26443242D01*
X68844750Y-27531758D01*
X68831713Y-27664127D01*
X68780193Y-27833966D01*
X68696528Y-27990491D01*
X68667198Y-28026229D01*
X68583936Y-28127686D01*
X68446739Y-28240279D01*
X68290217Y-28323942D01*
X68290215Y-28323943D01*
X68120376Y-28375463D01*
X67943750Y-28392859D01*
X67767123Y-28375463D01*
X67597284Y-28323943D01*
X67440759Y-28240278D01*
X67405021Y-28210948D01*
X67303564Y-28127686D01*
X67190971Y-27990489D01*
X67107308Y-27833967D01*
X67107307Y-27833965D01*
X67055787Y-27664126D01*
X67042750Y-27531757D01*
X67042751Y-26443242D01*
X67055788Y-26310873D01*
X67107308Y-26141034D01*
X67190973Y-25984509D01*
X67220303Y-25948771D01*
X67303565Y-25847314D01*
X67405022Y-25764052D01*
X67440760Y-25734722D01*
X67597285Y-25651057D01*
X67767124Y-25599537D01*
X67943750Y-25582141D01*
X68120377Y-25599537D01*
X68120377Y-25599537D01*
G37*
M02*
