M48
; DRILL file {KiCad (5.1.4-0-10_14)} date Wednesday, August 25, 2021 at 04:18:38 PM
; FORMAT={-:-/ absolute / inch / decimal}
; #@! TF.CreationDate,2021-08-25T16:18:38-07:00
; #@! TF.GenerationSoftware,Kicad,Pcbnew,(5.1.4-0-10_14)
; #@! TF.FileFunction,Plated,1,2,PTH
FMAT,2
INCH
T1C0.0157
T2C0.0276
T3C0.0409
T4C0.0579
%
G90
G05
T1
X2.625Y-2.0938
X2.6875Y-1.5312
X2.75Y-1.375
X2.8647Y-1.6147
X2.8647Y-1.8228
X2.8647Y-1.8228
X3.4375Y-2.0625
X3.5938Y-1.5625
T3
X4.7Y-1.575
X4.8Y-1.575
X3.9504Y-1.5744
X4.0504Y-1.5744
X3.9504Y-2.3244
X4.0504Y-2.3244
X4.7004Y-2.3244
X4.8004Y-2.3244
T4
X4.6Y-1.275
X4.6516Y-1.2175
X4.8484Y-1.1978
X4.85Y-1.175
X3.8504Y-1.2744
X3.9019Y-1.2169
X4.0988Y-1.1972
X4.1004Y-1.1744
X3.8504Y-2.0244
X3.9019Y-1.9669
X4.0988Y-1.9472
X4.1004Y-1.9244
X4.6004Y-2.0244
X4.6519Y-1.9669
X4.8488Y-1.9472
X4.8504Y-1.9244
T2
G00X2.3875Y-1.0389
M15
G01X2.3875Y-1.0861
M16
G05
G00X2.3875Y-1.216
M15
G01X2.3875Y-1.2633
M16
G05
G00X2.675Y-1.0389
M15
G01X2.675Y-1.0861
M16
G05
G00X2.675Y-1.216
M15
G01X2.675Y-1.2633
M16
G05
T0
M30
