G04 #@! TF.GenerationSoftware,KiCad,Pcbnew,(5.1.4-0-10_14)*
G04 #@! TF.CreationDate,2021-08-25T16:18:30-07:00*
G04 #@! TF.ProjectId,ai03-pcb-guide,61693033-2d70-4636-922d-67756964652e,rev?*
G04 #@! TF.SameCoordinates,Original*
G04 #@! TF.FileFunction,Legend,Top*
G04 #@! TF.FilePolarity,Positive*
%FSLAX46Y46*%
G04 Gerber Fmt 4.6, Leading zero omitted, Abs format (unit mm)*
G04 Created by KiCad (PCBNEW (5.1.4-0-10_14)) date 2021-08-25 16:18:30*
%MOMM*%
%LPD*%
G04 APERTURE LIST*
%ADD10C,0.150000*%
%ADD11O,1.802000X2.802000*%
%ADD12C,1.852000*%
%ADD13C,4.089800*%
G04 APERTURE END LIST*
D10*
X55737500Y-62364880D02*
X55737500Y-61364880D01*
X56308928Y-62364880D01*
X56308928Y-61364880D01*
X56785119Y-62364880D02*
X56785119Y-61364880D01*
X57213690Y-62364880D02*
X57213690Y-61841071D01*
X57166071Y-61745833D01*
X57070833Y-61698214D01*
X56927976Y-61698214D01*
X56832738Y-61745833D01*
X56785119Y-61793452D01*
X58118452Y-62364880D02*
X58118452Y-61841071D01*
X58070833Y-61745833D01*
X57975595Y-61698214D01*
X57785119Y-61698214D01*
X57689880Y-61745833D01*
X58118452Y-62317261D02*
X58023214Y-62364880D01*
X57785119Y-62364880D01*
X57689880Y-62317261D01*
X57642261Y-62222023D01*
X57642261Y-62126785D01*
X57689880Y-62031547D01*
X57785119Y-61983928D01*
X58023214Y-61983928D01*
X58118452Y-61936309D01*
X58594642Y-61698214D02*
X58594642Y-62364880D01*
X58594642Y-61793452D02*
X58642261Y-61745833D01*
X58737500Y-61698214D01*
X58880357Y-61698214D01*
X58975595Y-61745833D01*
X59023214Y-61841071D01*
X59023214Y-62364880D01*
X60261309Y-62364880D02*
X60261309Y-61364880D01*
X60261309Y-61841071D02*
X60832738Y-61841071D01*
X60832738Y-62364880D02*
X60832738Y-61364880D01*
X61737500Y-62364880D02*
X61737500Y-61841071D01*
X61689880Y-61745833D01*
X61594642Y-61698214D01*
X61404166Y-61698214D01*
X61308928Y-61745833D01*
X61737500Y-62317261D02*
X61642261Y-62364880D01*
X61404166Y-62364880D01*
X61308928Y-62317261D01*
X61261309Y-62222023D01*
X61261309Y-62126785D01*
X61308928Y-62031547D01*
X61404166Y-61983928D01*
X61642261Y-61983928D01*
X61737500Y-61936309D01*
%LPC*%
D11*
X60643750Y-26987500D03*
X67943750Y-26987500D03*
X67943750Y-31487500D03*
X60643750Y-31487500D03*
D12*
X125739488Y-53959340D03*
X115579488Y-53959340D03*
D13*
X120659488Y-53959340D03*
D12*
X106689488Y-53959340D03*
X96529488Y-53959340D03*
D13*
X101609488Y-53959340D03*
D12*
X125730000Y-34925000D03*
X115570000Y-34925000D03*
D13*
X120650000Y-34925000D03*
D12*
X106689488Y-34909340D03*
X96529488Y-34909340D03*
D13*
X101609488Y-34909340D03*
M02*
