G04 #@! TF.GenerationSoftware,KiCad,Pcbnew,(5.1.4-0-10_14)*
G04 #@! TF.CreationDate,2021-08-26T08:40:52-07:00*
G04 #@! TF.ProjectId,ai03-pcb-guide,61693033-2d70-4636-922d-67756964652e,rev?*
G04 #@! TF.SameCoordinates,Original*
G04 #@! TF.FileFunction,Copper,L2,Bot*
G04 #@! TF.FilePolarity,Positive*
%FSLAX46Y46*%
G04 Gerber Fmt 4.6, Leading zero omitted, Abs format (unit mm)*
G04 Created by KiCad (PCBNEW (5.1.4-0-10_14)) date 2021-08-26 08:40:52*
%MOMM*%
%LPD*%
G04 APERTURE LIST*
%ADD10O,1.700000X2.700000*%
%ADD11R,0.500000X2.250000*%
%ADD12R,1.800000X1.100000*%
%ADD13R,1.905000X1.905000*%
%ADD14C,1.905000*%
%ADD15C,2.250000*%
%ADD16C,2.250000*%
%ADD17R,1.400000X1.200000*%
%ADD18R,0.550000X1.500000*%
%ADD19R,1.500000X0.550000*%
%ADD20C,0.100000*%
%ADD21C,1.025000*%
%ADD22C,1.250000*%
%ADD23R,1.200000X0.900000*%
%ADD24C,1.000000*%
%ADD25C,0.800000*%
%ADD26C,0.381000*%
%ADD27C,0.254000*%
G04 APERTURE END LIST*
D10*
X60643750Y-26987500D03*
X67943750Y-26987500D03*
X67943750Y-31487500D03*
X60643750Y-31487500D03*
D11*
X62693750Y-31487500D03*
X63493750Y-31487500D03*
X64293750Y-31487500D03*
X65093750Y-31487500D03*
X65893750Y-31487500D03*
D12*
X65087500Y-56881250D03*
X58887500Y-53181250D03*
X65087500Y-53181250D03*
X58887500Y-56881250D03*
D13*
X121929488Y-59039340D03*
D14*
X119389488Y-59039340D03*
D15*
X118159488Y-49959340D03*
X117504489Y-50689340D03*
D16*
X116849488Y-51419340D02*
X118159490Y-49959340D01*
D15*
X123199488Y-48879340D03*
X123179488Y-49169340D03*
D16*
X123159488Y-49459340D02*
X123199488Y-48879340D01*
D13*
X102879488Y-59039340D03*
D14*
X100339488Y-59039340D03*
D15*
X99109488Y-49959340D03*
X98454489Y-50689340D03*
D16*
X97799488Y-51419340D02*
X99109490Y-49959340D01*
D15*
X104149488Y-48879340D03*
X104129488Y-49169340D03*
D16*
X104109488Y-49459340D02*
X104149488Y-48879340D01*
D13*
X121920000Y-40005000D03*
D14*
X119380000Y-40005000D03*
D15*
X118150000Y-30925000D03*
X117495001Y-31655000D03*
D16*
X116840000Y-32385000D02*
X118150002Y-30925000D01*
D15*
X123190000Y-29845000D03*
X123170000Y-30135000D03*
D16*
X123150000Y-30425000D02*
X123190000Y-29845000D01*
D13*
X102879488Y-39989340D03*
D14*
X100339488Y-39989340D03*
D15*
X99109488Y-30909340D03*
X98454489Y-31639340D03*
D16*
X97799488Y-32369340D02*
X99109490Y-30909340D01*
D15*
X104149488Y-29829340D03*
X104129488Y-30119340D03*
D16*
X104109488Y-30409340D02*
X104149488Y-29829340D01*
D17*
X80712500Y-30343750D03*
X78512500Y-30343750D03*
X78512500Y-32043750D03*
X80712500Y-32043750D03*
D18*
X76406250Y-48800000D03*
X77206250Y-48800000D03*
X78006250Y-48800000D03*
X78806250Y-48800000D03*
X79606250Y-48800000D03*
X80406250Y-48800000D03*
X81206250Y-48800000D03*
X82006250Y-48800000D03*
X82806250Y-48800000D03*
X83606250Y-48800000D03*
X84406250Y-48800000D03*
D19*
X86106250Y-47100000D03*
X86106250Y-46300000D03*
X86106250Y-45500000D03*
X86106250Y-44700000D03*
X86106250Y-43900000D03*
X86106250Y-43100000D03*
X86106250Y-42300000D03*
X86106250Y-41500000D03*
X86106250Y-40700000D03*
X86106250Y-39900000D03*
X86106250Y-39100000D03*
D18*
X84406250Y-37400000D03*
X83606250Y-37400000D03*
X82806250Y-37400000D03*
X82006250Y-37400000D03*
X81206250Y-37400000D03*
X80406250Y-37400000D03*
X79606250Y-37400000D03*
X78806250Y-37400000D03*
X78006250Y-37400000D03*
X77206250Y-37400000D03*
X76406250Y-37400000D03*
D19*
X74706250Y-39100000D03*
X74706250Y-39900000D03*
X74706250Y-40700000D03*
X74706250Y-41500000D03*
X74706250Y-42300000D03*
X74706250Y-43100000D03*
X74706250Y-43900000D03*
X74706250Y-44700000D03*
X74706250Y-45500000D03*
X74706250Y-46300000D03*
X74706250Y-47100000D03*
D20*
G36*
X90168255Y-46994954D02*
G01*
X90192523Y-46998554D01*
X90216322Y-47004515D01*
X90239421Y-47012780D01*
X90261600Y-47023270D01*
X90282643Y-47035882D01*
X90302349Y-47050497D01*
X90320527Y-47066973D01*
X90337003Y-47085151D01*
X90351618Y-47104857D01*
X90364230Y-47125900D01*
X90374720Y-47148079D01*
X90382985Y-47171178D01*
X90388946Y-47194977D01*
X90392546Y-47219245D01*
X90393750Y-47243749D01*
X90393750Y-47768751D01*
X90392546Y-47793255D01*
X90388946Y-47817523D01*
X90382985Y-47841322D01*
X90374720Y-47864421D01*
X90364230Y-47886600D01*
X90351618Y-47907643D01*
X90337003Y-47927349D01*
X90320527Y-47945527D01*
X90302349Y-47962003D01*
X90282643Y-47976618D01*
X90261600Y-47989230D01*
X90239421Y-47999720D01*
X90216322Y-48007985D01*
X90192523Y-48013946D01*
X90168255Y-48017546D01*
X90143751Y-48018750D01*
X89243749Y-48018750D01*
X89219245Y-48017546D01*
X89194977Y-48013946D01*
X89171178Y-48007985D01*
X89148079Y-47999720D01*
X89125900Y-47989230D01*
X89104857Y-47976618D01*
X89085151Y-47962003D01*
X89066973Y-47945527D01*
X89050497Y-47927349D01*
X89035882Y-47907643D01*
X89023270Y-47886600D01*
X89012780Y-47864421D01*
X89004515Y-47841322D01*
X88998554Y-47817523D01*
X88994954Y-47793255D01*
X88993750Y-47768751D01*
X88993750Y-47243749D01*
X88994954Y-47219245D01*
X88998554Y-47194977D01*
X89004515Y-47171178D01*
X89012780Y-47148079D01*
X89023270Y-47125900D01*
X89035882Y-47104857D01*
X89050497Y-47085151D01*
X89066973Y-47066973D01*
X89085151Y-47050497D01*
X89104857Y-47035882D01*
X89125900Y-47023270D01*
X89148079Y-47012780D01*
X89171178Y-47004515D01*
X89194977Y-46998554D01*
X89219245Y-46994954D01*
X89243749Y-46993750D01*
X90143751Y-46993750D01*
X90168255Y-46994954D01*
X90168255Y-46994954D01*
G37*
D21*
X89693750Y-47506250D03*
D20*
G36*
X90168255Y-48819954D02*
G01*
X90192523Y-48823554D01*
X90216322Y-48829515D01*
X90239421Y-48837780D01*
X90261600Y-48848270D01*
X90282643Y-48860882D01*
X90302349Y-48875497D01*
X90320527Y-48891973D01*
X90337003Y-48910151D01*
X90351618Y-48929857D01*
X90364230Y-48950900D01*
X90374720Y-48973079D01*
X90382985Y-48996178D01*
X90388946Y-49019977D01*
X90392546Y-49044245D01*
X90393750Y-49068749D01*
X90393750Y-49593751D01*
X90392546Y-49618255D01*
X90388946Y-49642523D01*
X90382985Y-49666322D01*
X90374720Y-49689421D01*
X90364230Y-49711600D01*
X90351618Y-49732643D01*
X90337003Y-49752349D01*
X90320527Y-49770527D01*
X90302349Y-49787003D01*
X90282643Y-49801618D01*
X90261600Y-49814230D01*
X90239421Y-49824720D01*
X90216322Y-49832985D01*
X90192523Y-49838946D01*
X90168255Y-49842546D01*
X90143751Y-49843750D01*
X89243749Y-49843750D01*
X89219245Y-49842546D01*
X89194977Y-49838946D01*
X89171178Y-49832985D01*
X89148079Y-49824720D01*
X89125900Y-49814230D01*
X89104857Y-49801618D01*
X89085151Y-49787003D01*
X89066973Y-49770527D01*
X89050497Y-49752349D01*
X89035882Y-49732643D01*
X89023270Y-49711600D01*
X89012780Y-49689421D01*
X89004515Y-49666322D01*
X88998554Y-49642523D01*
X88994954Y-49618255D01*
X88993750Y-49593751D01*
X88993750Y-49068749D01*
X88994954Y-49044245D01*
X88998554Y-49019977D01*
X89004515Y-48996178D01*
X89012780Y-48973079D01*
X89023270Y-48950900D01*
X89035882Y-48929857D01*
X89050497Y-48910151D01*
X89066973Y-48891973D01*
X89085151Y-48875497D01*
X89104857Y-48860882D01*
X89125900Y-48848270D01*
X89148079Y-48837780D01*
X89171178Y-48829515D01*
X89194977Y-48823554D01*
X89219245Y-48819954D01*
X89243749Y-48818750D01*
X90143751Y-48818750D01*
X90168255Y-48819954D01*
X90168255Y-48819954D01*
G37*
D21*
X89693750Y-49331250D03*
D20*
G36*
X63180755Y-35428773D02*
G01*
X63205023Y-35432373D01*
X63228822Y-35438334D01*
X63251921Y-35446599D01*
X63274100Y-35457089D01*
X63295143Y-35469701D01*
X63314849Y-35484316D01*
X63333027Y-35500792D01*
X63349503Y-35518970D01*
X63364118Y-35538676D01*
X63376730Y-35559719D01*
X63387220Y-35581898D01*
X63395485Y-35604997D01*
X63401446Y-35628796D01*
X63405046Y-35653064D01*
X63406250Y-35677568D01*
X63406250Y-36202570D01*
X63405046Y-36227074D01*
X63401446Y-36251342D01*
X63395485Y-36275141D01*
X63387220Y-36298240D01*
X63376730Y-36320419D01*
X63364118Y-36341462D01*
X63349503Y-36361168D01*
X63333027Y-36379346D01*
X63314849Y-36395822D01*
X63295143Y-36410437D01*
X63274100Y-36423049D01*
X63251921Y-36433539D01*
X63228822Y-36441804D01*
X63205023Y-36447765D01*
X63180755Y-36451365D01*
X63156251Y-36452569D01*
X62256249Y-36452569D01*
X62231745Y-36451365D01*
X62207477Y-36447765D01*
X62183678Y-36441804D01*
X62160579Y-36433539D01*
X62138400Y-36423049D01*
X62117357Y-36410437D01*
X62097651Y-36395822D01*
X62079473Y-36379346D01*
X62062997Y-36361168D01*
X62048382Y-36341462D01*
X62035770Y-36320419D01*
X62025280Y-36298240D01*
X62017015Y-36275141D01*
X62011054Y-36251342D01*
X62007454Y-36227074D01*
X62006250Y-36202570D01*
X62006250Y-35677568D01*
X62007454Y-35653064D01*
X62011054Y-35628796D01*
X62017015Y-35604997D01*
X62025280Y-35581898D01*
X62035770Y-35559719D01*
X62048382Y-35538676D01*
X62062997Y-35518970D01*
X62079473Y-35500792D01*
X62097651Y-35484316D01*
X62117357Y-35469701D01*
X62138400Y-35457089D01*
X62160579Y-35446599D01*
X62183678Y-35438334D01*
X62207477Y-35432373D01*
X62231745Y-35428773D01*
X62256249Y-35427569D01*
X63156251Y-35427569D01*
X63180755Y-35428773D01*
X63180755Y-35428773D01*
G37*
D21*
X62706250Y-35940069D03*
D20*
G36*
X63180755Y-37253773D02*
G01*
X63205023Y-37257373D01*
X63228822Y-37263334D01*
X63251921Y-37271599D01*
X63274100Y-37282089D01*
X63295143Y-37294701D01*
X63314849Y-37309316D01*
X63333027Y-37325792D01*
X63349503Y-37343970D01*
X63364118Y-37363676D01*
X63376730Y-37384719D01*
X63387220Y-37406898D01*
X63395485Y-37429997D01*
X63401446Y-37453796D01*
X63405046Y-37478064D01*
X63406250Y-37502568D01*
X63406250Y-38027570D01*
X63405046Y-38052074D01*
X63401446Y-38076342D01*
X63395485Y-38100141D01*
X63387220Y-38123240D01*
X63376730Y-38145419D01*
X63364118Y-38166462D01*
X63349503Y-38186168D01*
X63333027Y-38204346D01*
X63314849Y-38220822D01*
X63295143Y-38235437D01*
X63274100Y-38248049D01*
X63251921Y-38258539D01*
X63228822Y-38266804D01*
X63205023Y-38272765D01*
X63180755Y-38276365D01*
X63156251Y-38277569D01*
X62256249Y-38277569D01*
X62231745Y-38276365D01*
X62207477Y-38272765D01*
X62183678Y-38266804D01*
X62160579Y-38258539D01*
X62138400Y-38248049D01*
X62117357Y-38235437D01*
X62097651Y-38220822D01*
X62079473Y-38204346D01*
X62062997Y-38186168D01*
X62048382Y-38166462D01*
X62035770Y-38145419D01*
X62025280Y-38123240D01*
X62017015Y-38100141D01*
X62011054Y-38076342D01*
X62007454Y-38052074D01*
X62006250Y-38027570D01*
X62006250Y-37502568D01*
X62007454Y-37478064D01*
X62011054Y-37453796D01*
X62017015Y-37429997D01*
X62025280Y-37406898D01*
X62035770Y-37384719D01*
X62048382Y-37363676D01*
X62062997Y-37343970D01*
X62079473Y-37325792D01*
X62097651Y-37309316D01*
X62117357Y-37294701D01*
X62138400Y-37282089D01*
X62160579Y-37271599D01*
X62183678Y-37263334D01*
X62207477Y-37257373D01*
X62231745Y-37253773D01*
X62256249Y-37252569D01*
X63156251Y-37252569D01*
X63180755Y-37253773D01*
X63180755Y-37253773D01*
G37*
D21*
X62706250Y-37765069D03*
D20*
G36*
X65422396Y-35428773D02*
G01*
X65446664Y-35432373D01*
X65470463Y-35438334D01*
X65493562Y-35446599D01*
X65515741Y-35457089D01*
X65536784Y-35469701D01*
X65556490Y-35484316D01*
X65574668Y-35500792D01*
X65591144Y-35518970D01*
X65605759Y-35538676D01*
X65618371Y-35559719D01*
X65628861Y-35581898D01*
X65637126Y-35604997D01*
X65643087Y-35628796D01*
X65646687Y-35653064D01*
X65647891Y-35677568D01*
X65647891Y-36202570D01*
X65646687Y-36227074D01*
X65643087Y-36251342D01*
X65637126Y-36275141D01*
X65628861Y-36298240D01*
X65618371Y-36320419D01*
X65605759Y-36341462D01*
X65591144Y-36361168D01*
X65574668Y-36379346D01*
X65556490Y-36395822D01*
X65536784Y-36410437D01*
X65515741Y-36423049D01*
X65493562Y-36433539D01*
X65470463Y-36441804D01*
X65446664Y-36447765D01*
X65422396Y-36451365D01*
X65397892Y-36452569D01*
X64497890Y-36452569D01*
X64473386Y-36451365D01*
X64449118Y-36447765D01*
X64425319Y-36441804D01*
X64402220Y-36433539D01*
X64380041Y-36423049D01*
X64358998Y-36410437D01*
X64339292Y-36395822D01*
X64321114Y-36379346D01*
X64304638Y-36361168D01*
X64290023Y-36341462D01*
X64277411Y-36320419D01*
X64266921Y-36298240D01*
X64258656Y-36275141D01*
X64252695Y-36251342D01*
X64249095Y-36227074D01*
X64247891Y-36202570D01*
X64247891Y-35677568D01*
X64249095Y-35653064D01*
X64252695Y-35628796D01*
X64258656Y-35604997D01*
X64266921Y-35581898D01*
X64277411Y-35559719D01*
X64290023Y-35538676D01*
X64304638Y-35518970D01*
X64321114Y-35500792D01*
X64339292Y-35484316D01*
X64358998Y-35469701D01*
X64380041Y-35457089D01*
X64402220Y-35446599D01*
X64425319Y-35438334D01*
X64449118Y-35432373D01*
X64473386Y-35428773D01*
X64497890Y-35427569D01*
X65397892Y-35427569D01*
X65422396Y-35428773D01*
X65422396Y-35428773D01*
G37*
D21*
X64947891Y-35940069D03*
D20*
G36*
X65422396Y-37253773D02*
G01*
X65446664Y-37257373D01*
X65470463Y-37263334D01*
X65493562Y-37271599D01*
X65515741Y-37282089D01*
X65536784Y-37294701D01*
X65556490Y-37309316D01*
X65574668Y-37325792D01*
X65591144Y-37343970D01*
X65605759Y-37363676D01*
X65618371Y-37384719D01*
X65628861Y-37406898D01*
X65637126Y-37429997D01*
X65643087Y-37453796D01*
X65646687Y-37478064D01*
X65647891Y-37502568D01*
X65647891Y-38027570D01*
X65646687Y-38052074D01*
X65643087Y-38076342D01*
X65637126Y-38100141D01*
X65628861Y-38123240D01*
X65618371Y-38145419D01*
X65605759Y-38166462D01*
X65591144Y-38186168D01*
X65574668Y-38204346D01*
X65556490Y-38220822D01*
X65536784Y-38235437D01*
X65515741Y-38248049D01*
X65493562Y-38258539D01*
X65470463Y-38266804D01*
X65446664Y-38272765D01*
X65422396Y-38276365D01*
X65397892Y-38277569D01*
X64497890Y-38277569D01*
X64473386Y-38276365D01*
X64449118Y-38272765D01*
X64425319Y-38266804D01*
X64402220Y-38258539D01*
X64380041Y-38248049D01*
X64358998Y-38235437D01*
X64339292Y-38220822D01*
X64321114Y-38204346D01*
X64304638Y-38186168D01*
X64290023Y-38166462D01*
X64277411Y-38145419D01*
X64266921Y-38123240D01*
X64258656Y-38100141D01*
X64252695Y-38076342D01*
X64249095Y-38052074D01*
X64247891Y-38027570D01*
X64247891Y-37502568D01*
X64249095Y-37478064D01*
X64252695Y-37453796D01*
X64258656Y-37429997D01*
X64266921Y-37406898D01*
X64277411Y-37384719D01*
X64290023Y-37363676D01*
X64304638Y-37343970D01*
X64321114Y-37325792D01*
X64339292Y-37309316D01*
X64358998Y-37294701D01*
X64380041Y-37282089D01*
X64402220Y-37271599D01*
X64425319Y-37263334D01*
X64449118Y-37257373D01*
X64473386Y-37253773D01*
X64497890Y-37252569D01*
X65397892Y-37252569D01*
X65422396Y-37253773D01*
X65422396Y-37253773D01*
G37*
D21*
X64947891Y-37765069D03*
D20*
G36*
X68737005Y-36238704D02*
G01*
X68761273Y-36242304D01*
X68785072Y-36248265D01*
X68808171Y-36256530D01*
X68830350Y-36267020D01*
X68851393Y-36279632D01*
X68871099Y-36294247D01*
X68889277Y-36310723D01*
X68905753Y-36328901D01*
X68920368Y-36348607D01*
X68932980Y-36369650D01*
X68943470Y-36391829D01*
X68951735Y-36414928D01*
X68957696Y-36438727D01*
X68961296Y-36462995D01*
X68962500Y-36487499D01*
X68962500Y-37012501D01*
X68961296Y-37037005D01*
X68957696Y-37061273D01*
X68951735Y-37085072D01*
X68943470Y-37108171D01*
X68932980Y-37130350D01*
X68920368Y-37151393D01*
X68905753Y-37171099D01*
X68889277Y-37189277D01*
X68871099Y-37205753D01*
X68851393Y-37220368D01*
X68830350Y-37232980D01*
X68808171Y-37243470D01*
X68785072Y-37251735D01*
X68761273Y-37257696D01*
X68737005Y-37261296D01*
X68712501Y-37262500D01*
X67812499Y-37262500D01*
X67787995Y-37261296D01*
X67763727Y-37257696D01*
X67739928Y-37251735D01*
X67716829Y-37243470D01*
X67694650Y-37232980D01*
X67673607Y-37220368D01*
X67653901Y-37205753D01*
X67635723Y-37189277D01*
X67619247Y-37171099D01*
X67604632Y-37151393D01*
X67592020Y-37130350D01*
X67581530Y-37108171D01*
X67573265Y-37085072D01*
X67567304Y-37061273D01*
X67563704Y-37037005D01*
X67562500Y-37012501D01*
X67562500Y-36487499D01*
X67563704Y-36462995D01*
X67567304Y-36438727D01*
X67573265Y-36414928D01*
X67581530Y-36391829D01*
X67592020Y-36369650D01*
X67604632Y-36348607D01*
X67619247Y-36328901D01*
X67635723Y-36310723D01*
X67653901Y-36294247D01*
X67673607Y-36279632D01*
X67694650Y-36267020D01*
X67716829Y-36256530D01*
X67739928Y-36248265D01*
X67763727Y-36242304D01*
X67787995Y-36238704D01*
X67812499Y-36237500D01*
X68712501Y-36237500D01*
X68737005Y-36238704D01*
X68737005Y-36238704D01*
G37*
D21*
X68262500Y-36750000D03*
D20*
G36*
X68737005Y-34413704D02*
G01*
X68761273Y-34417304D01*
X68785072Y-34423265D01*
X68808171Y-34431530D01*
X68830350Y-34442020D01*
X68851393Y-34454632D01*
X68871099Y-34469247D01*
X68889277Y-34485723D01*
X68905753Y-34503901D01*
X68920368Y-34523607D01*
X68932980Y-34544650D01*
X68943470Y-34566829D01*
X68951735Y-34589928D01*
X68957696Y-34613727D01*
X68961296Y-34637995D01*
X68962500Y-34662499D01*
X68962500Y-35187501D01*
X68961296Y-35212005D01*
X68957696Y-35236273D01*
X68951735Y-35260072D01*
X68943470Y-35283171D01*
X68932980Y-35305350D01*
X68920368Y-35326393D01*
X68905753Y-35346099D01*
X68889277Y-35364277D01*
X68871099Y-35380753D01*
X68851393Y-35395368D01*
X68830350Y-35407980D01*
X68808171Y-35418470D01*
X68785072Y-35426735D01*
X68761273Y-35432696D01*
X68737005Y-35436296D01*
X68712501Y-35437500D01*
X67812499Y-35437500D01*
X67787995Y-35436296D01*
X67763727Y-35432696D01*
X67739928Y-35426735D01*
X67716829Y-35418470D01*
X67694650Y-35407980D01*
X67673607Y-35395368D01*
X67653901Y-35380753D01*
X67635723Y-35364277D01*
X67619247Y-35346099D01*
X67604632Y-35326393D01*
X67592020Y-35305350D01*
X67581530Y-35283171D01*
X67573265Y-35260072D01*
X67567304Y-35236273D01*
X67563704Y-35212005D01*
X67562500Y-35187501D01*
X67562500Y-34662499D01*
X67563704Y-34637995D01*
X67567304Y-34613727D01*
X67573265Y-34589928D01*
X67581530Y-34566829D01*
X67592020Y-34544650D01*
X67604632Y-34523607D01*
X67619247Y-34503901D01*
X67635723Y-34485723D01*
X67653901Y-34469247D01*
X67673607Y-34454632D01*
X67694650Y-34442020D01*
X67716829Y-34431530D01*
X67739928Y-34423265D01*
X67763727Y-34417304D01*
X67787995Y-34413704D01*
X67812499Y-34412500D01*
X68712501Y-34412500D01*
X68737005Y-34413704D01*
X68737005Y-34413704D01*
G37*
D21*
X68262500Y-34925000D03*
D20*
G36*
X59387004Y-36682454D02*
G01*
X59411273Y-36686054D01*
X59435071Y-36692015D01*
X59458171Y-36700280D01*
X59480349Y-36710770D01*
X59501393Y-36723383D01*
X59521098Y-36737997D01*
X59539277Y-36754473D01*
X59555753Y-36772652D01*
X59570367Y-36792357D01*
X59582980Y-36813401D01*
X59593470Y-36835579D01*
X59601735Y-36858679D01*
X59607696Y-36882477D01*
X59611296Y-36906746D01*
X59612500Y-36931250D01*
X59612500Y-37681250D01*
X59611296Y-37705754D01*
X59607696Y-37730023D01*
X59601735Y-37753821D01*
X59593470Y-37776921D01*
X59582980Y-37799099D01*
X59570367Y-37820143D01*
X59555753Y-37839848D01*
X59539277Y-37858027D01*
X59521098Y-37874503D01*
X59501393Y-37889117D01*
X59480349Y-37901730D01*
X59458171Y-37912220D01*
X59435071Y-37920485D01*
X59411273Y-37926446D01*
X59387004Y-37930046D01*
X59362500Y-37931250D01*
X58112500Y-37931250D01*
X58087996Y-37930046D01*
X58063727Y-37926446D01*
X58039929Y-37920485D01*
X58016829Y-37912220D01*
X57994651Y-37901730D01*
X57973607Y-37889117D01*
X57953902Y-37874503D01*
X57935723Y-37858027D01*
X57919247Y-37839848D01*
X57904633Y-37820143D01*
X57892020Y-37799099D01*
X57881530Y-37776921D01*
X57873265Y-37753821D01*
X57867304Y-37730023D01*
X57863704Y-37705754D01*
X57862500Y-37681250D01*
X57862500Y-36931250D01*
X57863704Y-36906746D01*
X57867304Y-36882477D01*
X57873265Y-36858679D01*
X57881530Y-36835579D01*
X57892020Y-36813401D01*
X57904633Y-36792357D01*
X57919247Y-36772652D01*
X57935723Y-36754473D01*
X57953902Y-36737997D01*
X57973607Y-36723383D01*
X57994651Y-36710770D01*
X58016829Y-36700280D01*
X58039929Y-36692015D01*
X58063727Y-36686054D01*
X58087996Y-36682454D01*
X58112500Y-36681250D01*
X59362500Y-36681250D01*
X59387004Y-36682454D01*
X59387004Y-36682454D01*
G37*
D22*
X58737500Y-37306250D03*
D20*
G36*
X59387004Y-39482454D02*
G01*
X59411273Y-39486054D01*
X59435071Y-39492015D01*
X59458171Y-39500280D01*
X59480349Y-39510770D01*
X59501393Y-39523383D01*
X59521098Y-39537997D01*
X59539277Y-39554473D01*
X59555753Y-39572652D01*
X59570367Y-39592357D01*
X59582980Y-39613401D01*
X59593470Y-39635579D01*
X59601735Y-39658679D01*
X59607696Y-39682477D01*
X59611296Y-39706746D01*
X59612500Y-39731250D01*
X59612500Y-40481250D01*
X59611296Y-40505754D01*
X59607696Y-40530023D01*
X59601735Y-40553821D01*
X59593470Y-40576921D01*
X59582980Y-40599099D01*
X59570367Y-40620143D01*
X59555753Y-40639848D01*
X59539277Y-40658027D01*
X59521098Y-40674503D01*
X59501393Y-40689117D01*
X59480349Y-40701730D01*
X59458171Y-40712220D01*
X59435071Y-40720485D01*
X59411273Y-40726446D01*
X59387004Y-40730046D01*
X59362500Y-40731250D01*
X58112500Y-40731250D01*
X58087996Y-40730046D01*
X58063727Y-40726446D01*
X58039929Y-40720485D01*
X58016829Y-40712220D01*
X57994651Y-40701730D01*
X57973607Y-40689117D01*
X57953902Y-40674503D01*
X57935723Y-40658027D01*
X57919247Y-40639848D01*
X57904633Y-40620143D01*
X57892020Y-40599099D01*
X57881530Y-40576921D01*
X57873265Y-40553821D01*
X57867304Y-40530023D01*
X57863704Y-40505754D01*
X57862500Y-40481250D01*
X57862500Y-39731250D01*
X57863704Y-39706746D01*
X57867304Y-39682477D01*
X57873265Y-39658679D01*
X57881530Y-39635579D01*
X57892020Y-39613401D01*
X57904633Y-39592357D01*
X57919247Y-39572652D01*
X57935723Y-39554473D01*
X57953902Y-39537997D01*
X57973607Y-39523383D01*
X57994651Y-39510770D01*
X58016829Y-39500280D01*
X58039929Y-39492015D01*
X58063727Y-39486054D01*
X58087996Y-39482454D01*
X58112500Y-39481250D01*
X59362500Y-39481250D01*
X59387004Y-39482454D01*
X59387004Y-39482454D01*
G37*
D22*
X58737500Y-40106250D03*
D23*
X129381250Y-52325000D03*
X129381250Y-55625000D03*
X110331250Y-52262500D03*
X110331250Y-55562500D03*
X129381250Y-33212500D03*
X129381250Y-36512500D03*
X110331250Y-33212500D03*
X110331250Y-36512500D03*
D20*
G36*
X70349504Y-48232454D02*
G01*
X70373773Y-48236054D01*
X70397571Y-48242015D01*
X70420671Y-48250280D01*
X70442849Y-48260770D01*
X70463893Y-48273383D01*
X70483598Y-48287997D01*
X70501777Y-48304473D01*
X70518253Y-48322652D01*
X70532867Y-48342357D01*
X70545480Y-48363401D01*
X70555970Y-48385579D01*
X70564235Y-48408679D01*
X70570196Y-48432477D01*
X70573796Y-48456746D01*
X70575000Y-48481250D01*
X70575000Y-48981250D01*
X70573796Y-49005754D01*
X70570196Y-49030023D01*
X70564235Y-49053821D01*
X70555970Y-49076921D01*
X70545480Y-49099099D01*
X70532867Y-49120143D01*
X70518253Y-49139848D01*
X70501777Y-49158027D01*
X70483598Y-49174503D01*
X70463893Y-49189117D01*
X70442849Y-49201730D01*
X70420671Y-49212220D01*
X70397571Y-49220485D01*
X70373773Y-49226446D01*
X70349504Y-49230046D01*
X70325000Y-49231250D01*
X69375000Y-49231250D01*
X69350496Y-49230046D01*
X69326227Y-49226446D01*
X69302429Y-49220485D01*
X69279329Y-49212220D01*
X69257151Y-49201730D01*
X69236107Y-49189117D01*
X69216402Y-49174503D01*
X69198223Y-49158027D01*
X69181747Y-49139848D01*
X69167133Y-49120143D01*
X69154520Y-49099099D01*
X69144030Y-49076921D01*
X69135765Y-49053821D01*
X69129804Y-49030023D01*
X69126204Y-49005754D01*
X69125000Y-48981250D01*
X69125000Y-48481250D01*
X69126204Y-48456746D01*
X69129804Y-48432477D01*
X69135765Y-48408679D01*
X69144030Y-48385579D01*
X69154520Y-48363401D01*
X69167133Y-48342357D01*
X69181747Y-48322652D01*
X69198223Y-48304473D01*
X69216402Y-48287997D01*
X69236107Y-48273383D01*
X69257151Y-48260770D01*
X69279329Y-48250280D01*
X69302429Y-48242015D01*
X69326227Y-48236054D01*
X69350496Y-48232454D01*
X69375000Y-48231250D01*
X70325000Y-48231250D01*
X70349504Y-48232454D01*
X70349504Y-48232454D01*
G37*
D24*
X69850000Y-48731250D03*
D20*
G36*
X70349504Y-46332454D02*
G01*
X70373773Y-46336054D01*
X70397571Y-46342015D01*
X70420671Y-46350280D01*
X70442849Y-46360770D01*
X70463893Y-46373383D01*
X70483598Y-46387997D01*
X70501777Y-46404473D01*
X70518253Y-46422652D01*
X70532867Y-46442357D01*
X70545480Y-46463401D01*
X70555970Y-46485579D01*
X70564235Y-46508679D01*
X70570196Y-46532477D01*
X70573796Y-46556746D01*
X70575000Y-46581250D01*
X70575000Y-47081250D01*
X70573796Y-47105754D01*
X70570196Y-47130023D01*
X70564235Y-47153821D01*
X70555970Y-47176921D01*
X70545480Y-47199099D01*
X70532867Y-47220143D01*
X70518253Y-47239848D01*
X70501777Y-47258027D01*
X70483598Y-47274503D01*
X70463893Y-47289117D01*
X70442849Y-47301730D01*
X70420671Y-47312220D01*
X70397571Y-47320485D01*
X70373773Y-47326446D01*
X70349504Y-47330046D01*
X70325000Y-47331250D01*
X69375000Y-47331250D01*
X69350496Y-47330046D01*
X69326227Y-47326446D01*
X69302429Y-47320485D01*
X69279329Y-47312220D01*
X69257151Y-47301730D01*
X69236107Y-47289117D01*
X69216402Y-47274503D01*
X69198223Y-47258027D01*
X69181747Y-47239848D01*
X69167133Y-47220143D01*
X69154520Y-47199099D01*
X69144030Y-47176921D01*
X69135765Y-47153821D01*
X69129804Y-47130023D01*
X69126204Y-47105754D01*
X69125000Y-47081250D01*
X69125000Y-46581250D01*
X69126204Y-46556746D01*
X69129804Y-46532477D01*
X69135765Y-46508679D01*
X69144030Y-46485579D01*
X69154520Y-46463401D01*
X69167133Y-46442357D01*
X69181747Y-46422652D01*
X69198223Y-46404473D01*
X69216402Y-46387997D01*
X69236107Y-46373383D01*
X69257151Y-46360770D01*
X69279329Y-46350280D01*
X69302429Y-46342015D01*
X69326227Y-46336054D01*
X69350496Y-46332454D01*
X69375000Y-46331250D01*
X70325000Y-46331250D01*
X70349504Y-46332454D01*
X70349504Y-46332454D01*
G37*
D24*
X69850000Y-46831250D03*
D20*
G36*
X83699504Y-51901204D02*
G01*
X83723773Y-51904804D01*
X83747571Y-51910765D01*
X83770671Y-51919030D01*
X83792849Y-51929520D01*
X83813893Y-51942133D01*
X83833598Y-51956747D01*
X83851777Y-51973223D01*
X83868253Y-51991402D01*
X83882867Y-52011107D01*
X83895480Y-52032151D01*
X83905970Y-52054329D01*
X83914235Y-52077429D01*
X83920196Y-52101227D01*
X83923796Y-52125496D01*
X83925000Y-52150000D01*
X83925000Y-53100000D01*
X83923796Y-53124504D01*
X83920196Y-53148773D01*
X83914235Y-53172571D01*
X83905970Y-53195671D01*
X83895480Y-53217849D01*
X83882867Y-53238893D01*
X83868253Y-53258598D01*
X83851777Y-53276777D01*
X83833598Y-53293253D01*
X83813893Y-53307867D01*
X83792849Y-53320480D01*
X83770671Y-53330970D01*
X83747571Y-53339235D01*
X83723773Y-53345196D01*
X83699504Y-53348796D01*
X83675000Y-53350000D01*
X83175000Y-53350000D01*
X83150496Y-53348796D01*
X83126227Y-53345196D01*
X83102429Y-53339235D01*
X83079329Y-53330970D01*
X83057151Y-53320480D01*
X83036107Y-53307867D01*
X83016402Y-53293253D01*
X82998223Y-53276777D01*
X82981747Y-53258598D01*
X82967133Y-53238893D01*
X82954520Y-53217849D01*
X82944030Y-53195671D01*
X82935765Y-53172571D01*
X82929804Y-53148773D01*
X82926204Y-53124504D01*
X82925000Y-53100000D01*
X82925000Y-52150000D01*
X82926204Y-52125496D01*
X82929804Y-52101227D01*
X82935765Y-52077429D01*
X82944030Y-52054329D01*
X82954520Y-52032151D01*
X82967133Y-52011107D01*
X82981747Y-51991402D01*
X82998223Y-51973223D01*
X83016402Y-51956747D01*
X83036107Y-51942133D01*
X83057151Y-51929520D01*
X83079329Y-51919030D01*
X83102429Y-51910765D01*
X83126227Y-51904804D01*
X83150496Y-51901204D01*
X83175000Y-51900000D01*
X83675000Y-51900000D01*
X83699504Y-51901204D01*
X83699504Y-51901204D01*
G37*
D24*
X83425000Y-52625000D03*
D20*
G36*
X85599504Y-51901204D02*
G01*
X85623773Y-51904804D01*
X85647571Y-51910765D01*
X85670671Y-51919030D01*
X85692849Y-51929520D01*
X85713893Y-51942133D01*
X85733598Y-51956747D01*
X85751777Y-51973223D01*
X85768253Y-51991402D01*
X85782867Y-52011107D01*
X85795480Y-52032151D01*
X85805970Y-52054329D01*
X85814235Y-52077429D01*
X85820196Y-52101227D01*
X85823796Y-52125496D01*
X85825000Y-52150000D01*
X85825000Y-53100000D01*
X85823796Y-53124504D01*
X85820196Y-53148773D01*
X85814235Y-53172571D01*
X85805970Y-53195671D01*
X85795480Y-53217849D01*
X85782867Y-53238893D01*
X85768253Y-53258598D01*
X85751777Y-53276777D01*
X85733598Y-53293253D01*
X85713893Y-53307867D01*
X85692849Y-53320480D01*
X85670671Y-53330970D01*
X85647571Y-53339235D01*
X85623773Y-53345196D01*
X85599504Y-53348796D01*
X85575000Y-53350000D01*
X85075000Y-53350000D01*
X85050496Y-53348796D01*
X85026227Y-53345196D01*
X85002429Y-53339235D01*
X84979329Y-53330970D01*
X84957151Y-53320480D01*
X84936107Y-53307867D01*
X84916402Y-53293253D01*
X84898223Y-53276777D01*
X84881747Y-53258598D01*
X84867133Y-53238893D01*
X84854520Y-53217849D01*
X84844030Y-53195671D01*
X84835765Y-53172571D01*
X84829804Y-53148773D01*
X84826204Y-53124504D01*
X84825000Y-53100000D01*
X84825000Y-52150000D01*
X84826204Y-52125496D01*
X84829804Y-52101227D01*
X84835765Y-52077429D01*
X84844030Y-52054329D01*
X84854520Y-52032151D01*
X84867133Y-52011107D01*
X84881747Y-51991402D01*
X84898223Y-51973223D01*
X84916402Y-51956747D01*
X84936107Y-51942133D01*
X84957151Y-51929520D01*
X84979329Y-51919030D01*
X85002429Y-51910765D01*
X85026227Y-51904804D01*
X85050496Y-51901204D01*
X85075000Y-51900000D01*
X85575000Y-51900000D01*
X85599504Y-51901204D01*
X85599504Y-51901204D01*
G37*
D24*
X85325000Y-52625000D03*
D20*
G36*
X90430754Y-36888704D02*
G01*
X90455023Y-36892304D01*
X90478821Y-36898265D01*
X90501921Y-36906530D01*
X90524099Y-36917020D01*
X90545143Y-36929633D01*
X90564848Y-36944247D01*
X90583027Y-36960723D01*
X90599503Y-36978902D01*
X90614117Y-36998607D01*
X90626730Y-37019651D01*
X90637220Y-37041829D01*
X90645485Y-37064929D01*
X90651446Y-37088727D01*
X90655046Y-37112996D01*
X90656250Y-37137500D01*
X90656250Y-37637500D01*
X90655046Y-37662004D01*
X90651446Y-37686273D01*
X90645485Y-37710071D01*
X90637220Y-37733171D01*
X90626730Y-37755349D01*
X90614117Y-37776393D01*
X90599503Y-37796098D01*
X90583027Y-37814277D01*
X90564848Y-37830753D01*
X90545143Y-37845367D01*
X90524099Y-37857980D01*
X90501921Y-37868470D01*
X90478821Y-37876735D01*
X90455023Y-37882696D01*
X90430754Y-37886296D01*
X90406250Y-37887500D01*
X89456250Y-37887500D01*
X89431746Y-37886296D01*
X89407477Y-37882696D01*
X89383679Y-37876735D01*
X89360579Y-37868470D01*
X89338401Y-37857980D01*
X89317357Y-37845367D01*
X89297652Y-37830753D01*
X89279473Y-37814277D01*
X89262997Y-37796098D01*
X89248383Y-37776393D01*
X89235770Y-37755349D01*
X89225280Y-37733171D01*
X89217015Y-37710071D01*
X89211054Y-37686273D01*
X89207454Y-37662004D01*
X89206250Y-37637500D01*
X89206250Y-37137500D01*
X89207454Y-37112996D01*
X89211054Y-37088727D01*
X89217015Y-37064929D01*
X89225280Y-37041829D01*
X89235770Y-37019651D01*
X89248383Y-36998607D01*
X89262997Y-36978902D01*
X89279473Y-36960723D01*
X89297652Y-36944247D01*
X89317357Y-36929633D01*
X89338401Y-36917020D01*
X89360579Y-36906530D01*
X89383679Y-36898265D01*
X89407477Y-36892304D01*
X89431746Y-36888704D01*
X89456250Y-36887500D01*
X90406250Y-36887500D01*
X90430754Y-36888704D01*
X90430754Y-36888704D01*
G37*
D24*
X89931250Y-37387500D03*
D20*
G36*
X90430754Y-38788704D02*
G01*
X90455023Y-38792304D01*
X90478821Y-38798265D01*
X90501921Y-38806530D01*
X90524099Y-38817020D01*
X90545143Y-38829633D01*
X90564848Y-38844247D01*
X90583027Y-38860723D01*
X90599503Y-38878902D01*
X90614117Y-38898607D01*
X90626730Y-38919651D01*
X90637220Y-38941829D01*
X90645485Y-38964929D01*
X90651446Y-38988727D01*
X90655046Y-39012996D01*
X90656250Y-39037500D01*
X90656250Y-39537500D01*
X90655046Y-39562004D01*
X90651446Y-39586273D01*
X90645485Y-39610071D01*
X90637220Y-39633171D01*
X90626730Y-39655349D01*
X90614117Y-39676393D01*
X90599503Y-39696098D01*
X90583027Y-39714277D01*
X90564848Y-39730753D01*
X90545143Y-39745367D01*
X90524099Y-39757980D01*
X90501921Y-39768470D01*
X90478821Y-39776735D01*
X90455023Y-39782696D01*
X90430754Y-39786296D01*
X90406250Y-39787500D01*
X89456250Y-39787500D01*
X89431746Y-39786296D01*
X89407477Y-39782696D01*
X89383679Y-39776735D01*
X89360579Y-39768470D01*
X89338401Y-39757980D01*
X89317357Y-39745367D01*
X89297652Y-39730753D01*
X89279473Y-39714277D01*
X89262997Y-39696098D01*
X89248383Y-39676393D01*
X89235770Y-39655349D01*
X89225280Y-39633171D01*
X89217015Y-39610071D01*
X89211054Y-39586273D01*
X89207454Y-39562004D01*
X89206250Y-39537500D01*
X89206250Y-39037500D01*
X89207454Y-39012996D01*
X89211054Y-38988727D01*
X89217015Y-38964929D01*
X89225280Y-38941829D01*
X89235770Y-38919651D01*
X89248383Y-38898607D01*
X89262997Y-38878902D01*
X89279473Y-38860723D01*
X89297652Y-38844247D01*
X89317357Y-38829633D01*
X89338401Y-38817020D01*
X89360579Y-38806530D01*
X89383679Y-38798265D01*
X89407477Y-38792304D01*
X89431746Y-38788704D01*
X89456250Y-38787500D01*
X90406250Y-38787500D01*
X90430754Y-38788704D01*
X90430754Y-38788704D01*
G37*
D24*
X89931250Y-39287500D03*
D20*
G36*
X71937004Y-34426204D02*
G01*
X71961273Y-34429804D01*
X71985071Y-34435765D01*
X72008171Y-34444030D01*
X72030349Y-34454520D01*
X72051393Y-34467133D01*
X72071098Y-34481747D01*
X72089277Y-34498223D01*
X72105753Y-34516402D01*
X72120367Y-34536107D01*
X72132980Y-34557151D01*
X72143470Y-34579329D01*
X72151735Y-34602429D01*
X72157696Y-34626227D01*
X72161296Y-34650496D01*
X72162500Y-34675000D01*
X72162500Y-35175000D01*
X72161296Y-35199504D01*
X72157696Y-35223773D01*
X72151735Y-35247571D01*
X72143470Y-35270671D01*
X72132980Y-35292849D01*
X72120367Y-35313893D01*
X72105753Y-35333598D01*
X72089277Y-35351777D01*
X72071098Y-35368253D01*
X72051393Y-35382867D01*
X72030349Y-35395480D01*
X72008171Y-35405970D01*
X71985071Y-35414235D01*
X71961273Y-35420196D01*
X71937004Y-35423796D01*
X71912500Y-35425000D01*
X70962500Y-35425000D01*
X70937996Y-35423796D01*
X70913727Y-35420196D01*
X70889929Y-35414235D01*
X70866829Y-35405970D01*
X70844651Y-35395480D01*
X70823607Y-35382867D01*
X70803902Y-35368253D01*
X70785723Y-35351777D01*
X70769247Y-35333598D01*
X70754633Y-35313893D01*
X70742020Y-35292849D01*
X70731530Y-35270671D01*
X70723265Y-35247571D01*
X70717304Y-35223773D01*
X70713704Y-35199504D01*
X70712500Y-35175000D01*
X70712500Y-34675000D01*
X70713704Y-34650496D01*
X70717304Y-34626227D01*
X70723265Y-34602429D01*
X70731530Y-34579329D01*
X70742020Y-34557151D01*
X70754633Y-34536107D01*
X70769247Y-34516402D01*
X70785723Y-34498223D01*
X70803902Y-34481747D01*
X70823607Y-34467133D01*
X70844651Y-34454520D01*
X70866829Y-34444030D01*
X70889929Y-34435765D01*
X70913727Y-34429804D01*
X70937996Y-34426204D01*
X70962500Y-34425000D01*
X71912500Y-34425000D01*
X71937004Y-34426204D01*
X71937004Y-34426204D01*
G37*
D24*
X71437500Y-34925000D03*
D20*
G36*
X71937004Y-36326204D02*
G01*
X71961273Y-36329804D01*
X71985071Y-36335765D01*
X72008171Y-36344030D01*
X72030349Y-36354520D01*
X72051393Y-36367133D01*
X72071098Y-36381747D01*
X72089277Y-36398223D01*
X72105753Y-36416402D01*
X72120367Y-36436107D01*
X72132980Y-36457151D01*
X72143470Y-36479329D01*
X72151735Y-36502429D01*
X72157696Y-36526227D01*
X72161296Y-36550496D01*
X72162500Y-36575000D01*
X72162500Y-37075000D01*
X72161296Y-37099504D01*
X72157696Y-37123773D01*
X72151735Y-37147571D01*
X72143470Y-37170671D01*
X72132980Y-37192849D01*
X72120367Y-37213893D01*
X72105753Y-37233598D01*
X72089277Y-37251777D01*
X72071098Y-37268253D01*
X72051393Y-37282867D01*
X72030349Y-37295480D01*
X72008171Y-37305970D01*
X71985071Y-37314235D01*
X71961273Y-37320196D01*
X71937004Y-37323796D01*
X71912500Y-37325000D01*
X70962500Y-37325000D01*
X70937996Y-37323796D01*
X70913727Y-37320196D01*
X70889929Y-37314235D01*
X70866829Y-37305970D01*
X70844651Y-37295480D01*
X70823607Y-37282867D01*
X70803902Y-37268253D01*
X70785723Y-37251777D01*
X70769247Y-37233598D01*
X70754633Y-37213893D01*
X70742020Y-37192849D01*
X70731530Y-37170671D01*
X70723265Y-37147571D01*
X70717304Y-37123773D01*
X70713704Y-37099504D01*
X70712500Y-37075000D01*
X70712500Y-36575000D01*
X70713704Y-36550496D01*
X70717304Y-36526227D01*
X70723265Y-36502429D01*
X70731530Y-36479329D01*
X70742020Y-36457151D01*
X70754633Y-36436107D01*
X70769247Y-36416402D01*
X70785723Y-36398223D01*
X70803902Y-36381747D01*
X70823607Y-36367133D01*
X70844651Y-36354520D01*
X70866829Y-36344030D01*
X70889929Y-36335765D01*
X70913727Y-36329804D01*
X70937996Y-36326204D01*
X70962500Y-36325000D01*
X71912500Y-36325000D01*
X71937004Y-36326204D01*
X71937004Y-36326204D01*
G37*
D24*
X71437500Y-36825000D03*
D20*
G36*
X70205754Y-41582454D02*
G01*
X70230023Y-41586054D01*
X70253821Y-41592015D01*
X70276921Y-41600280D01*
X70299099Y-41610770D01*
X70320143Y-41623383D01*
X70339848Y-41637997D01*
X70358027Y-41654473D01*
X70374503Y-41672652D01*
X70389117Y-41692357D01*
X70401730Y-41713401D01*
X70412220Y-41735579D01*
X70420485Y-41758679D01*
X70426446Y-41782477D01*
X70430046Y-41806746D01*
X70431250Y-41831250D01*
X70431250Y-42781250D01*
X70430046Y-42805754D01*
X70426446Y-42830023D01*
X70420485Y-42853821D01*
X70412220Y-42876921D01*
X70401730Y-42899099D01*
X70389117Y-42920143D01*
X70374503Y-42939848D01*
X70358027Y-42958027D01*
X70339848Y-42974503D01*
X70320143Y-42989117D01*
X70299099Y-43001730D01*
X70276921Y-43012220D01*
X70253821Y-43020485D01*
X70230023Y-43026446D01*
X70205754Y-43030046D01*
X70181250Y-43031250D01*
X69681250Y-43031250D01*
X69656746Y-43030046D01*
X69632477Y-43026446D01*
X69608679Y-43020485D01*
X69585579Y-43012220D01*
X69563401Y-43001730D01*
X69542357Y-42989117D01*
X69522652Y-42974503D01*
X69504473Y-42958027D01*
X69487997Y-42939848D01*
X69473383Y-42920143D01*
X69460770Y-42899099D01*
X69450280Y-42876921D01*
X69442015Y-42853821D01*
X69436054Y-42830023D01*
X69432454Y-42805754D01*
X69431250Y-42781250D01*
X69431250Y-41831250D01*
X69432454Y-41806746D01*
X69436054Y-41782477D01*
X69442015Y-41758679D01*
X69450280Y-41735579D01*
X69460770Y-41713401D01*
X69473383Y-41692357D01*
X69487997Y-41672652D01*
X69504473Y-41654473D01*
X69522652Y-41637997D01*
X69542357Y-41623383D01*
X69563401Y-41610770D01*
X69585579Y-41600280D01*
X69608679Y-41592015D01*
X69632477Y-41586054D01*
X69656746Y-41582454D01*
X69681250Y-41581250D01*
X70181250Y-41581250D01*
X70205754Y-41582454D01*
X70205754Y-41582454D01*
G37*
D24*
X69931250Y-42306250D03*
D20*
G36*
X72105754Y-41582454D02*
G01*
X72130023Y-41586054D01*
X72153821Y-41592015D01*
X72176921Y-41600280D01*
X72199099Y-41610770D01*
X72220143Y-41623383D01*
X72239848Y-41637997D01*
X72258027Y-41654473D01*
X72274503Y-41672652D01*
X72289117Y-41692357D01*
X72301730Y-41713401D01*
X72312220Y-41735579D01*
X72320485Y-41758679D01*
X72326446Y-41782477D01*
X72330046Y-41806746D01*
X72331250Y-41831250D01*
X72331250Y-42781250D01*
X72330046Y-42805754D01*
X72326446Y-42830023D01*
X72320485Y-42853821D01*
X72312220Y-42876921D01*
X72301730Y-42899099D01*
X72289117Y-42920143D01*
X72274503Y-42939848D01*
X72258027Y-42958027D01*
X72239848Y-42974503D01*
X72220143Y-42989117D01*
X72199099Y-43001730D01*
X72176921Y-43012220D01*
X72153821Y-43020485D01*
X72130023Y-43026446D01*
X72105754Y-43030046D01*
X72081250Y-43031250D01*
X71581250Y-43031250D01*
X71556746Y-43030046D01*
X71532477Y-43026446D01*
X71508679Y-43020485D01*
X71485579Y-43012220D01*
X71463401Y-43001730D01*
X71442357Y-42989117D01*
X71422652Y-42974503D01*
X71404473Y-42958027D01*
X71387997Y-42939848D01*
X71373383Y-42920143D01*
X71360770Y-42899099D01*
X71350280Y-42876921D01*
X71342015Y-42853821D01*
X71336054Y-42830023D01*
X71332454Y-42805754D01*
X71331250Y-42781250D01*
X71331250Y-41831250D01*
X71332454Y-41806746D01*
X71336054Y-41782477D01*
X71342015Y-41758679D01*
X71350280Y-41735579D01*
X71360770Y-41713401D01*
X71373383Y-41692357D01*
X71387997Y-41672652D01*
X71404473Y-41654473D01*
X71422652Y-41637997D01*
X71442357Y-41623383D01*
X71463401Y-41610770D01*
X71485579Y-41600280D01*
X71508679Y-41592015D01*
X71532477Y-41586054D01*
X71556746Y-41582454D01*
X71581250Y-41581250D01*
X72081250Y-41581250D01*
X72105754Y-41582454D01*
X72105754Y-41582454D01*
G37*
D24*
X71831250Y-42306250D03*
D20*
G36*
X75349504Y-31644954D02*
G01*
X75373773Y-31648554D01*
X75397571Y-31654515D01*
X75420671Y-31662780D01*
X75442849Y-31673270D01*
X75463893Y-31685883D01*
X75483598Y-31700497D01*
X75501777Y-31716973D01*
X75518253Y-31735152D01*
X75532867Y-31754857D01*
X75545480Y-31775901D01*
X75555970Y-31798079D01*
X75564235Y-31821179D01*
X75570196Y-31844977D01*
X75573796Y-31869246D01*
X75575000Y-31893750D01*
X75575000Y-32393750D01*
X75573796Y-32418254D01*
X75570196Y-32442523D01*
X75564235Y-32466321D01*
X75555970Y-32489421D01*
X75545480Y-32511599D01*
X75532867Y-32532643D01*
X75518253Y-32552348D01*
X75501777Y-32570527D01*
X75483598Y-32587003D01*
X75463893Y-32601617D01*
X75442849Y-32614230D01*
X75420671Y-32624720D01*
X75397571Y-32632985D01*
X75373773Y-32638946D01*
X75349504Y-32642546D01*
X75325000Y-32643750D01*
X74375000Y-32643750D01*
X74350496Y-32642546D01*
X74326227Y-32638946D01*
X74302429Y-32632985D01*
X74279329Y-32624720D01*
X74257151Y-32614230D01*
X74236107Y-32601617D01*
X74216402Y-32587003D01*
X74198223Y-32570527D01*
X74181747Y-32552348D01*
X74167133Y-32532643D01*
X74154520Y-32511599D01*
X74144030Y-32489421D01*
X74135765Y-32466321D01*
X74129804Y-32442523D01*
X74126204Y-32418254D01*
X74125000Y-32393750D01*
X74125000Y-31893750D01*
X74126204Y-31869246D01*
X74129804Y-31844977D01*
X74135765Y-31821179D01*
X74144030Y-31798079D01*
X74154520Y-31775901D01*
X74167133Y-31754857D01*
X74181747Y-31735152D01*
X74198223Y-31716973D01*
X74216402Y-31700497D01*
X74236107Y-31685883D01*
X74257151Y-31673270D01*
X74279329Y-31662780D01*
X74302429Y-31654515D01*
X74326227Y-31648554D01*
X74350496Y-31644954D01*
X74375000Y-31643750D01*
X75325000Y-31643750D01*
X75349504Y-31644954D01*
X75349504Y-31644954D01*
G37*
D24*
X74850000Y-32143750D03*
D20*
G36*
X75349504Y-29744954D02*
G01*
X75373773Y-29748554D01*
X75397571Y-29754515D01*
X75420671Y-29762780D01*
X75442849Y-29773270D01*
X75463893Y-29785883D01*
X75483598Y-29800497D01*
X75501777Y-29816973D01*
X75518253Y-29835152D01*
X75532867Y-29854857D01*
X75545480Y-29875901D01*
X75555970Y-29898079D01*
X75564235Y-29921179D01*
X75570196Y-29944977D01*
X75573796Y-29969246D01*
X75575000Y-29993750D01*
X75575000Y-30493750D01*
X75573796Y-30518254D01*
X75570196Y-30542523D01*
X75564235Y-30566321D01*
X75555970Y-30589421D01*
X75545480Y-30611599D01*
X75532867Y-30632643D01*
X75518253Y-30652348D01*
X75501777Y-30670527D01*
X75483598Y-30687003D01*
X75463893Y-30701617D01*
X75442849Y-30714230D01*
X75420671Y-30724720D01*
X75397571Y-30732985D01*
X75373773Y-30738946D01*
X75349504Y-30742546D01*
X75325000Y-30743750D01*
X74375000Y-30743750D01*
X74350496Y-30742546D01*
X74326227Y-30738946D01*
X74302429Y-30732985D01*
X74279329Y-30724720D01*
X74257151Y-30714230D01*
X74236107Y-30701617D01*
X74216402Y-30687003D01*
X74198223Y-30670527D01*
X74181747Y-30652348D01*
X74167133Y-30632643D01*
X74154520Y-30611599D01*
X74144030Y-30589421D01*
X74135765Y-30566321D01*
X74129804Y-30542523D01*
X74126204Y-30518254D01*
X74125000Y-30493750D01*
X74125000Y-29993750D01*
X74126204Y-29969246D01*
X74129804Y-29944977D01*
X74135765Y-29921179D01*
X74144030Y-29898079D01*
X74154520Y-29875901D01*
X74167133Y-29854857D01*
X74181747Y-29835152D01*
X74198223Y-29816973D01*
X74216402Y-29800497D01*
X74236107Y-29785883D01*
X74257151Y-29773270D01*
X74279329Y-29762780D01*
X74302429Y-29754515D01*
X74326227Y-29748554D01*
X74350496Y-29744954D01*
X74375000Y-29743750D01*
X75325000Y-29743750D01*
X75349504Y-29744954D01*
X75349504Y-29744954D01*
G37*
D24*
X74850000Y-30243750D03*
D20*
G36*
X84874504Y-29744954D02*
G01*
X84898773Y-29748554D01*
X84922571Y-29754515D01*
X84945671Y-29762780D01*
X84967849Y-29773270D01*
X84988893Y-29785883D01*
X85008598Y-29800497D01*
X85026777Y-29816973D01*
X85043253Y-29835152D01*
X85057867Y-29854857D01*
X85070480Y-29875901D01*
X85080970Y-29898079D01*
X85089235Y-29921179D01*
X85095196Y-29944977D01*
X85098796Y-29969246D01*
X85100000Y-29993750D01*
X85100000Y-30493750D01*
X85098796Y-30518254D01*
X85095196Y-30542523D01*
X85089235Y-30566321D01*
X85080970Y-30589421D01*
X85070480Y-30611599D01*
X85057867Y-30632643D01*
X85043253Y-30652348D01*
X85026777Y-30670527D01*
X85008598Y-30687003D01*
X84988893Y-30701617D01*
X84967849Y-30714230D01*
X84945671Y-30724720D01*
X84922571Y-30732985D01*
X84898773Y-30738946D01*
X84874504Y-30742546D01*
X84850000Y-30743750D01*
X83900000Y-30743750D01*
X83875496Y-30742546D01*
X83851227Y-30738946D01*
X83827429Y-30732985D01*
X83804329Y-30724720D01*
X83782151Y-30714230D01*
X83761107Y-30701617D01*
X83741402Y-30687003D01*
X83723223Y-30670527D01*
X83706747Y-30652348D01*
X83692133Y-30632643D01*
X83679520Y-30611599D01*
X83669030Y-30589421D01*
X83660765Y-30566321D01*
X83654804Y-30542523D01*
X83651204Y-30518254D01*
X83650000Y-30493750D01*
X83650000Y-29993750D01*
X83651204Y-29969246D01*
X83654804Y-29944977D01*
X83660765Y-29921179D01*
X83669030Y-29898079D01*
X83679520Y-29875901D01*
X83692133Y-29854857D01*
X83706747Y-29835152D01*
X83723223Y-29816973D01*
X83741402Y-29800497D01*
X83761107Y-29785883D01*
X83782151Y-29773270D01*
X83804329Y-29762780D01*
X83827429Y-29754515D01*
X83851227Y-29748554D01*
X83875496Y-29744954D01*
X83900000Y-29743750D01*
X84850000Y-29743750D01*
X84874504Y-29744954D01*
X84874504Y-29744954D01*
G37*
D24*
X84375000Y-30243750D03*
D20*
G36*
X84874504Y-31644954D02*
G01*
X84898773Y-31648554D01*
X84922571Y-31654515D01*
X84945671Y-31662780D01*
X84967849Y-31673270D01*
X84988893Y-31685883D01*
X85008598Y-31700497D01*
X85026777Y-31716973D01*
X85043253Y-31735152D01*
X85057867Y-31754857D01*
X85070480Y-31775901D01*
X85080970Y-31798079D01*
X85089235Y-31821179D01*
X85095196Y-31844977D01*
X85098796Y-31869246D01*
X85100000Y-31893750D01*
X85100000Y-32393750D01*
X85098796Y-32418254D01*
X85095196Y-32442523D01*
X85089235Y-32466321D01*
X85080970Y-32489421D01*
X85070480Y-32511599D01*
X85057867Y-32532643D01*
X85043253Y-32552348D01*
X85026777Y-32570527D01*
X85008598Y-32587003D01*
X84988893Y-32601617D01*
X84967849Y-32614230D01*
X84945671Y-32624720D01*
X84922571Y-32632985D01*
X84898773Y-32638946D01*
X84874504Y-32642546D01*
X84850000Y-32643750D01*
X83900000Y-32643750D01*
X83875496Y-32642546D01*
X83851227Y-32638946D01*
X83827429Y-32632985D01*
X83804329Y-32624720D01*
X83782151Y-32614230D01*
X83761107Y-32601617D01*
X83741402Y-32587003D01*
X83723223Y-32570527D01*
X83706747Y-32552348D01*
X83692133Y-32532643D01*
X83679520Y-32511599D01*
X83669030Y-32489421D01*
X83660765Y-32466321D01*
X83654804Y-32442523D01*
X83651204Y-32418254D01*
X83650000Y-32393750D01*
X83650000Y-31893750D01*
X83651204Y-31869246D01*
X83654804Y-31844977D01*
X83660765Y-31821179D01*
X83669030Y-31798079D01*
X83679520Y-31775901D01*
X83692133Y-31754857D01*
X83706747Y-31735152D01*
X83723223Y-31716973D01*
X83741402Y-31700497D01*
X83761107Y-31685883D01*
X83782151Y-31673270D01*
X83804329Y-31662780D01*
X83827429Y-31654515D01*
X83851227Y-31648554D01*
X83875496Y-31644954D01*
X83900000Y-31643750D01*
X84850000Y-31643750D01*
X84874504Y-31644954D01*
X84874504Y-31644954D01*
G37*
D24*
X84375000Y-32143750D03*
D25*
X72762500Y-46300000D03*
X69850000Y-34925000D03*
X72762500Y-46300000D03*
X87312500Y-52387500D03*
X91281250Y-39687500D03*
X72762500Y-41012500D03*
X68262500Y-38893750D03*
X66675000Y-53181250D03*
D26*
X78806250Y-37400000D02*
X78806250Y-35943750D01*
X78806250Y-35943750D02*
X77787500Y-34925000D01*
X77787500Y-34925000D02*
X71437500Y-34925000D01*
X77631250Y-34925000D02*
X74850000Y-32143750D01*
X77787500Y-34925000D02*
X77631250Y-34925000D01*
X72625000Y-32143750D02*
X74850000Y-32143750D01*
X71437500Y-30956250D02*
X72625000Y-32143750D01*
X71437500Y-29368750D02*
X71437500Y-30956250D01*
X72231250Y-28575000D02*
X71437500Y-29368750D01*
X80168750Y-28575000D02*
X72231250Y-28575000D01*
X80712500Y-29118750D02*
X80168750Y-28575000D01*
X80712500Y-30343750D02*
X80712500Y-29118750D01*
X84275000Y-30343750D02*
X84375000Y-30243750D01*
X80712500Y-30343750D02*
X84275000Y-30343750D01*
D27*
X80612500Y-30343750D02*
X80712500Y-30343750D01*
X78912500Y-32043750D02*
X80612500Y-30343750D01*
X78512500Y-32043750D02*
X78912500Y-32043750D01*
D26*
X69931250Y-42306250D02*
X69931250Y-43575000D01*
X70256250Y-43900000D02*
X74706250Y-43900000D01*
X69931250Y-43575000D02*
X70256250Y-43900000D01*
X70256250Y-43900000D02*
X67712500Y-43900000D01*
X67712500Y-43900000D02*
X66675000Y-42862500D01*
X66675000Y-42862500D02*
X66675000Y-34925000D01*
X65893750Y-34143750D02*
X65893750Y-31487500D01*
X66675000Y-34925000D02*
X65893750Y-34143750D01*
X58537500Y-56881250D02*
X56425000Y-54768750D01*
X58887500Y-56881250D02*
X58537500Y-56881250D01*
X56425000Y-54768750D02*
X56425000Y-50868750D01*
X56425000Y-50868750D02*
X57943750Y-49350000D01*
X69231250Y-49350000D02*
X69850000Y-48731250D01*
X57943750Y-49350000D02*
X69231250Y-49350000D01*
X77206250Y-49952672D02*
X76993750Y-50165172D01*
X77206250Y-48800000D02*
X77206250Y-49952672D01*
X76993750Y-50165172D02*
X76993750Y-50800000D01*
X76993750Y-50800000D02*
X75406250Y-52387500D01*
X73506250Y-52387500D02*
X69850000Y-48731250D01*
X75406250Y-52387500D02*
X73506250Y-52387500D01*
X83606250Y-49727902D02*
X83606250Y-48800000D01*
X83425000Y-49909152D02*
X83606250Y-49727902D01*
X83425000Y-52625000D02*
X83425000Y-49909152D01*
X89693750Y-53975000D02*
X89693750Y-49331250D01*
X88106250Y-55562500D02*
X89693750Y-53975000D01*
X83425000Y-54687500D02*
X84300000Y-55562500D01*
X84300000Y-55562500D02*
X88106250Y-55562500D01*
X83425000Y-52625000D02*
X83425000Y-54687500D01*
X86581250Y-39100000D02*
X86106250Y-39100000D01*
X88293750Y-37387500D02*
X86581250Y-39100000D01*
X89931250Y-37387500D02*
X88293750Y-37387500D01*
X84975250Y-39100000D02*
X82800250Y-41275000D01*
X86106250Y-39100000D02*
X84975250Y-39100000D01*
X82800250Y-41275000D02*
X80962500Y-41275000D01*
X78806250Y-39118750D02*
X78806250Y-37400000D01*
X80962500Y-41275000D02*
X78806250Y-39118750D01*
X82800250Y-41275000D02*
X82800250Y-44993500D01*
X83606250Y-45799500D02*
X83606250Y-48800000D01*
X82800250Y-44993500D02*
X83606250Y-45799500D01*
X82800250Y-44993500D02*
X78831500Y-44993500D01*
X77206250Y-46618750D02*
X77206250Y-48800000D01*
X78831500Y-44993500D02*
X77206250Y-46618750D01*
X74706250Y-43900000D02*
X76443750Y-43900000D01*
X77537250Y-44993500D02*
X78831500Y-44993500D01*
X76443750Y-43900000D02*
X77537250Y-44993500D01*
D27*
X80406250Y-36396000D02*
X80406250Y-37400000D01*
X80406250Y-33204000D02*
X80406250Y-36396000D01*
X80712500Y-32897750D02*
X80406250Y-33204000D01*
X80712500Y-32043750D02*
X80712500Y-32897750D01*
X84275000Y-32043750D02*
X84375000Y-32143750D01*
X80712500Y-32043750D02*
X84275000Y-32043750D01*
X74950000Y-30343750D02*
X74850000Y-30243750D01*
X78512500Y-30343750D02*
X74950000Y-30343750D01*
X79606250Y-37400000D02*
X79606250Y-35156250D01*
X79606250Y-35156250D02*
X76993750Y-32543750D01*
X76993750Y-32543750D02*
X76993750Y-31750000D01*
X78412500Y-30343750D02*
X78512500Y-30343750D01*
X77006250Y-31750000D02*
X78412500Y-30343750D01*
X76993750Y-31750000D02*
X77006250Y-31750000D01*
X72625000Y-43100000D02*
X74706250Y-43100000D01*
X71831250Y-42306250D02*
X72625000Y-43100000D01*
D26*
X78006250Y-37400000D02*
X78006250Y-35965422D01*
D27*
X76406250Y-48800000D02*
X76406250Y-49275000D01*
D26*
X70381250Y-46300000D02*
X69850000Y-46831250D01*
X72762500Y-46300000D02*
X70381250Y-46300000D01*
X74706250Y-46300000D02*
X72762500Y-46300000D01*
X71437500Y-36825000D02*
X70162500Y-36825000D01*
X85562500Y-52387500D02*
X85325000Y-52625000D01*
X87312500Y-52387500D02*
X85562500Y-52387500D01*
X84406250Y-50881250D02*
X84406250Y-48800000D01*
X85325000Y-51800000D02*
X84406250Y-50881250D01*
X85325000Y-52625000D02*
X85325000Y-51800000D01*
X90331250Y-39687500D02*
X89931250Y-39287500D01*
X91281250Y-39687500D02*
X90331250Y-39687500D01*
X87237250Y-39900000D02*
X86106250Y-39900000D01*
X88493750Y-39900000D02*
X87237250Y-39900000D01*
X89106250Y-39287500D02*
X88493750Y-39900000D01*
X89931250Y-39287500D02*
X89106250Y-39287500D01*
X72522090Y-35740410D02*
X71990625Y-36271875D01*
X77781238Y-35740410D02*
X72522090Y-35740410D01*
X78006250Y-35965422D02*
X77781238Y-35740410D01*
X71990625Y-36271875D02*
X71437500Y-36825000D01*
X72297078Y-35965422D02*
X71990625Y-36271875D01*
X74706250Y-42300000D02*
X73256250Y-42300000D01*
X72762500Y-41806250D02*
X72762500Y-41012500D01*
X73256250Y-42300000D02*
X72762500Y-41806250D01*
X59950000Y-40106250D02*
X66675000Y-46831250D01*
X58737500Y-40106250D02*
X59950000Y-40106250D01*
X69850000Y-46831250D02*
X66675000Y-46831250D01*
X72762500Y-49743750D02*
X72762500Y-46300000D01*
X73818750Y-50800000D02*
X72762500Y-49743750D01*
X75537250Y-50800000D02*
X73818750Y-50800000D01*
X76406250Y-49931000D02*
X75537250Y-50800000D01*
X76406250Y-48800000D02*
X76406250Y-49931000D01*
X69353010Y-35421990D02*
X69056250Y-35718750D01*
X69850000Y-34925000D02*
X69353010Y-35421990D01*
X69056250Y-35718750D02*
X68262500Y-34925000D01*
X70162500Y-36825000D02*
X69056250Y-35718750D01*
D27*
X109537500Y-33337500D02*
X106029340Y-29829340D01*
X110206250Y-33337500D02*
X109537500Y-33337500D01*
X110331250Y-33212500D02*
X110206250Y-33337500D01*
X106029340Y-29829340D02*
X104149488Y-29829340D01*
X128527250Y-36512500D02*
X129381250Y-36512500D01*
X127809509Y-37230241D02*
X128527250Y-36512500D01*
X111185250Y-36512500D02*
X111902991Y-37230241D01*
X110331250Y-36512500D02*
X111185250Y-36512500D01*
X110331250Y-37216500D02*
X110331250Y-36512500D01*
X105247750Y-42300000D02*
X110331250Y-37216500D01*
X86106250Y-42300000D02*
X105247750Y-42300000D01*
X111902991Y-37230241D02*
X111902991Y-37290491D01*
X111902991Y-37290491D02*
X112712500Y-38100000D01*
X112712500Y-38100000D02*
X127000000Y-38100000D01*
X127000000Y-38100000D02*
X127793750Y-37306250D01*
X129231250Y-33212500D02*
X129381250Y-33212500D01*
X126987500Y-30968750D02*
X124338898Y-30968750D01*
X126987500Y-30968750D02*
X129231250Y-33212500D01*
X124314999Y-30969999D02*
X123190000Y-29845000D01*
X124337649Y-30969999D02*
X124314999Y-30969999D01*
X124338898Y-30968750D02*
X124337649Y-30969999D01*
X106798090Y-48879340D02*
X104149488Y-48879340D01*
X110181250Y-52262500D02*
X106798090Y-48879340D01*
X110331250Y-52262500D02*
X110181250Y-52262500D01*
X129231250Y-55625000D02*
X129381250Y-55625000D01*
X111918750Y-57000000D02*
X127856250Y-57000000D01*
X110481250Y-55562500D02*
X111918750Y-57000000D01*
X127856250Y-57000000D02*
X129231250Y-55625000D01*
X110331250Y-55562500D02*
X110481250Y-55562500D01*
X89029022Y-44700000D02*
X94335272Y-50006250D01*
X86106250Y-44700000D02*
X89029022Y-44700000D01*
X94335272Y-50006250D02*
X94335272Y-57029022D01*
X109477250Y-55562500D02*
X110331250Y-55562500D01*
X108010728Y-57029022D02*
X109477250Y-55562500D01*
X94335272Y-57029022D02*
X108010728Y-57029022D01*
X123779488Y-49459340D02*
X123199488Y-48879340D01*
X129293750Y-52387500D02*
X125785590Y-48879340D01*
X129318750Y-52387500D02*
X129293750Y-52387500D01*
X129381250Y-52325000D02*
X129318750Y-52387500D01*
X123159488Y-48919340D02*
X123199488Y-48879340D01*
X123159488Y-49459340D02*
X123159488Y-48919340D01*
X123739488Y-48879340D02*
X123159488Y-49459340D01*
X125785590Y-48879340D02*
X123739488Y-48879340D01*
D26*
X62693750Y-33350000D02*
X62693750Y-31487500D01*
X58737500Y-37306250D02*
X58737500Y-35718750D01*
X58737500Y-35718750D02*
X60325000Y-35718750D01*
X60325000Y-35718750D02*
X62706250Y-33337500D01*
D27*
X90280148Y-43900000D02*
X97799488Y-51419340D01*
X86106250Y-43900000D02*
X90280148Y-43900000D01*
X108530148Y-43100000D02*
X116849488Y-51419340D01*
X86106250Y-43100000D02*
X108530148Y-43100000D01*
X68262500Y-36750000D02*
X68262500Y-38893750D01*
X66675000Y-53181250D02*
X65087500Y-53181250D01*
X68839118Y-37326618D02*
X69076618Y-37326618D01*
X68262500Y-36750000D02*
X68839118Y-37326618D01*
X69076618Y-37326618D02*
X69850000Y-38100000D01*
X71703518Y-38100000D02*
X73025000Y-36778518D01*
X69850000Y-38100000D02*
X71703518Y-38100000D01*
X73025000Y-36778518D02*
X73025000Y-36512500D01*
X77206250Y-36396000D02*
X77206250Y-37400000D01*
X77133249Y-36322999D02*
X77206250Y-36396000D01*
X73214501Y-36322999D02*
X77133249Y-36322999D01*
X73025000Y-36512500D02*
X73214501Y-36322999D01*
X64947891Y-35940069D02*
X64293750Y-35285928D01*
X64293750Y-35285928D02*
X64293750Y-31750000D01*
X64947891Y-39033359D02*
X64293750Y-39687500D01*
X64947891Y-37765069D02*
X64947891Y-39033359D01*
X74706250Y-44700000D02*
X66773316Y-44700000D01*
X66773316Y-44700000D02*
X64293750Y-42220434D01*
X64293750Y-42220434D02*
X64293750Y-39687500D01*
X62566641Y-35940069D02*
X63500000Y-35006710D01*
X63500000Y-35006710D02*
X63500000Y-31750000D01*
X62566641Y-37765069D02*
X62566641Y-38754141D01*
X62566641Y-38754141D02*
X63500000Y-39687500D01*
X63500000Y-39687500D02*
X63500000Y-42068750D01*
X66931250Y-45500000D02*
X74706250Y-45500000D01*
X63500000Y-42068750D02*
X66931250Y-45500000D01*
X89693750Y-47506250D02*
X88781250Y-47506250D01*
X88375000Y-47100000D02*
X86106250Y-47100000D01*
X88781250Y-47506250D02*
X88375000Y-47100000D01*
G36*
X78880065Y-38601185D02*
G01*
X78976756Y-38680537D01*
X78999917Y-38692917D01*
X79092000Y-38785000D01*
X79205587Y-38775454D01*
X79206768Y-38775812D01*
X79331250Y-38788072D01*
X79881250Y-38788072D01*
X80005732Y-38775812D01*
X80006250Y-38775655D01*
X80006768Y-38775812D01*
X80131250Y-38788072D01*
X80681250Y-38788072D01*
X80805732Y-38775812D01*
X80806250Y-38775655D01*
X80806768Y-38775812D01*
X80931250Y-38788072D01*
X81481250Y-38788072D01*
X81605732Y-38775812D01*
X81606250Y-38775655D01*
X81606768Y-38775812D01*
X81731250Y-38788072D01*
X82281250Y-38788072D01*
X82405732Y-38775812D01*
X82406250Y-38775655D01*
X82406768Y-38775812D01*
X82531250Y-38788072D01*
X83081250Y-38788072D01*
X83205732Y-38775812D01*
X83206250Y-38775655D01*
X83206768Y-38775812D01*
X83331250Y-38788072D01*
X83881250Y-38788072D01*
X84005732Y-38775812D01*
X84006250Y-38775655D01*
X84006768Y-38775812D01*
X84131250Y-38788072D01*
X84681250Y-38788072D01*
X84723802Y-38783881D01*
X84721250Y-38814250D01*
X84804250Y-38897250D01*
X84804250Y-39302750D01*
X84721250Y-39385750D01*
X84730796Y-39499337D01*
X84730438Y-39500518D01*
X84718178Y-39625000D01*
X84718178Y-40175000D01*
X84730438Y-40299482D01*
X84730595Y-40300000D01*
X84730438Y-40300518D01*
X84718178Y-40425000D01*
X84718178Y-40975000D01*
X84730438Y-41099482D01*
X84730595Y-41100000D01*
X84730438Y-41100518D01*
X84718178Y-41225000D01*
X84718178Y-41775000D01*
X84730438Y-41899482D01*
X84730595Y-41900000D01*
X84730438Y-41900518D01*
X84718178Y-42025000D01*
X84718178Y-42575000D01*
X84730438Y-42699482D01*
X84730595Y-42700000D01*
X84730438Y-42700518D01*
X84718178Y-42825000D01*
X84718178Y-43375000D01*
X84730438Y-43499482D01*
X84730595Y-43500000D01*
X84730438Y-43500518D01*
X84718178Y-43625000D01*
X84718178Y-44175000D01*
X84730438Y-44299482D01*
X84730595Y-44300000D01*
X84730438Y-44300518D01*
X84718178Y-44425000D01*
X84718178Y-44975000D01*
X84730438Y-45099482D01*
X84730595Y-45100000D01*
X84730438Y-45100518D01*
X84718178Y-45225000D01*
X84718178Y-45775000D01*
X84730438Y-45899482D01*
X84730595Y-45900000D01*
X84730438Y-45900518D01*
X84718178Y-46025000D01*
X84718178Y-46575000D01*
X84730438Y-46699482D01*
X84730595Y-46700000D01*
X84730438Y-46700518D01*
X84718178Y-46825000D01*
X84718178Y-47375000D01*
X84722212Y-47415962D01*
X84681250Y-47411928D01*
X84131250Y-47411928D01*
X84006768Y-47424188D01*
X84005587Y-47424546D01*
X83892000Y-47415000D01*
X83809000Y-47498000D01*
X83403500Y-47498000D01*
X83320500Y-47415000D01*
X83206913Y-47424546D01*
X83205732Y-47424188D01*
X83081250Y-47411928D01*
X82531250Y-47411928D01*
X82406768Y-47424188D01*
X82406250Y-47424345D01*
X82405732Y-47424188D01*
X82281250Y-47411928D01*
X81731250Y-47411928D01*
X81606768Y-47424188D01*
X81606250Y-47424345D01*
X81605732Y-47424188D01*
X81481250Y-47411928D01*
X80931250Y-47411928D01*
X80806768Y-47424188D01*
X80806250Y-47424345D01*
X80805732Y-47424188D01*
X80681250Y-47411928D01*
X80131250Y-47411928D01*
X80006768Y-47424188D01*
X80006250Y-47424345D01*
X80005732Y-47424188D01*
X79881250Y-47411928D01*
X79331250Y-47411928D01*
X79206768Y-47424188D01*
X79206250Y-47424345D01*
X79205732Y-47424188D01*
X79081250Y-47411928D01*
X78531250Y-47411928D01*
X78406768Y-47424188D01*
X78406250Y-47424345D01*
X78405732Y-47424188D01*
X78281250Y-47411928D01*
X77731250Y-47411928D01*
X77606768Y-47424188D01*
X77605587Y-47424546D01*
X77492000Y-47415000D01*
X77409000Y-47498000D01*
X77003500Y-47498000D01*
X76920500Y-47415000D01*
X76806913Y-47424546D01*
X76805732Y-47424188D01*
X76681250Y-47411928D01*
X76131250Y-47411928D01*
X76090288Y-47415962D01*
X76094322Y-47375000D01*
X76094322Y-46825000D01*
X76082062Y-46700518D01*
X76081905Y-46700000D01*
X76082062Y-46699482D01*
X76094322Y-46575000D01*
X76094322Y-46025000D01*
X76082062Y-45900518D01*
X76081905Y-45900000D01*
X76082062Y-45899482D01*
X76094322Y-45775000D01*
X76094322Y-45225000D01*
X76082062Y-45100518D01*
X76081905Y-45100000D01*
X76082062Y-45099482D01*
X76094322Y-44975000D01*
X76094322Y-44425000D01*
X76082062Y-44300518D01*
X76081704Y-44299337D01*
X76091250Y-44185750D01*
X75999167Y-44093667D01*
X75986787Y-44070506D01*
X75907435Y-43973815D01*
X75817491Y-43900000D01*
X75907435Y-43826185D01*
X75986787Y-43729494D01*
X75999167Y-43706333D01*
X76091250Y-43614250D01*
X76081704Y-43500663D01*
X76082062Y-43499482D01*
X76094322Y-43375000D01*
X76094322Y-42825000D01*
X76082062Y-42700518D01*
X76081905Y-42700000D01*
X76082062Y-42699482D01*
X76094322Y-42575000D01*
X76094322Y-42025000D01*
X76082062Y-41900518D01*
X76081905Y-41900000D01*
X76082062Y-41899482D01*
X76094322Y-41775000D01*
X76094322Y-41225000D01*
X76082062Y-41100518D01*
X76081905Y-41100000D01*
X76082062Y-41099482D01*
X76094322Y-40975000D01*
X76094322Y-40425000D01*
X76082062Y-40300518D01*
X76081905Y-40300000D01*
X76082062Y-40299482D01*
X76094322Y-40175000D01*
X76094322Y-39625000D01*
X76082062Y-39500518D01*
X76081905Y-39500000D01*
X76082062Y-39499482D01*
X76094322Y-39375000D01*
X76094322Y-38825000D01*
X76090288Y-38784038D01*
X76131250Y-38788072D01*
X76681250Y-38788072D01*
X76805732Y-38775812D01*
X76806250Y-38775655D01*
X76806768Y-38775812D01*
X76931250Y-38788072D01*
X77481250Y-38788072D01*
X77605732Y-38775812D01*
X77606250Y-38775655D01*
X77606768Y-38775812D01*
X77731250Y-38788072D01*
X78281250Y-38788072D01*
X78405732Y-38775812D01*
X78406913Y-38775454D01*
X78520500Y-38785000D01*
X78612583Y-38692917D01*
X78635744Y-38680537D01*
X78732435Y-38601185D01*
X78806250Y-38511241D01*
X78880065Y-38601185D01*
X78880065Y-38601185D01*
G37*
X78880065Y-38601185D02*
X78976756Y-38680537D01*
X78999917Y-38692917D01*
X79092000Y-38785000D01*
X79205587Y-38775454D01*
X79206768Y-38775812D01*
X79331250Y-38788072D01*
X79881250Y-38788072D01*
X80005732Y-38775812D01*
X80006250Y-38775655D01*
X80006768Y-38775812D01*
X80131250Y-38788072D01*
X80681250Y-38788072D01*
X80805732Y-38775812D01*
X80806250Y-38775655D01*
X80806768Y-38775812D01*
X80931250Y-38788072D01*
X81481250Y-38788072D01*
X81605732Y-38775812D01*
X81606250Y-38775655D01*
X81606768Y-38775812D01*
X81731250Y-38788072D01*
X82281250Y-38788072D01*
X82405732Y-38775812D01*
X82406250Y-38775655D01*
X82406768Y-38775812D01*
X82531250Y-38788072D01*
X83081250Y-38788072D01*
X83205732Y-38775812D01*
X83206250Y-38775655D01*
X83206768Y-38775812D01*
X83331250Y-38788072D01*
X83881250Y-38788072D01*
X84005732Y-38775812D01*
X84006250Y-38775655D01*
X84006768Y-38775812D01*
X84131250Y-38788072D01*
X84681250Y-38788072D01*
X84723802Y-38783881D01*
X84721250Y-38814250D01*
X84804250Y-38897250D01*
X84804250Y-39302750D01*
X84721250Y-39385750D01*
X84730796Y-39499337D01*
X84730438Y-39500518D01*
X84718178Y-39625000D01*
X84718178Y-40175000D01*
X84730438Y-40299482D01*
X84730595Y-40300000D01*
X84730438Y-40300518D01*
X84718178Y-40425000D01*
X84718178Y-40975000D01*
X84730438Y-41099482D01*
X84730595Y-41100000D01*
X84730438Y-41100518D01*
X84718178Y-41225000D01*
X84718178Y-41775000D01*
X84730438Y-41899482D01*
X84730595Y-41900000D01*
X84730438Y-41900518D01*
X84718178Y-42025000D01*
X84718178Y-42575000D01*
X84730438Y-42699482D01*
X84730595Y-42700000D01*
X84730438Y-42700518D01*
X84718178Y-42825000D01*
X84718178Y-43375000D01*
X84730438Y-43499482D01*
X84730595Y-43500000D01*
X84730438Y-43500518D01*
X84718178Y-43625000D01*
X84718178Y-44175000D01*
X84730438Y-44299482D01*
X84730595Y-44300000D01*
X84730438Y-44300518D01*
X84718178Y-44425000D01*
X84718178Y-44975000D01*
X84730438Y-45099482D01*
X84730595Y-45100000D01*
X84730438Y-45100518D01*
X84718178Y-45225000D01*
X84718178Y-45775000D01*
X84730438Y-45899482D01*
X84730595Y-45900000D01*
X84730438Y-45900518D01*
X84718178Y-46025000D01*
X84718178Y-46575000D01*
X84730438Y-46699482D01*
X84730595Y-46700000D01*
X84730438Y-46700518D01*
X84718178Y-46825000D01*
X84718178Y-47375000D01*
X84722212Y-47415962D01*
X84681250Y-47411928D01*
X84131250Y-47411928D01*
X84006768Y-47424188D01*
X84005587Y-47424546D01*
X83892000Y-47415000D01*
X83809000Y-47498000D01*
X83403500Y-47498000D01*
X83320500Y-47415000D01*
X83206913Y-47424546D01*
X83205732Y-47424188D01*
X83081250Y-47411928D01*
X82531250Y-47411928D01*
X82406768Y-47424188D01*
X82406250Y-47424345D01*
X82405732Y-47424188D01*
X82281250Y-47411928D01*
X81731250Y-47411928D01*
X81606768Y-47424188D01*
X81606250Y-47424345D01*
X81605732Y-47424188D01*
X81481250Y-47411928D01*
X80931250Y-47411928D01*
X80806768Y-47424188D01*
X80806250Y-47424345D01*
X80805732Y-47424188D01*
X80681250Y-47411928D01*
X80131250Y-47411928D01*
X80006768Y-47424188D01*
X80006250Y-47424345D01*
X80005732Y-47424188D01*
X79881250Y-47411928D01*
X79331250Y-47411928D01*
X79206768Y-47424188D01*
X79206250Y-47424345D01*
X79205732Y-47424188D01*
X79081250Y-47411928D01*
X78531250Y-47411928D01*
X78406768Y-47424188D01*
X78406250Y-47424345D01*
X78405732Y-47424188D01*
X78281250Y-47411928D01*
X77731250Y-47411928D01*
X77606768Y-47424188D01*
X77605587Y-47424546D01*
X77492000Y-47415000D01*
X77409000Y-47498000D01*
X77003500Y-47498000D01*
X76920500Y-47415000D01*
X76806913Y-47424546D01*
X76805732Y-47424188D01*
X76681250Y-47411928D01*
X76131250Y-47411928D01*
X76090288Y-47415962D01*
X76094322Y-47375000D01*
X76094322Y-46825000D01*
X76082062Y-46700518D01*
X76081905Y-46700000D01*
X76082062Y-46699482D01*
X76094322Y-46575000D01*
X76094322Y-46025000D01*
X76082062Y-45900518D01*
X76081905Y-45900000D01*
X76082062Y-45899482D01*
X76094322Y-45775000D01*
X76094322Y-45225000D01*
X76082062Y-45100518D01*
X76081905Y-45100000D01*
X76082062Y-45099482D01*
X76094322Y-44975000D01*
X76094322Y-44425000D01*
X76082062Y-44300518D01*
X76081704Y-44299337D01*
X76091250Y-44185750D01*
X75999167Y-44093667D01*
X75986787Y-44070506D01*
X75907435Y-43973815D01*
X75817491Y-43900000D01*
X75907435Y-43826185D01*
X75986787Y-43729494D01*
X75999167Y-43706333D01*
X76091250Y-43614250D01*
X76081704Y-43500663D01*
X76082062Y-43499482D01*
X76094322Y-43375000D01*
X76094322Y-42825000D01*
X76082062Y-42700518D01*
X76081905Y-42700000D01*
X76082062Y-42699482D01*
X76094322Y-42575000D01*
X76094322Y-42025000D01*
X76082062Y-41900518D01*
X76081905Y-41900000D01*
X76082062Y-41899482D01*
X76094322Y-41775000D01*
X76094322Y-41225000D01*
X76082062Y-41100518D01*
X76081905Y-41100000D01*
X76082062Y-41099482D01*
X76094322Y-40975000D01*
X76094322Y-40425000D01*
X76082062Y-40300518D01*
X76081905Y-40300000D01*
X76082062Y-40299482D01*
X76094322Y-40175000D01*
X76094322Y-39625000D01*
X76082062Y-39500518D01*
X76081905Y-39500000D01*
X76082062Y-39499482D01*
X76094322Y-39375000D01*
X76094322Y-38825000D01*
X76090288Y-38784038D01*
X76131250Y-38788072D01*
X76681250Y-38788072D01*
X76805732Y-38775812D01*
X76806250Y-38775655D01*
X76806768Y-38775812D01*
X76931250Y-38788072D01*
X77481250Y-38788072D01*
X77605732Y-38775812D01*
X77606250Y-38775655D01*
X77606768Y-38775812D01*
X77731250Y-38788072D01*
X78281250Y-38788072D01*
X78405732Y-38775812D01*
X78406913Y-38775454D01*
X78520500Y-38785000D01*
X78612583Y-38692917D01*
X78635744Y-38680537D01*
X78732435Y-38601185D01*
X78806250Y-38511241D01*
X78880065Y-38601185D01*
G36*
X86391750Y-34798000D02*
G01*
X81168250Y-34798000D01*
X81168250Y-33519630D01*
X81224846Y-33463034D01*
X81253922Y-33439172D01*
X81349145Y-33323142D01*
X81371231Y-33281822D01*
X81412500Y-33281822D01*
X81536982Y-33269562D01*
X81656680Y-33233252D01*
X81766994Y-33174287D01*
X81863685Y-33094935D01*
X81943037Y-32998244D01*
X82002002Y-32887930D01*
X82026931Y-32805750D01*
X83118093Y-32805750D01*
X83161595Y-32887136D01*
X83272038Y-33021712D01*
X83406614Y-33132155D01*
X83560150Y-33214222D01*
X83726746Y-33264758D01*
X83900000Y-33281822D01*
X84850000Y-33281822D01*
X85023254Y-33264758D01*
X85189850Y-33214222D01*
X85343386Y-33132155D01*
X85477962Y-33021712D01*
X85588405Y-32887136D01*
X85670472Y-32733600D01*
X85721008Y-32567004D01*
X85738072Y-32393750D01*
X85738072Y-31893750D01*
X85721008Y-31720496D01*
X85670472Y-31553900D01*
X85588405Y-31400364D01*
X85477962Y-31265788D01*
X85471406Y-31260408D01*
X85551185Y-31194935D01*
X85630537Y-31098244D01*
X85689502Y-30987930D01*
X85725812Y-30868232D01*
X85738072Y-30743750D01*
X85735000Y-30529500D01*
X85576250Y-30370750D01*
X84502000Y-30370750D01*
X84502000Y-30390750D01*
X84248000Y-30390750D01*
X84248000Y-30370750D01*
X83173750Y-30370750D01*
X83015000Y-30529500D01*
X83011928Y-30743750D01*
X83024188Y-30868232D01*
X83060498Y-30987930D01*
X83119463Y-31098244D01*
X83198815Y-31194935D01*
X83278594Y-31260408D01*
X83272038Y-31265788D01*
X83258938Y-31281750D01*
X82026931Y-31281750D01*
X82002002Y-31199570D01*
X81998891Y-31193750D01*
X82002002Y-31187930D01*
X82038312Y-31068232D01*
X82050572Y-30943750D01*
X82047500Y-30629500D01*
X81888750Y-30470750D01*
X80839500Y-30470750D01*
X80839500Y-30490750D01*
X80585500Y-30490750D01*
X80585500Y-30470750D01*
X80565500Y-30470750D01*
X80565500Y-30216750D01*
X80585500Y-30216750D01*
X80585500Y-29267500D01*
X80839500Y-29267500D01*
X80839500Y-30216750D01*
X81888750Y-30216750D01*
X82047500Y-30058000D01*
X82050572Y-29743750D01*
X83011928Y-29743750D01*
X83015000Y-29958000D01*
X83173750Y-30116750D01*
X84248000Y-30116750D01*
X84248000Y-29267500D01*
X84502000Y-29267500D01*
X84502000Y-30116750D01*
X85576250Y-30116750D01*
X85735000Y-29958000D01*
X85738072Y-29743750D01*
X85725812Y-29619268D01*
X85689502Y-29499570D01*
X85630537Y-29389256D01*
X85551185Y-29292565D01*
X85454494Y-29213213D01*
X85344180Y-29154248D01*
X85224482Y-29117938D01*
X85100000Y-29105678D01*
X84660750Y-29108750D01*
X84502000Y-29267500D01*
X84248000Y-29267500D01*
X84089250Y-29108750D01*
X83650000Y-29105678D01*
X83525518Y-29117938D01*
X83405820Y-29154248D01*
X83295506Y-29213213D01*
X83198815Y-29292565D01*
X83119463Y-29389256D01*
X83060498Y-29499570D01*
X83024188Y-29619268D01*
X83011928Y-29743750D01*
X82050572Y-29743750D01*
X82038312Y-29619268D01*
X82002002Y-29499570D01*
X81943037Y-29389256D01*
X81863685Y-29292565D01*
X81766994Y-29213213D01*
X81656680Y-29154248D01*
X81536982Y-29117938D01*
X81412500Y-29105678D01*
X80998250Y-29108750D01*
X80839500Y-29267500D01*
X80585500Y-29267500D01*
X80426750Y-29108750D01*
X80012500Y-29105678D01*
X79888018Y-29117938D01*
X79768320Y-29154248D01*
X79658006Y-29213213D01*
X79612500Y-29250559D01*
X79566994Y-29213213D01*
X79456680Y-29154248D01*
X79336982Y-29117938D01*
X79212500Y-29105678D01*
X77812500Y-29105678D01*
X77688018Y-29117938D01*
X77568320Y-29154248D01*
X77458006Y-29213213D01*
X77361315Y-29292565D01*
X77281963Y-29389256D01*
X77222998Y-29499570D01*
X77198069Y-29581750D01*
X76106907Y-29581750D01*
X76063405Y-29500364D01*
X75952962Y-29365788D01*
X75818386Y-29255345D01*
X75664850Y-29173278D01*
X75498254Y-29122742D01*
X75325000Y-29105678D01*
X74375000Y-29105678D01*
X74201746Y-29122742D01*
X74035150Y-29173278D01*
X73881614Y-29255345D01*
X73747038Y-29365788D01*
X73636595Y-29500364D01*
X73554528Y-29653900D01*
X73503992Y-29820496D01*
X73486928Y-29993750D01*
X73486928Y-30493750D01*
X73503992Y-30667004D01*
X73554528Y-30833600D01*
X73636595Y-30987136D01*
X73747038Y-31121712D01*
X73753594Y-31127092D01*
X73673815Y-31192565D01*
X73594463Y-31289256D01*
X73535498Y-31399570D01*
X73499188Y-31519268D01*
X73486928Y-31643750D01*
X73490000Y-31858000D01*
X73648750Y-32016750D01*
X74723000Y-32016750D01*
X74723000Y-31996750D01*
X74977000Y-31996750D01*
X74977000Y-32016750D01*
X76051250Y-32016750D01*
X76210000Y-31858000D01*
X76213072Y-31643750D01*
X76200812Y-31519268D01*
X76164502Y-31399570D01*
X76105537Y-31289256D01*
X76026185Y-31192565D01*
X75946406Y-31127092D01*
X75952962Y-31121712D01*
X75966062Y-31105750D01*
X76572870Y-31105750D01*
X76551109Y-31127510D01*
X76452328Y-31208578D01*
X76357105Y-31324608D01*
X76286348Y-31456985D01*
X76242776Y-31600622D01*
X76228064Y-31750000D01*
X76231750Y-31787426D01*
X76231750Y-32506327D01*
X76228064Y-32543750D01*
X76231750Y-32581173D01*
X76231750Y-32581175D01*
X76242776Y-32693127D01*
X76286348Y-32836764D01*
X76286349Y-32836765D01*
X76357105Y-32969142D01*
X76380989Y-32998244D01*
X76452328Y-33085172D01*
X76481404Y-33109034D01*
X78170369Y-34798000D01*
X72797500Y-34798000D01*
X72797500Y-34797998D01*
X72638752Y-34797998D01*
X72797500Y-34639250D01*
X72800572Y-34425000D01*
X72788312Y-34300518D01*
X72752002Y-34180820D01*
X72693037Y-34070506D01*
X72613685Y-33973815D01*
X72516994Y-33894463D01*
X72406680Y-33835498D01*
X72286982Y-33799188D01*
X72162500Y-33786928D01*
X71723250Y-33790000D01*
X71564500Y-33948750D01*
X71564500Y-34798000D01*
X71310500Y-34798000D01*
X71310500Y-33948750D01*
X71151750Y-33790000D01*
X70770750Y-33787335D01*
X70770750Y-32643750D01*
X73486928Y-32643750D01*
X73499188Y-32768232D01*
X73535498Y-32887930D01*
X73594463Y-32998244D01*
X73673815Y-33094935D01*
X73770506Y-33174287D01*
X73880820Y-33233252D01*
X74000518Y-33269562D01*
X74125000Y-33281822D01*
X74564250Y-33278750D01*
X74723000Y-33120000D01*
X74723000Y-32270750D01*
X74977000Y-32270750D01*
X74977000Y-33120000D01*
X75135750Y-33278750D01*
X75575000Y-33281822D01*
X75699482Y-33269562D01*
X75819180Y-33233252D01*
X75929494Y-33174287D01*
X76026185Y-33094935D01*
X76105537Y-32998244D01*
X76164502Y-32887930D01*
X76200812Y-32768232D01*
X76213072Y-32643750D01*
X76210000Y-32429500D01*
X76051250Y-32270750D01*
X74977000Y-32270750D01*
X74723000Y-32270750D01*
X73648750Y-32270750D01*
X73490000Y-32429500D01*
X73486928Y-32643750D01*
X70770750Y-32643750D01*
X70770750Y-27114500D01*
X86391750Y-27114500D01*
X86391750Y-34798000D01*
X86391750Y-34798000D01*
G37*
X86391750Y-34798000D02*
X81168250Y-34798000D01*
X81168250Y-33519630D01*
X81224846Y-33463034D01*
X81253922Y-33439172D01*
X81349145Y-33323142D01*
X81371231Y-33281822D01*
X81412500Y-33281822D01*
X81536982Y-33269562D01*
X81656680Y-33233252D01*
X81766994Y-33174287D01*
X81863685Y-33094935D01*
X81943037Y-32998244D01*
X82002002Y-32887930D01*
X82026931Y-32805750D01*
X83118093Y-32805750D01*
X83161595Y-32887136D01*
X83272038Y-33021712D01*
X83406614Y-33132155D01*
X83560150Y-33214222D01*
X83726746Y-33264758D01*
X83900000Y-33281822D01*
X84850000Y-33281822D01*
X85023254Y-33264758D01*
X85189850Y-33214222D01*
X85343386Y-33132155D01*
X85477962Y-33021712D01*
X85588405Y-32887136D01*
X85670472Y-32733600D01*
X85721008Y-32567004D01*
X85738072Y-32393750D01*
X85738072Y-31893750D01*
X85721008Y-31720496D01*
X85670472Y-31553900D01*
X85588405Y-31400364D01*
X85477962Y-31265788D01*
X85471406Y-31260408D01*
X85551185Y-31194935D01*
X85630537Y-31098244D01*
X85689502Y-30987930D01*
X85725812Y-30868232D01*
X85738072Y-30743750D01*
X85735000Y-30529500D01*
X85576250Y-30370750D01*
X84502000Y-30370750D01*
X84502000Y-30390750D01*
X84248000Y-30390750D01*
X84248000Y-30370750D01*
X83173750Y-30370750D01*
X83015000Y-30529500D01*
X83011928Y-30743750D01*
X83024188Y-30868232D01*
X83060498Y-30987930D01*
X83119463Y-31098244D01*
X83198815Y-31194935D01*
X83278594Y-31260408D01*
X83272038Y-31265788D01*
X83258938Y-31281750D01*
X82026931Y-31281750D01*
X82002002Y-31199570D01*
X81998891Y-31193750D01*
X82002002Y-31187930D01*
X82038312Y-31068232D01*
X82050572Y-30943750D01*
X82047500Y-30629500D01*
X81888750Y-30470750D01*
X80839500Y-30470750D01*
X80839500Y-30490750D01*
X80585500Y-30490750D01*
X80585500Y-30470750D01*
X80565500Y-30470750D01*
X80565500Y-30216750D01*
X80585500Y-30216750D01*
X80585500Y-29267500D01*
X80839500Y-29267500D01*
X80839500Y-30216750D01*
X81888750Y-30216750D01*
X82047500Y-30058000D01*
X82050572Y-29743750D01*
X83011928Y-29743750D01*
X83015000Y-29958000D01*
X83173750Y-30116750D01*
X84248000Y-30116750D01*
X84248000Y-29267500D01*
X84502000Y-29267500D01*
X84502000Y-30116750D01*
X85576250Y-30116750D01*
X85735000Y-29958000D01*
X85738072Y-29743750D01*
X85725812Y-29619268D01*
X85689502Y-29499570D01*
X85630537Y-29389256D01*
X85551185Y-29292565D01*
X85454494Y-29213213D01*
X85344180Y-29154248D01*
X85224482Y-29117938D01*
X85100000Y-29105678D01*
X84660750Y-29108750D01*
X84502000Y-29267500D01*
X84248000Y-29267500D01*
X84089250Y-29108750D01*
X83650000Y-29105678D01*
X83525518Y-29117938D01*
X83405820Y-29154248D01*
X83295506Y-29213213D01*
X83198815Y-29292565D01*
X83119463Y-29389256D01*
X83060498Y-29499570D01*
X83024188Y-29619268D01*
X83011928Y-29743750D01*
X82050572Y-29743750D01*
X82038312Y-29619268D01*
X82002002Y-29499570D01*
X81943037Y-29389256D01*
X81863685Y-29292565D01*
X81766994Y-29213213D01*
X81656680Y-29154248D01*
X81536982Y-29117938D01*
X81412500Y-29105678D01*
X80998250Y-29108750D01*
X80839500Y-29267500D01*
X80585500Y-29267500D01*
X80426750Y-29108750D01*
X80012500Y-29105678D01*
X79888018Y-29117938D01*
X79768320Y-29154248D01*
X79658006Y-29213213D01*
X79612500Y-29250559D01*
X79566994Y-29213213D01*
X79456680Y-29154248D01*
X79336982Y-29117938D01*
X79212500Y-29105678D01*
X77812500Y-29105678D01*
X77688018Y-29117938D01*
X77568320Y-29154248D01*
X77458006Y-29213213D01*
X77361315Y-29292565D01*
X77281963Y-29389256D01*
X77222998Y-29499570D01*
X77198069Y-29581750D01*
X76106907Y-29581750D01*
X76063405Y-29500364D01*
X75952962Y-29365788D01*
X75818386Y-29255345D01*
X75664850Y-29173278D01*
X75498254Y-29122742D01*
X75325000Y-29105678D01*
X74375000Y-29105678D01*
X74201746Y-29122742D01*
X74035150Y-29173278D01*
X73881614Y-29255345D01*
X73747038Y-29365788D01*
X73636595Y-29500364D01*
X73554528Y-29653900D01*
X73503992Y-29820496D01*
X73486928Y-29993750D01*
X73486928Y-30493750D01*
X73503992Y-30667004D01*
X73554528Y-30833600D01*
X73636595Y-30987136D01*
X73747038Y-31121712D01*
X73753594Y-31127092D01*
X73673815Y-31192565D01*
X73594463Y-31289256D01*
X73535498Y-31399570D01*
X73499188Y-31519268D01*
X73486928Y-31643750D01*
X73490000Y-31858000D01*
X73648750Y-32016750D01*
X74723000Y-32016750D01*
X74723000Y-31996750D01*
X74977000Y-31996750D01*
X74977000Y-32016750D01*
X76051250Y-32016750D01*
X76210000Y-31858000D01*
X76213072Y-31643750D01*
X76200812Y-31519268D01*
X76164502Y-31399570D01*
X76105537Y-31289256D01*
X76026185Y-31192565D01*
X75946406Y-31127092D01*
X75952962Y-31121712D01*
X75966062Y-31105750D01*
X76572870Y-31105750D01*
X76551109Y-31127510D01*
X76452328Y-31208578D01*
X76357105Y-31324608D01*
X76286348Y-31456985D01*
X76242776Y-31600622D01*
X76228064Y-31750000D01*
X76231750Y-31787426D01*
X76231750Y-32506327D01*
X76228064Y-32543750D01*
X76231750Y-32581173D01*
X76231750Y-32581175D01*
X76242776Y-32693127D01*
X76286348Y-32836764D01*
X76286349Y-32836765D01*
X76357105Y-32969142D01*
X76380989Y-32998244D01*
X76452328Y-33085172D01*
X76481404Y-33109034D01*
X78170369Y-34798000D01*
X72797500Y-34798000D01*
X72797500Y-34797998D01*
X72638752Y-34797998D01*
X72797500Y-34639250D01*
X72800572Y-34425000D01*
X72788312Y-34300518D01*
X72752002Y-34180820D01*
X72693037Y-34070506D01*
X72613685Y-33973815D01*
X72516994Y-33894463D01*
X72406680Y-33835498D01*
X72286982Y-33799188D01*
X72162500Y-33786928D01*
X71723250Y-33790000D01*
X71564500Y-33948750D01*
X71564500Y-34798000D01*
X71310500Y-34798000D01*
X71310500Y-33948750D01*
X71151750Y-33790000D01*
X70770750Y-33787335D01*
X70770750Y-32643750D01*
X73486928Y-32643750D01*
X73499188Y-32768232D01*
X73535498Y-32887930D01*
X73594463Y-32998244D01*
X73673815Y-33094935D01*
X73770506Y-33174287D01*
X73880820Y-33233252D01*
X74000518Y-33269562D01*
X74125000Y-33281822D01*
X74564250Y-33278750D01*
X74723000Y-33120000D01*
X74723000Y-32270750D01*
X74977000Y-32270750D01*
X74977000Y-33120000D01*
X75135750Y-33278750D01*
X75575000Y-33281822D01*
X75699482Y-33269562D01*
X75819180Y-33233252D01*
X75929494Y-33174287D01*
X76026185Y-33094935D01*
X76105537Y-32998244D01*
X76164502Y-32887930D01*
X76200812Y-32768232D01*
X76213072Y-32643750D01*
X76210000Y-32429500D01*
X76051250Y-32270750D01*
X74977000Y-32270750D01*
X74723000Y-32270750D01*
X73648750Y-32270750D01*
X73490000Y-32429500D01*
X73486928Y-32643750D01*
X70770750Y-32643750D01*
X70770750Y-27114500D01*
X86391750Y-27114500D01*
X86391750Y-34798000D01*
G36*
X78639500Y-31916750D02*
G01*
X78659500Y-31916750D01*
X78659500Y-32170750D01*
X78639500Y-32170750D01*
X78639500Y-32190750D01*
X78385500Y-32190750D01*
X78385500Y-32170750D01*
X78365500Y-32170750D01*
X78365500Y-31916750D01*
X78385500Y-31916750D01*
X78385500Y-31896750D01*
X78639500Y-31896750D01*
X78639500Y-31916750D01*
X78639500Y-31916750D01*
G37*
X78639500Y-31916750D02*
X78659500Y-31916750D01*
X78659500Y-32170750D01*
X78639500Y-32170750D01*
X78639500Y-32190750D01*
X78385500Y-32190750D01*
X78385500Y-32170750D01*
X78365500Y-32170750D01*
X78365500Y-31916750D01*
X78385500Y-31916750D01*
X78385500Y-31896750D01*
X78639500Y-31896750D01*
X78639500Y-31916750D01*
G36*
X66458750Y-26414550D02*
G01*
X66458750Y-27560449D01*
X66480237Y-27778610D01*
X66565151Y-28058533D01*
X66703044Y-28316513D01*
X66888616Y-28542634D01*
X67114736Y-28728206D01*
X67372716Y-28866099D01*
X67652639Y-28951013D01*
X67943750Y-28979685D01*
X68135500Y-28960799D01*
X68135500Y-29514201D01*
X67943750Y-29495315D01*
X67652640Y-29523987D01*
X67372717Y-29608901D01*
X67114737Y-29746794D01*
X66888617Y-29932366D01*
X66733873Y-30120921D01*
X66678156Y-30013866D01*
X66599873Y-29916307D01*
X66504061Y-29835896D01*
X66394402Y-29775721D01*
X66275111Y-29738096D01*
X66175500Y-29727500D01*
X66016750Y-29886250D01*
X66016750Y-31360500D01*
X66040750Y-31360500D01*
X66040750Y-31614500D01*
X66016750Y-31614500D01*
X66016750Y-31634500D01*
X65981822Y-31634500D01*
X65981822Y-30362500D01*
X65969562Y-30238018D01*
X65933252Y-30118320D01*
X65874287Y-30008006D01*
X65794935Y-29911315D01*
X65770750Y-29891467D01*
X65770750Y-29886250D01*
X65612000Y-29727500D01*
X65512389Y-29738096D01*
X65493016Y-29744206D01*
X65468232Y-29736688D01*
X65343750Y-29724428D01*
X64843750Y-29724428D01*
X64719268Y-29736688D01*
X64693750Y-29744429D01*
X64668232Y-29736688D01*
X64543750Y-29724428D01*
X64043750Y-29724428D01*
X63919268Y-29736688D01*
X63893750Y-29744429D01*
X63868232Y-29736688D01*
X63743750Y-29724428D01*
X63243750Y-29724428D01*
X63119268Y-29736688D01*
X63093750Y-29744429D01*
X63068232Y-29736688D01*
X62943750Y-29724428D01*
X62443750Y-29724428D01*
X62319268Y-29736688D01*
X62199570Y-29772998D01*
X62089256Y-29831963D01*
X61992565Y-29911315D01*
X61913213Y-30008006D01*
X61854248Y-30118320D01*
X61853504Y-30120771D01*
X61698884Y-29932366D01*
X61472764Y-29746794D01*
X61214784Y-29608901D01*
X60934861Y-29523987D01*
X60643750Y-29495315D01*
X60452000Y-29514201D01*
X60452000Y-28960799D01*
X60643750Y-28979685D01*
X60934860Y-28951013D01*
X61214783Y-28866099D01*
X61472763Y-28728206D01*
X61698884Y-28542634D01*
X61884456Y-28316514D01*
X62022349Y-28058534D01*
X62107263Y-27778611D01*
X62128750Y-27560450D01*
X62128750Y-26414550D01*
X62119511Y-26320750D01*
X66467989Y-26320750D01*
X66458750Y-26414550D01*
X66458750Y-26414550D01*
G37*
X66458750Y-26414550D02*
X66458750Y-27560449D01*
X66480237Y-27778610D01*
X66565151Y-28058533D01*
X66703044Y-28316513D01*
X66888616Y-28542634D01*
X67114736Y-28728206D01*
X67372716Y-28866099D01*
X67652639Y-28951013D01*
X67943750Y-28979685D01*
X68135500Y-28960799D01*
X68135500Y-29514201D01*
X67943750Y-29495315D01*
X67652640Y-29523987D01*
X67372717Y-29608901D01*
X67114737Y-29746794D01*
X66888617Y-29932366D01*
X66733873Y-30120921D01*
X66678156Y-30013866D01*
X66599873Y-29916307D01*
X66504061Y-29835896D01*
X66394402Y-29775721D01*
X66275111Y-29738096D01*
X66175500Y-29727500D01*
X66016750Y-29886250D01*
X66016750Y-31360500D01*
X66040750Y-31360500D01*
X66040750Y-31614500D01*
X66016750Y-31614500D01*
X66016750Y-31634500D01*
X65981822Y-31634500D01*
X65981822Y-30362500D01*
X65969562Y-30238018D01*
X65933252Y-30118320D01*
X65874287Y-30008006D01*
X65794935Y-29911315D01*
X65770750Y-29891467D01*
X65770750Y-29886250D01*
X65612000Y-29727500D01*
X65512389Y-29738096D01*
X65493016Y-29744206D01*
X65468232Y-29736688D01*
X65343750Y-29724428D01*
X64843750Y-29724428D01*
X64719268Y-29736688D01*
X64693750Y-29744429D01*
X64668232Y-29736688D01*
X64543750Y-29724428D01*
X64043750Y-29724428D01*
X63919268Y-29736688D01*
X63893750Y-29744429D01*
X63868232Y-29736688D01*
X63743750Y-29724428D01*
X63243750Y-29724428D01*
X63119268Y-29736688D01*
X63093750Y-29744429D01*
X63068232Y-29736688D01*
X62943750Y-29724428D01*
X62443750Y-29724428D01*
X62319268Y-29736688D01*
X62199570Y-29772998D01*
X62089256Y-29831963D01*
X61992565Y-29911315D01*
X61913213Y-30008006D01*
X61854248Y-30118320D01*
X61853504Y-30120771D01*
X61698884Y-29932366D01*
X61472764Y-29746794D01*
X61214784Y-29608901D01*
X60934861Y-29523987D01*
X60643750Y-29495315D01*
X60452000Y-29514201D01*
X60452000Y-28960799D01*
X60643750Y-28979685D01*
X60934860Y-28951013D01*
X61214783Y-28866099D01*
X61472763Y-28728206D01*
X61698884Y-28542634D01*
X61884456Y-28316514D01*
X62022349Y-28058534D01*
X62107263Y-27778611D01*
X62128750Y-27560450D01*
X62128750Y-26414550D01*
X62119511Y-26320750D01*
X66467989Y-26320750D01*
X66458750Y-26414550D01*
M02*
